  0
SECTION
  2
HEADER
  9
$ACADVER
  1
AC1014
  9
$ACADMAINTVER
 70
     9
  9
$DWGCODEPAGE
  3
ANSI_1252
  9
$INSBASE
 10
0.0
 20
0.0
 30
0.0
  9
$EXTMIN
 10
1.000000000000000E+20
 20
1.000000000000000E+20
 30
1.000000000000000E+20
  9
$EXTMAX
 10
-1.000000000000000E+20
 20
-1.000000000000000E+20
 30
-1.000000000000000E+20
  9
$LIMMIN
 10
0.0
 20
0.0
  9
$LIMMAX
 10
12.0
 20
9.0
  9
$ORTHOMODE
 70
     0
  9
$REGENMODE
 70
     1
  9
$FILLMODE
 70
     1
  9
$QTEXTMODE
 70
     0
  9
$MIRRTEXT
 70
     1
  9
$DRAGMODE
 70
     2
  9
$LTSCALE
 40
1.0
  9
$OSMODE
 70
    37
  9
$ATTMODE
 70
     1
  9
$TEXTSIZE
 40
0.2
  9
$TRACEWID
 40
0.05
  9
$TEXTSTYLE
  7
STANDARD
  9
$CLAYER
  8
0
  9
$CELTYPE
  6
BYLAYER
  9
$CECOLOR
 62
   256
  9
$CELTSCALE
 40
1.0
  9
$DELOBJ
 70
     1
  9
$DISPSILH
 70
     0
  9
$DIMSCALE
 40
1.0
  9
$DIMASZ
 40
0.18
  9
$DIMEXO
 40
0.0625
  9
$DIMDLI
 40
0.38
  9
$DIMRND
 40
0.0
  9
$DIMDLE
 40
0.0
  9
$DIMEXE
 40
0.18
  9
$DIMTP
 40
0.0
  9
$DIMTM
 40
0.0
  9
$DIMTXT
 40
0.18
  9
$DIMCEN
 40
0.09
  9
$DIMTSZ
 40
0.0
  9
$DIMTOL
 70
     0
  9
$DIMLIM
 70
     0
  9
$DIMTIH
 70
     1
  9
$DIMTOH
 70
     1
  9
$DIMSE1
 70
     0
  9
$DIMSE2
 70
     0
  9
$DIMTAD
 70
     0
  9
$DIMZIN
 70
     0
  9
$DIMBLK
  1

  9
$DIMASO
 70
     1
  9
$DIMSHO
 70
     1
  9
$DIMPOST
  1

  9
$DIMAPOST
  1

  9
$DIMALT
 70
     0
  9
$DIMALTD
 70
     2
  9
$DIMALTF
 40
25.4
  9
$DIMLFAC
 40
1.0
  9
$DIMTOFL
 70
     0
  9
$DIMTVP
 40
0.0
  9
$DIMTIX
 70
     0
  9
$DIMSOXD
 70
     0
  9
$DIMSAH
 70
     0
  9
$DIMBLK1
  1

  9
$DIMBLK2
  1

  9
$DIMSTYLE
  2
STANDARD
  9
$DIMCLRD
 70
     0
  9
$DIMCLRE
 70
     0
  9
$DIMCLRT
 70
     0
  9
$DIMTFAC
 40
1.0
  9
$DIMGAP
 40
0.09
  9
$DIMJUST
 70
     0
  9
$DIMSD1
 70
     0
  9
$DIMSD2
 70
     0
  9
$DIMTOLJ
 70
     1
  9
$DIMTZIN
 70
     0
  9
$DIMALTZ
 70
     0
  9
$DIMALTTZ
 70
     0
  9
$DIMFIT
 70
     3
  9
$DIMUPT
 70
     0
  9
$DIMUNIT
 70
     2
  9
$DIMDEC
 70
     4
  9
$DIMTDEC
 70
     4
  9
$DIMALTU
 70
     2
  9
$DIMALTTD
 70
     2
  9
$DIMTXSTY
  7
STANDARD
  9
$DIMAUNIT
 70
     0
  9
$LUNITS
 70
     2
  9
$LUPREC
 70
     4
  9
$SKETCHINC
 40
0.1
  9
$FILLETRAD
 40
0.5
  9
$AUNITS
 70
     0
  9
$AUPREC
 70
     0
  9
$MENU
  1
.
  9
$ELEVATION
 40
0.0
  9
$PELEVATION
 40
0.0
  9
$THICKNESS
 40
0.0
  9
$LIMCHECK
 70
     0
  9
$CHAMFERA
 40
0.0
  9
$CHAMFERB
 40
0.0
  9
$CHAMFERC
 40
0.0
  9
$CHAMFERD
 40
0.0
  9
$SKPOLY
 70
     0
  9
$TDCREATE
 40
2457094.099581331
  9
$TDUPDATE
 40
2457094.099582049
  9
$TDINDWG
 40
0.0000000116
  9
$TDUSRTIMER
 40
0.0000000116
  9
$USRTIMER
 70
     1
  9
$ANGBASE
 50
0.0
  9
$ANGDIR
 70
     0
  9
$PDMODE
 70
     0
  9
$PDSIZE
 40
0.0
  9
$PLINEWID
 40
0.0
  9
$COORDS
 70
     1
  9
$SPLFRAME
 70
     0
  9
$SPLINETYPE
 70
     6
  9
$SPLINESEGS
 70
     8
  9
$ATTDIA
 70
     0
  9
$ATTREQ
 70
     1
  9
$HANDLING
 70
     1
  9
$HANDSEED
  5
3AE
  9
$SURFTAB1
 70
     6
  9
$SURFTAB2
 70
     6
  9
$SURFTYPE
 70
     6
  9
$SURFU
 70
     6
  9
$SURFV
 70
     6
  9
$UCSNAME
  2

  9
$UCSORG
 10
0.0
 20
0.0
 30
0.0
  9
$UCSXDIR
 10
1.0
 20
0.0
 30
0.0
  9
$UCSYDIR
 10
0.0
 20
1.0
 30
0.0
  9
$PUCSNAME
  2

  9
$PUCSORG
 10
0.0
 20
0.0
 30
0.0
  9
$PUCSXDIR
 10
1.0
 20
0.0
 30
0.0
  9
$PUCSYDIR
 10
0.0
 20
1.0
 30
0.0
  9
$USERI1
 70
     0
  9
$USERI2
 70
     0
  9
$USERI3
 70
     0
  9
$USERI4
 70
     0
  9
$USERI5
 70
     0
  9
$USERR1
 40
0.0
  9
$USERR2
 40
0.0
  9
$USERR3
 40
0.0
  9
$USERR4
 40
0.0
  9
$USERR5
 40
0.0
  9
$WORLDVIEW
 70
     1
  9
$SHADEDGE
 70
     3
  9
$SHADEDIF
 70
    70
  9
$TILEMODE
 70
     1
  9
$MAXACTVP
 70
    64
  9
$PINSBASE
 10
0.0
 20
0.0
 30
0.0
  9
$PLIMCHECK
 70
     0
  9
$PEXTMIN
 10
1.000000000000000E+20
 20
1.000000000000000E+20
 30
1.000000000000000E+20
  9
$PEXTMAX
 10
-1.000000000000000E+20
 20
-1.000000000000000E+20
 30
-1.000000000000000E+20
  9
$PLIMMIN
 10
0.0
 20
0.0
  9
$PLIMMAX
 10
12.0
 20
9.0
  9
$UNITMODE
 70
     0
  9
$VISRETAIN
 70
     1
  9
$PLINEGEN
 70
     0
  9
$PSLTSCALE
 70
     1
  9
$TREEDEPTH
 70
  3020
  9
$PICKSTYLE
 70
     1
  9
$CMLSTYLE
  2
STANDARD
  9
$CMLJUST
 70
     0
  9
$CMLSCALE
 40
1.0
  9
$PROXYGRAPHICS
 70
     1
  9
$MEASUREMENT
 70
     0
  0
ENDSEC
  0
SECTION
  2
CLASSES
  0
CLASS
  1
ACDBDICTIONARYWDFLT
  2
AcDbDictionaryWithDefault
  3
ObjectDBX Classes
 90
        0
280
     0
281
     0
  0
CLASS
  1
VISUALSTYLE
  2
AcDbVisualStyle
  3
ObjectDBX Classes
 90
     4095
280
     0
281
     0
  0
CLASS
  1
MATERIAL
  2
AcDbMaterial
  3
ObjectDBX Classes
 90
     1153
280
     0
281
     0
  0
CLASS
  1
SCALE
  2
AcDbScale
  3
ObjectDBX Classes
 90
     1153
280
     0
281
     0
  0
CLASS
  1
SUN
  2
AcDbSun
  3
SCENEOE
 90
     1153
280
     0
281
     0
  0
CLASS
  1
DICTIONARYVAR
  2
AcDbDictionaryVar
  3
ObjectDBX Classes
 90
        0
280
     0
281
     0
  0
CLASS
  1
XRECORD
  2
AcDbXrecord
  3
ObjectDBX Classes
 90
        0
280
     0
281
     0
  0
CLASS
  1
LWPOLYLINE
  2
AcDbPolyline
  3
ObjectDBX Classes
 90
        0
280
     0
281
     1
  0
CLASS
  1
HATCH
  2
AcDbHatch
  3
ObjectDBX Classes
 90
        0
280
     0
281
     1
  0
CLASS
  1
ACDBPLACEHOLDER
  2
AcDbPlaceHolder
  3
ObjectDBX Classes
 90
        0
280
     0
281
     0
  0
CLASS
  1
LAYOUT
  2
AcDbLayout
  3
ObjectDBX Classes
 90
        0
280
     0
281
     0
  0
ENDSEC
  0
SECTION
  2
TABLES
  0
TABLE
  2
VPORT
  5
8
102
{ACAD_XDICTIONARY
360
3A4
102
}
330
0
100
AcDbSymbolTable
 70
     1
  0
VPORT
  5
29
330
8
100
AcDbSymbolTableRecord
100
AcDbViewportTableRecord
  2
*ACTIVE
 70
     0
 10
0.0
 20
0.0
 11
1.0
 21
1.0
 12
0.0
 22
0.0
 13
0.0
 23
0.0
 14
0.5
 24
0.5
 15
0.5
 25
0.5
 16
0.0
 26
0.0
 36
1.0
 17
0.0
 27
0.0
 37
-1000.0
 40
889.5988082948124
 41
1.431629013079667
 42
50.0
 43
2279.681411410232
 44
5664.286899022219
 50
0.0
 51
0.0
 71
     0
 72
   100
 73
     1
 74
     3
 75
     0
 76
     0
 77
     0
 78
     0
  0
ENDTAB
  0
TABLE
  2
LTYPE
  5
5
330
0
100
AcDbSymbolTable
 70
     1
  0
LTYPE
  5
14
330
5
100
AcDbSymbolTableRecord
100
AcDbLinetypeTableRecord
  2
BYBLOCK
 70
     0
  3

 72
    65
 73
     0
 40
0.0
  0
LTYPE
  5
15
330
5
100
AcDbSymbolTableRecord
100
AcDbLinetypeTableRecord
  2
BYLAYER
 70
     0
  3

 72
    65
 73
     0
 40
0.0
  0
LTYPE
  5
16
330
5
100
AcDbSymbolTableRecord
100
AcDbLinetypeTableRecord
  2
CONTINUOUS
 70
     0
  3
Solid line
 72
    65
 73
     0
 40
0.0
  0
ENDTAB
  0
TABLE
  2
LAYER
  5
2
330
0
100
AcDbSymbolTable
 70
     3
  0
LAYER
  5
10
330
2
100
AcDbSymbolTableRecord
100
AcDbLayerTableRecord
  2
0
 70
     0
 62
     7
  6
CONTINUOUS
  0
LAYER
  5
6A
330
2
100
AcDbSymbolTableRecord
100
AcDbLayerTableRecord
  2
PROFILEEDGES
 70
     0
 62
     7
  6
CONTINUOUS
  0
LAYER
  5
6B
330
2
100
AcDbSymbolTableRecord
100
AcDbLayerTableRecord
  2
SECTIONCUTEDGES
 70
     0
 62
     7
  6
CONTINUOUS
  0
ENDTAB
  0
TABLE
  2
STYLE
  5
3
330
0
100
AcDbSymbolTable
 70
     2
  0
STYLE
  5
11
330
3
100
AcDbSymbolTableRecord
100
AcDbTextStyleTableRecord
  2
STANDARD
 70
     0
 40
0.0
 41
1.0
 50
0.0
 71
     0
 42
0.2
  3
txt
  4

  0
STYLE
  5
34E
330
3
100
AcDbSymbolTableRecord
100
AcDbTextStyleTableRecord
  2
TAHOMA
 70
     0
 40
0.0
 41
1.0
 50
0.0
 71
     0
 42
0.2
  3
Tahoma
  4

1001
ACAD
1000
Tahoma
1071
       34
  0
ENDTAB
  0
TABLE
  2
VIEW
  5
6
330
0
100
AcDbSymbolTable
 70
     0
  0
ENDTAB
  0
TABLE
  2
UCS
  5
7
330
0
100
AcDbSymbolTable
 70
     0
  0
ENDTAB
  0
TABLE
  2
APPID
  5
9
330
0
100
AcDbSymbolTable
 70
     1
  0
APPID
  5
12
330
9
100
AcDbSymbolTableRecord
100
AcDbRegAppTableRecord
  2
ACAD
 70
     0
  0
ENDTAB
  0
TABLE
  2
DIMSTYLE
  5
A
330
0
100
AcDbSymbolTable
 70
     1
  0
DIMSTYLE
105
27
330
A
100
AcDbSymbolTableRecord
100
AcDbDimStyleTableRecord
  2
STANDARD
 70
     0
  3

  4

  5

  6

  7

 40
1.0
 41
0.18
 42
0.0625
 43
0.38
 44
0.18
 45
0.0
 46
0.0
 47
0.0
 48
0.0
140
0.18
141
0.09
142
0.0
143
25.4
144
1.0
145
0.0
146
1.0
147
0.09
 71
     0
 72
     0
 73
     1
 74
     1
 75
     0
 76
     0
 77
     0
 78
     0
170
     0
171
     2
172
     0
173
     0
174
     0
175
     0
176
     0
177
     0
178
     0
270
     2
271
     4
272
     4
273
     2
274
     2
340
11
275
     0
280
     0
281
     0
282
     0
283
     1
284
     0
285
     0
286
     0
287
     3
288
     0
  0
ENDTAB
  0
TABLE
  2
BLOCK_RECORD
  5
1
330
0
100
AcDbSymbolTable
 70
     1
  0
BLOCK_RECORD
  5
1F
330
1
100
AcDbSymbolTableRecord
100
AcDbBlockTableRecord
  2
*MODEL_SPACE
  0
BLOCK_RECORD
  5
1B
330
1
100
AcDbSymbolTableRecord
100
AcDbBlockTableRecord
  2
*PAPER_SPACE
  0
ENDTAB
  0
ENDSEC
  0
SECTION
  2
BLOCKS
  0
BLOCK
  5
20
330
1F
100
AcDbEntity
  8
0
100
AcDbBlockBegin
  2
*MODEL_SPACE
 70
     0
 10
0.0
 20
0.0
 30
0.0
  3
*MODEL_SPACE
  1

  0
ENDBLK
  5
21
330
1F
100
AcDbEntity
  8
0
100
AcDbBlockEnd
  0
BLOCK
  5
1C
330
1B
100
AcDbEntity
 67
     1
  8
0
100
AcDbBlockBegin
  2
*PAPER_SPACE
 70
     0
 10
0.0
 20
0.0
 30
0.0
  3
*PAPER_SPACE
  1

  0
ENDBLK
  5
1D
330
1B
100
AcDbEntity
 67
     1
  8
0
100
AcDbBlockEnd
  0
ENDSEC
  0
SECTION
  2
ENTITIES
  0
LINE
  5
6C
330
1F
100
AcDbEntity
  8
0
100
AcDbLine
 10
478.2834297740361
 20
-248.8522096023485
 30
0.0
 11
493.8896763326519
 21
-248.8522096023485
 31
0.0
  0
LINE
  5
6D
330
1F
100
AcDbEntity
  8
0
100
AcDbLine
 10
478.2834297740361
 20
-109.5459245317564
 30
0.0
 11
478.2834297740361
 21
-248.8522096023485
 31
0.0
  0
LINE
  5
6E
330
1F
100
AcDbEntity
  8
0
100
AcDbLine
 10
478.2834297740361
 20
-109.5459245317564
 30
0.0
 11
493.8896763326519
 21
-109.5459245317564
 31
0.0
  0
LINE
  5
6F
330
1F
100
AcDbEntity
  8
0
100
AcDbLine
 10
493.8896763326519
 20
-109.5459245317564
 30
0.0
 11
493.8896763326519
 21
-248.8522096023485
 31
0.0
  0
LINE
  5
70
330
1F
100
AcDbEntity
  8
0
100
AcDbLine
 10
499.9813891953451
 20
195.9274428002101
 30
0.0
 11
496.5450933152712
 21
193.2906802327484
 31
0.0
  0
LINE
  5
71
330
1F
100
AcDbEntity
  8
0
100
AcDbLine
 10
503.9830405025517
 20
197.5849810435432
 30
0.0
 11
499.9813891953451
 21
195.9274428002101
 31
0.0
  0
LINE
  5
72
330
1F
100
AcDbEntity
  8
0
100
AcDbLine
 10
508.2773413133461
 20
198.1503364706757
 30
0.0
 11
503.9830405025517
 21
197.5849810435432
 31
0.0
  0
LINE
  5
73
330
1F
100
AcDbEntity
  8
0
100
AcDbLine
 10
512.5716421241407
 20
197.5849810435432
 30
0.0
 11
508.2773413133461
 21
198.1503364706757
 31
0.0
  0
LINE
  5
74
330
1F
100
AcDbEntity
  8
0
100
AcDbLine
 10
516.5732934313472
 20
195.9274428002101
 30
0.0
 11
513.2268454994938
 21
197.3135869193592
 31
0.0
  0
LINE
  5
75
330
1F
100
AcDbEntity
  8
0
100
AcDbLine
 10
520.0095893114211
 20
193.2906802327484
 30
0.0
 11
516.5732934313472
 21
195.9274428002101
 31
0.0
  0
LINE
  5
76
330
1F
100
AcDbEntity
  8
0
100
AcDbLine
 10
522.6463518788827
 20
189.8543843526747
 30
0.0
 11
520.0095893114211
 21
193.2906802327484
 31
0.0
  0
LINE
  5
77
330
1F
100
AcDbEntity
  8
0
100
AcDbLine
 10
524.3038901222155
 20
185.8527330454681
 30
0.0
 11
522.6463518788827
 21
189.8543843526747
 31
0.0
  0
LINE
  5
78
330
1F
100
AcDbEntity
  8
0
100
AcDbLine
 10
524.8692455493483
 20
181.5584322346736
 30
0.0
 11
524.3038901222155
 21
185.8527330454681
 31
0.0
  0
LINE
  5
79
330
1F
100
AcDbEntity
  8
0
100
AcDbLine
 10
524.3038901222155
 20
177.2641314238791
 30
0.0
 11
524.8692455493483
 21
181.5584322346736
 31
0.0
  0
LINE
  5
7A
330
1F
100
AcDbEntity
  8
0
100
AcDbLine
 10
522.6463518788827
 20
173.2624801166725
 30
0.0
 11
524.3038901222155
 21
177.2641314238791
 31
0.0
  0
LINE
  5
7B
330
1F
100
AcDbEntity
  8
0
100
AcDbLine
 10
520.0095893114211
 20
169.8261842365988
 30
0.0
 11
522.6463518788827
 21
173.2624801166725
 31
0.0
  0
LINE
  5
7C
330
1F
100
AcDbEntity
  8
0
100
AcDbLine
 10
512.5716421241407
 20
165.531883425804
 30
0.0
 11
513.2268454994938
 21
165.803277549988
 31
0.0
  0
LINE
  5
7D
330
1F
100
AcDbEntity
  8
0
100
AcDbLine
 10
508.2773413133461
 20
164.9665279986715
 30
0.0
 11
512.5716421241407
 21
165.531883425804
 31
0.0
  0
LINE
  5
7E
330
1F
100
AcDbEntity
  8
0
100
AcDbLine
 10
503.9830405025517
 20
165.531883425804
 30
0.0
 11
508.2773413133461
 21
164.9665279986715
 31
0.0
  0
LINE
  5
7F
330
1F
100
AcDbEntity
  8
0
100
AcDbLine
 10
499.9813891953451
 20
167.1894216691371
 30
0.0
 11
503.9830405025517
 21
165.531883425804
 31
0.0
  0
LINE
  5
80
330
1F
100
AcDbEntity
  8
0
100
AcDbLine
 10
496.5450933152712
 20
169.8261842365988
 30
0.0
 11
499.9813891953451
 21
167.1894216691371
 31
0.0
  0
LINE
  5
81
330
1F
100
AcDbEntity
  8
0
100
AcDbLine
 10
493.9083307478097
 20
173.2624801166725
 30
0.0
 11
496.5450933152712
 21
169.8261842365988
 31
0.0
  0
LINE
  5
82
330
1F
100
AcDbEntity
  8
0
100
AcDbLine
 10
492.2507925044767
 20
177.2641314238791
 30
0.0
 11
493.9083307478097
 21
173.2624801166725
 31
0.0
  0
LINE
  5
83
330
1F
100
AcDbEntity
  8
0
100
AcDbLine
 10
491.685437077344
 20
181.5584322346736
 30
0.0
 11
492.2507925044767
 21
177.2641314238791
 31
0.0
  0
LINE
  5
84
330
1F
100
AcDbEntity
  8
0
100
AcDbLine
 10
492.2507925044767
 20
185.8527330454681
 30
0.0
 11
491.685437077344
 21
181.5584322346736
 31
0.0
  0
LINE
  5
85
330
1F
100
AcDbEntity
  8
0
100
AcDbLine
 10
493.9083307478097
 20
189.8543843526747
 30
0.0
 11
492.2507925044767
 21
185.8527330454681
 31
0.0
  0
LINE
  5
86
330
1F
100
AcDbEntity
  8
0
100
AcDbLine
 10
274.0405824537602
 20
25.90668281468092
 30
0.0
 11
274.0405824537602
 21
19.33563163210582
 31
0.0
  0
LINE
  5
87
330
1F
100
AcDbEntity
  8
0
100
AcDbLine
 10
471.1721179310132
 20
25.90668281468092
 30
0.0
 11
274.0405824537602
 21
25.90668281468092
 31
0.0
  0
LINE
  5
88
330
1F
100
AcDbEntity
  8
0
100
AcDbLine
 10
636.7877319779752
 20
203.8199771956163
 30
0.0
 11
537.987141713398
 21
203.8199771956163
 31
0.0
  0
LINE
  5
89
330
1F
100
AcDbEntity
  8
0
100
AcDbLine
 10
407.552832441459
 20
-262.1029522537639
 30
0.0
 11
443.6114758058399
 21
-262.1029522537639
 31
0.0
  0
LINE
  5
8A
330
1F
100
AcDbEntity
  8
0
100
AcDbLine
 10
443.6114758058399
 20
-262.1029522537639
 30
0.0
 11
443.6114758058399
 21
-27.59856317561495
 31
0.0
  0
LINE
  5
8B
330
1F
100
AcDbEntity
  8
0
100
AcDbLine
 10
213.5869115740692
 20
-218.3401857368661
 30
0.0
 11
246.5577475085995
 21
-249.4635296184313
 31
0.0
  0
LINE
  5
8C
330
1F
100
AcDbEntity
  8
0
100
AcDbLine
 10
603.8586725765579
 20
74.30795563099299
 30
0.0
 11
605.8235232613481
 21
72.70689351424483
 31
0.0
  0
LINE
  5
8D
330
1F
100
AcDbEntity
  8
0
100
AcDbLine
 10
602.334076125732
 20
76.332713339297
 30
0.0
 11
603.8586725765579
 21
74.30795563099299
 31
0.0
  0
LINE
  5
8E
330
1F
100
AcDbEntity
  8
0
100
AcDbLine
 10
601.3383379129102
 20
78.66349508084437
 30
0.0
 11
602.334076125732
 21
76.332713339297
 31
0.0
  0
LINE
  5
8F
330
1F
100
AcDbEntity
  8
0
100
AcDbLine
 10
600.92932662366
 20
81.16484429286429
 30
0.0
 11
601.3383379129102
 21
78.66349508084437
 31
0.0
  0
LINE
  5
90
330
1F
100
AcDbEntity
  8
0
100
AcDbLine
 10
601.1308125074175
 20
83.69139165118781
 30
0.0
 11
600.92932662366
 21
81.16484429286429
 31
0.0
  0
LINE
  5
91
330
1F
100
AcDbEntity
  8
0
100
AcDbLine
 10
601.9310859369898
 20
86.09630340697575
 30
0.0
 11
601.1308125074175
 21
83.69139165118781
 31
0.0
  0
LINE
  5
92
330
1F
100
AcDbEntity
  8
0
100
AcDbLine
 10
603.2836379295259
 20
88.23981483047987
 30
0.0
 11
601.9310859369898
 21
86.09630340697575
 31
0.0
  0
LINE
  5
93
330
1F
100
AcDbEntity
  8
0
100
AcDbLine
 10
605.1098630795459
 20
89.99735282911348
 30
0.0
 11
603.2836379295259
 21
88.23981483047987
 31
0.0
  0
LINE
  5
94
330
1F
100
AcDbEntity
  8
0
100
AcDbLine
 10
607.3036278193891
 20
91.26677568278619
 30
0.0
 11
605.1098630795459
 21
89.99735282911348
 31
0.0
  0
LINE
  5
95
330
1F
100
AcDbEntity
  8
0
100
AcDbLine
 10
609.7374385163863
 20
91.97430914940726
 30
0.0
 11
607.3036278193891
 21
91.26677568278619
 31
0.0
  0
LINE
  5
96
330
1F
100
AcDbEntity
  8
0
100
AcDbLine
 10
612.2698509393697
 20
92.07883395567627
 30
0.0
 11
609.7374385163863
 21
91.97430914940726
 31
0.0
  0
LINE
  5
97
330
1F
100
AcDbEntity
  8
0
100
AcDbLine
 10
614.75369048326
 20
91.57427549978432
 30
0.0
 11
612.2698509393697
 21
92.07883395567627
 31
0.0
  0
LINE
  5
98
330
1F
100
AcDbEntity
  8
0
100
AcDbLine
 10
617.0446054221563
 20
90.48995688519341
 30
0.0
 11
614.75369048326
 21
91.57427549978432
 31
0.0
  0
LINE
  5
99
330
1F
100
AcDbEntity
  8
0
100
AcDbLine
 10
619.0094561069465
 20
88.88889476844525
 30
0.0
 11
617.0446054221563
 21
90.48995688519341
 31
0.0
  0
LINE
  5
9A
330
1F
100
AcDbEntity
  8
0
100
AcDbLine
 10
620.5340525577723
 20
86.86413706014123
 30
0.0
 11
619.0094561069465
 21
88.88889476844525
 31
0.0
  0
LINE
  5
9B
330
1F
100
AcDbEntity
  8
0
100
AcDbLine
 10
621.5297907705941
 20
84.53335531859386
 30
0.0
 11
620.5340525577723
 21
86.86413706014123
 31
0.0
  0
LINE
  5
9C
330
1F
100
AcDbEntity
  8
0
100
AcDbLine
 10
621.9388020598443
 20
82.03200610657395
 30
0.0
 11
621.5297907705941
 21
84.53335531859386
 31
0.0
  0
LINE
  5
9D
330
1F
100
AcDbEntity
  8
0
100
AcDbLine
 10
621.7373161760869
 20
79.50545874825043
 30
0.0
 11
621.9388020598443
 21
82.03200610657395
 31
0.0
  0
LINE
  5
9E
330
1F
100
AcDbEntity
  8
0
100
AcDbLine
 10
620.9370427465145
 20
77.1005469924625
 30
0.0
 11
621.7373161760869
 21
79.50545874825043
 31
0.0
  0
LINE
  5
9F
330
1F
100
AcDbEntity
  8
0
100
AcDbLine
 10
619.5844907539786
 20
74.95703556895836
 30
0.0
 11
620.9370427465145
 21
77.1005469924625
 31
0.0
  0
LINE
  5
A0
330
1F
100
AcDbEntity
  8
0
100
AcDbLine
 10
617.7582656039584
 20
73.19949757032475
 30
0.0
 11
619.5844907539786
 21
74.95703556895836
 31
0.0
  0
LINE
  5
A1
330
1F
100
AcDbEntity
  8
0
100
AcDbLine
 10
615.5645008641152
 20
71.93007471665206
 30
0.0
 11
617.7582656039584
 21
73.19949757032475
 31
0.0
  0
LINE
  5
A2
330
1F
100
AcDbEntity
  8
0
100
AcDbLine
 10
613.130690167118
 20
71.22254125003099
 30
0.0
 11
615.5645008641152
 21
71.93007471665206
 31
0.0
  0
LINE
  5
A3
330
1F
100
AcDbEntity
  8
0
100
AcDbLine
 10
610.5982777441346
 20
71.11801644376196
 30
0.0
 11
613.130690167118
 21
71.22254125003099
 31
0.0
  0
LINE
  5
A4
330
1F
100
AcDbEntity
  8
0
100
AcDbLine
 10
608.1144382002443
 20
71.62257489965391
 30
0.0
 11
610.5982777441346
 21
71.11801644376196
 31
0.0
  0
LINE
  5
A5
330
1F
100
AcDbEntity
  8
0
100
AcDbLine
 10
605.8235232613481
 20
72.70689351424483
 30
0.0
 11
608.1144382002443
 21
71.62257489965391
 31
0.0
  0
LINE
  5
A6
330
1F
100
AcDbEntity
  8
0
100
AcDbLine
 10
484.4359156229517
 20
19.33563163210582
 30
0.0
 11
484.4359156229517
 21
157.6988908047388
 31
0.0
  0
LINE
  5
A7
330
1F
100
AcDbEntity
  8
0
100
AcDbLine
 10
213.5869115740692
 20
-267.8751926552479
 30
0.0
 11
213.5869115740692
 21
-284.0414933809154
 31
0.0
  0
LINE
  5
A8
330
1F
100
AcDbEntity
  8
0
100
AcDbLine
 10
215.5558038967559
 20
-267.5317125552128
 30
0.0
 11
219.1042307808957
 21
-266.6736708035942
 31
0.0
  0
LINE
  5
A9
330
1F
100
AcDbEntity
  8
0
100
AcDbLine
 10
219.1042307808957
 20
-266.6736708035942
 30
0.0
 11
222.5899308908088
 21
-265.5885607891908
 31
0.0
  0
LINE
  5
AA
330
1F
100
AcDbEntity
  8
0
100
AcDbLine
 10
222.5899308908088
 20
-265.5885607891908
 30
0.0
 11
225.9983901251398
 21
-264.2809007999316
 31
0.0
  0
LINE
  5
AB
330
1F
100
AcDbEntity
  8
0
100
AcDbLine
 10
225.9983901251398
 20
-264.2809007999316
 30
0.0
 11
229.3154160056974
 21
-262.7561357992454
 31
0.0
  0
LINE
  5
AC
330
1F
100
AcDbEntity
  8
0
100
AcDbLine
 10
229.3154160056974
 20
-262.7561357992454
 30
0.0
 11
232.5271967734917
 21
-261.0206147537858
 31
0.0
  0
LINE
  5
AD
330
1F
100
AcDbEntity
  8
0
100
AcDbLine
 10
232.5271967734917
 20
-261.0206147537858
 30
0.0
 11
235.6203588994972
 21
-259.0815641969792
 31
0.0
  0
LINE
  5
AE
330
1F
100
AcDbEntity
  8
0
100
AcDbLine
 10
235.6203588994972
 20
-259.0815641969792
 30
0.0
 11
238.5820227706692
 21
-256.9470581384728
 31
0.0
  0
LINE
  5
AF
330
1F
100
AcDbEntity
  8
0
100
AcDbLine
 10
238.5820227706692
 20
-256.9470581384728
 30
0.0
 11
241.3998563193453
 21
-254.625984444778
 31
0.0
  0
LINE
  5
B0
330
1F
100
AcDbEntity
  8
0
100
AcDbLine
 10
241.3998563193453
 20
-254.625984444778
 30
0.0
 11
244.0621263727229
 21
-252.1280078310974
 31
0.0
  0
LINE
  5
B1
330
1F
100
AcDbEntity
  8
0
100
AcDbLine
 10
244.0621263727229
 20
-252.1280078310974
 30
0.0
 11
246.5577475085995
 21
-249.4635296184313
 31
0.0
  0
LINE
  5
B2
330
1F
100
AcDbEntity
  8
0
100
AcDbLine
 10
213.5869115740692
 20
-267.8751926552479
 30
0.0
 11
215.5558038967559
 21
-267.5317125552128
 31
0.0
  0
LINE
  5
B3
330
1F
100
AcDbEntity
  8
0
100
AcDbLine
 10
217.3176617615964
 20
191.8519043156055
 30
0.0
 11
220.7858292987987
 21
194.070225277701
 31
0.0
  0
LINE
  5
B4
330
1F
100
AcDbEntity
  8
0
100
AcDbLine
 10
220.7858292987987
 20
194.070225277701
 30
0.0
 11
223.5616781797395
 21
197.1105865962219
 31
0.0
  0
LINE
  5
B5
330
1F
100
AcDbEntity
  8
0
100
AcDbLine
 10
223.5616781797395
 20
197.1105865962219
 30
0.0
 11
225.4560388904894
 21
200.7657926717455
 31
0.0
  0
LINE
  5
B6
330
1F
100
AcDbEntity
  8
0
100
AcDbLine
 10
225.4560388904894
 20
200.7657926717455
 30
0.0
 11
226.307400604878
 21
204.6392749807237
 31
0.0
  0
LINE
  5
B7
330
1F
100
AcDbEntity
  8
0
100
AcDbLine
 10
213.5869115740692
 20
190.6681589120753
 30
0.0
 11
217.3176617615964
 21
191.8519043156055
 31
0.0
  0
LINE
  5
B8
330
1F
100
AcDbEntity
  8
0
100
AcDbLine
 10
213.5869115740692
 20
-218.3401857368661
 30
0.0
 11
213.5869115740692
 21
-59.99286220828035
 31
0.0
  0
LINE
  5
B9
330
1F
100
AcDbEntity
  8
0
100
AcDbLine
 10
513.2268454994938
 20
204.6392749807237
 30
0.0
 11
513.2268454994938
 21
203.8199771956163
 31
0.0
  0
LINE
  5
BA
330
1F
100
AcDbEntity
  8
0
100
AcDbLine
 10
513.2268454994938
 20
197.3135869193592
 30
0.0
 11
512.5716421241407
 21
197.5849810435432
 31
0.0
  0
LINE
  5
BB
330
1F
100
AcDbEntity
  8
0
100
AcDbLine
 10
513.2268454994938
 20
165.803277549988
 30
0.0
 11
516.5732934313472
 21
167.1894216691371
 31
0.0
  0
LINE
  5
BC
330
1F
100
AcDbEntity
  8
0
100
AcDbLine
 10
513.2268454994938
 20
203.8199771956163
 30
0.0
 11
490.8185578958602
 21
203.8199771956163
 31
0.0
  0
LINE
  5
BD
330
1F
100
AcDbEntity
  8
0
100
AcDbLine
 10
226.307400604878
 20
204.6392749807237
 30
0.0
 11
459.788614415214
 21
204.6392749807237
 31
0.0
  0
LINE
  5
BE
330
1F
100
AcDbEntity
  8
0
100
AcDbLine
 10
513.2268454994938
 20
197.3135869193592
 30
0.0
 11
513.2268454994938
 21
165.803277549988
 31
0.0
  0
LINE
  5
BF
330
1F
100
AcDbEntity
  8
0
100
AcDbLine
 10
407.552832441459
 20
-27.59856317561495
 30
0.0
 11
407.552832441459
 21
-262.1029522537639
 31
0.0
  0
LINE
  5
C0
330
1F
100
AcDbEntity
  8
0
100
AcDbLine
 10
484.4359156229517
 20
19.33563163210582
 30
0.0
 11
274.0405824537602
 21
19.33563163210582
 31
0.0
  0
LINE
  5
C1
330
1F
100
AcDbEntity
  8
0
100
AcDbLine
 10
537.987141713398
 20
203.8199771956163
 30
0.0
 11
537.987141713398
 21
189.6922171530798
 31
0.0
  0
LINE
  5
C2
330
1F
100
AcDbEntity
  8
0
100
AcDbLine
 10
484.4359156229517
 20
157.6988908047388
 30
0.0
 11
537.987141713398
 21
157.6988908047388
 31
0.0
  0
LINE
  5
C3
330
1F
100
AcDbEntity
  8
0
100
AcDbLine
 10
407.552832441459
 20
-27.59856317561495
 30
0.0
 11
443.6114758058399
 21
-27.59856317561495
 31
0.0
  0
LINE
  5
C4
330
1F
100
AcDbEntity
  8
0
100
AcDbLine
 10
-106.9656392464441
 20
132.4398501121798
 30
0.0
 11
-106.9656392464441
 21
172.5232623258879
 31
0.0
  0
LINE
  5
C5
330
1F
100
AcDbEntity
  8
0
100
AcDbLine
 10
-106.9656392464441
 20
92.35643789847163
 30
0.0
 11
-106.9656392464441
 21
132.4398501121798
 31
0.0
  0
LINE
  5
C6
330
1F
100
AcDbEntity
  8
0
100
AcDbLine
 10
-62.11821492536904
 20
147.2295899400232
 30
0.0
 11
-112.2224801925042
 21
181.722733981493
 31
0.0
  0
LINE
  5
C7
330
1F
100
AcDbEntity
  8
0
100
AcDbLine
 10
-60.12110043031188
 20
-29.24915138584857
 30
0.0
 11
-62.11821492536904
 21
-29.32622207515723
 31
0.0
  0
LINE
  5
C8
330
1F
100
AcDbEntity
  8
0
100
AcDbLine
 10
-60.12110043031188
 20
-29.24915138584857
 30
0.0
 11
-58.41993723201004
 21
-29.24915138584857
 31
0.0
  0
LINE
  5
C9
330
1F
100
AcDbEntity
  8
0
100
AcDbLine
 10
-54.65232696853613
 20
-30.10443953305389
 30
0.0
 11
-58.41993723201004
 21
-29.24915138584857
 31
0.0
  0
LINE
  5
CA
330
1F
100
AcDbEntity
  8
0
100
AcDbLine
 10
-51.01023145857554
 20
-32.02388587335694
 30
0.0
 11
-54.65232696853613
 21
-30.10443953305389
 31
0.0
  0
LINE
  5
CB
330
1F
100
AcDbEntity
  8
0
100
AcDbLine
 10
-47.98902661261595
 20
-34.82057234769194
 30
0.0
 11
-51.01023145857554
 21
-32.02388587335694
 31
0.0
  0
LINE
  5
CC
330
1F
100
AcDbEntity
  8
0
100
AcDbLine
 10
-45.79460254813238
 20
-38.30390939457575
 30
0.0
 11
-47.98902661261595
 21
-34.82057234769194
 31
0.0
  0
LINE
  5
CD
330
1F
100
AcDbEntity
  8
0
100
AcDbLine
 10
-44.57650563866219
 20
-42.2365133507499
 30
0.0
 11
-45.79460254813238
 21
-38.30390939457575
 31
0.0
  0
LINE
  5
CE
330
1F
100
AcDbEntity
  8
0
100
AcDbLine
 10
-44.47385813859465
 20
-44.8963936775658
 30
0.0
 11
-44.57650563866219
 21
-42.2365133507499
 31
0.0
  0
LINE
  5
CF
330
1F
100
AcDbEntity
  8
0
100
AcDbLine
 10
-45.32914628580004
 20
-50.36516713934164
 30
0.0
 11
-44.83352548230478
 21
-48.18191926885336
 31
0.0
  0
LINE
  5
D0
330
1F
100
AcDbEntity
  8
0
100
AcDbLine
 10
-47.2485926261031
 20
-54.00726264930223
 30
0.0
 11
-45.32914628580004
 21
-50.36516713934164
 31
0.0
  0
LINE
  5
D1
330
1F
100
AcDbEntity
  8
0
100
AcDbLine
 10
-50.04527910043802
 20
-57.02846749526181
 30
0.0
 11
-47.2485926261031
 21
-54.00726264930223
 31
0.0
  0
LINE
  5
D2
330
1F
100
AcDbEntity
  8
0
100
AcDbLine
 10
-53.52861614732183
 20
-59.22289155974524
 30
0.0
 11
-50.04527910043802
 21
-57.02846749526181
 31
0.0
  0
LINE
  5
D3
330
1F
100
AcDbEntity
  8
0
100
AcDbLine
 10
-57.46122010349598
 20
-60.4409884692155
 30
0.0
 11
-53.52861614732183
 21
-59.22289155974524
 31
0.0
  0
LINE
  5
D4
330
1F
100
AcDbEntity
  8
0
100
AcDbLine
 10
-65.58987389208771
 20
-59.68834782207772
 30
0.0
 11
-61.5750905082826
 21
-60.59974693229228
 31
0.0
  0
LINE
  5
D5
330
1F
100
AcDbEntity
  8
0
100
AcDbLine
 10
-69.23196940204824
 20
-57.76890148177467
 30
0.0
 11
-65.58987389208771
 21
-59.68834782207772
 31
0.0
  0
LINE
  5
D6
330
1F
100
AcDbEntity
  8
0
100
AcDbLine
 10
-72.25317424800782
 20
-54.97221500743967
 30
0.0
 11
-69.23196940204824
 21
-57.76890148177467
 31
0.0
  0
LINE
  5
D7
330
1F
100
AcDbEntity
  8
0
100
AcDbLine
 10
-74.4475983124914
 20
-51.48887796055586
 30
0.0
 11
-72.25317424800782
 21
-54.97221500743967
 31
0.0
  0
LINE
  5
D8
330
1F
100
AcDbEntity
  8
0
100
AcDbLine
 10
-75.66569522196158
 20
-47.55627400438171
 30
0.0
 11
-74.4475983124914
 21
-51.48887796055586
 31
0.0
  0
LINE
  5
D9
330
1F
100
AcDbEntity
  8
0
100
AcDbLine
 10
-75.82445368503836
 20
-43.44240359959509
 30
0.0
 11
-75.66569522196158
 21
-47.55627400438171
 31
0.0
  0
LINE
  5
DA
330
1F
100
AcDbEntity
  8
0
100
AcDbLine
 10
-74.91305457482373
 20
-39.42762021578998
 30
0.0
 11
-75.82445368503836
 21
-43.44240359959509
 31
0.0
  0
LINE
  5
DB
330
1F
100
AcDbEntity
  8
0
100
AcDbLine
 10
-72.99360823452068
 20
-35.78552470582938
 30
0.0
 11
-74.91305457482373
 21
-39.42762021578998
 31
0.0
  0
LINE
  5
DC
330
1F
100
AcDbEntity
  8
0
100
AcDbLine
 10
-70.19692176018575
 20
-32.76431985986979
 30
0.0
 11
-72.99360823452068
 21
-35.78552470582938
 31
0.0
  0
LINE
  5
DD
330
1F
100
AcDbEntity
  8
0
100
AcDbLine
 10
-66.71358471330201
 20
-30.56989579538638
 30
0.0
 11
-70.19692176018575
 21
-32.76431985986979
 31
0.0
  0
LINE
  5
DE
330
1F
100
AcDbEntity
  8
0
100
AcDbLine
 10
-66.0608456349141
 20
-30.36771437489872
 30
0.0
 11
-66.71358471330201
 21
-30.56989579538638
 31
0.0
  0
LINE
  5
DF
330
1F
100
AcDbEntity
  8
0
100
AcDbLine
 10
-313.9537514975598
 20
92.35643789847163
 30
0.0
 11
-106.9656392464441
 21
92.35643789847163
 31
0.0
  0
LINE
  5
E0
330
1F
100
AcDbEntity
  8
0
100
AcDbLine
 10
-66.0608456349141
 20
-30.36771437489872
 30
0.0
 11
-66.0608456349141
 21
132.4398501121798
 31
0.0
  0
LINE
  5
E1
330
1F
100
AcDbEntity
  8
0
100
AcDbLine
 10
-66.0608456349141
 20
132.4398501121798
 30
0.0
 11
-66.0608456349141
 21
146.1524063712019
 31
0.0
  0
LINE
  5
E2
330
1F
100
AcDbEntity
  8
0
100
AcDbLine
 10
-310.0111207880148
 20
-66.00589560158832
 30
0.0
 11
-310.0111207880148
 21
-6.209329840154894
 31
0.0
  0
LINE
  5
E3
330
1F
100
AcDbEntity
  8
0
100
AcDbLine
 10
-310.0111207880148
 20
-6.209329840154894
 30
0.0
 11
-313.9537514975598
 21
-6.209329840154894
 31
0.0
  0
LINE
  5
E4
330
1F
100
AcDbEntity
  8
0
100
AcDbLine
 10
-313.9537514975598
 20
-6.209329840154894
 30
0.0
 11
-313.9537514975598
 21
92.35643789847163
 31
0.0
  0
LINE
  5
E5
330
1F
100
AcDbEntity
  8
0
100
AcDbLine
 10
-66.0608456349141
 20
146.1524063712019
 30
0.0
 11
-106.9656392464441
 21
172.5232623258879
 31
0.0
  0
LINE
  5
E6
330
1F
100
AcDbEntity
  8
0
100
AcDbLine
 10
-106.9656392464441
 20
132.4398501121798
 30
0.0
 11
-66.0608456349141
 21
132.4398501121798
 31
0.0
  0
LINE
  5
E7
330
1F
100
AcDbEntity
  8
0
100
AcDbLine
 10
-329.7242743357401
 20
-207.2834960269533
 30
0.0
 11
-321.582650080463
 21
-207.2834960269531
 31
0.0
  0
LINE
  5
E8
330
1F
100
AcDbEntity
  8
0
100
AcDbLine
 10
-329.7242743357401
 20
-67.977210956361
 30
0.0
 11
-329.7242743357401
 21
-207.2834960269533
 31
0.0
  0
LINE
  5
E9
330
1F
100
AcDbEntity
  8
0
100
AcDbLine
 10
-329.7242743357401
 20
-67.977210956361
 30
0.0
 11
-321.582650080463
 21
-67.977210956361
 31
0.0
  0
LINE
  5
EA
330
1F
100
AcDbEntity
  8
0
100
AcDbLine
 10
-321.582650080463
 20
-67.977210956361
 30
0.0
 11
-321.582650080463
 21
-207.2834960269531
 31
0.0
  0
LINE
  5
EB
330
1F
100
AcDbEntity
  8
0
100
AcDbLine
 10
-44.83352548230478
 20
-48.18191926885336
 30
0.0
 11
-36.15087006806024
 21
-48.18191926885336
 31
0.0
  0
LINE
  5
EC
330
1F
100
AcDbEntity
  8
0
100
AcDbLine
 10
-44.47385813859465
 20
-44.8963936775658
 30
0.0
 11
18.12244322104008
 21
-44.8963936775658
 31
0.0
  0
LINE
  5
ED
330
1F
100
AcDbEntity
  8
0
100
AcDbLine
 10
14.24442265694454
 20
-48.18191926885336
 30
0.0
 11
18.12244322104008
 21
-44.8963936775658
 31
0.0
  0
LINE
  5
EE
330
1F
100
AcDbEntity
  8
0
100
AcDbLine
 10
-58.41993723201004
 20
-29.24915138584857
 30
0.0
 11
-58.66711035234125
 21
-29.19304042283933
 31
0.0
  0
LINE
  5
EF
330
1F
100
AcDbEntity
  8
0
100
AcDbLine
 10
-258.7569215639289
 20
-244.0813826493737
 30
0.0
 11
-313.9537514975598
 21
-244.0813826493737
 31
0.0
  0
LINE
  5
F0
330
1F
100
AcDbEntity
  8
0
100
AcDbLine
 10
-258.7569215639289
 20
-244.0813826493737
 30
0.0
 11
-258.7569215639289
 21
-295.3355818734595
 31
0.0
  0
LINE
  5
F1
330
1F
100
AcDbEntity
  8
0
100
AcDbLine
 10
-46.14631395699313
 20
216.1202111160155
 30
0.0
 11
-48.65254372408531
 21
219.38639333866
 31
0.0
  0
LINE
  5
F2
330
1F
100
AcDbEntity
  8
0
100
AcDbLine
 10
-55.72227570407456
 20
223.4681050004054
 30
0.0
 11
-59.80398736581989
 21
224.0054725351056
 31
0.0
  0
LINE
  5
F3
330
1F
100
AcDbEntity
  8
0
100
AcDbLine
 10
-337.1888966390788
 20
-67.977210956361
 30
0.0
 11
-329.7242743357401
 21
-67.977210956361
 31
0.0
  0
LINE
  5
F4
330
1F
100
AcDbEntity
  8
0
100
AcDbLine
 10
-337.1888966390788
 20
-67.977210956361
 30
0.0
 11
-337.1888966390788
 21
-207.2834960269531
 31
0.0
  0
LINE
  5
F5
330
1F
100
AcDbEntity
  8
0
100
AcDbLine
 10
-337.1888966390788
 20
-207.2834960269531
 30
0.0
 11
-329.7242743357401
 21
-207.2834960269533
 31
0.0
  0
LINE
  5
F6
330
1F
100
AcDbEntity
  8
0
100
AcDbLine
 10
-44.57083206233998
 20
212.3166613586707
 30
0.0
 11
-46.14631395699313
 21
216.1202111160155
 31
0.0
  0
LINE
  5
F7
330
1F
100
AcDbEntity
  8
0
100
AcDbLine
 10
115.7929958428518
 20
-248.0240133589188
 30
0.0
 11
86.39356165302387
 21
-213.5071794092379
 31
0.0
  0
LINE
  5
F8
330
1F
100
AcDbEntity
  8
0
100
AcDbLine
 10
-75.03714266929973
 20
212.3166613586707
 30
0.0
 11
-75.57451020400013
 21
208.2349496969254
 31
0.0
  0
LINE
  5
F9
330
1F
100
AcDbEntity
  8
0
100
AcDbLine
 10
-70.95543100755448
 20
219.38639333866
 30
0.0
 11
-73.46166077464665
 21
216.1202111160155
 31
0.0
  0
LINE
  5
FA
330
1F
100
AcDbEntity
  8
0
100
AcDbLine
 10
-313.9537514975598
 20
-295.3355818734595
 30
0.0
 11
-313.9537514975598
 21
-244.0813826493737
 31
0.0
  0
LINE
  5
FB
330
1F
100
AcDbEntity
  8
0
100
AcDbLine
 10
-63.88569902756515
 20
223.4681050004054
 30
0.0
 11
-67.68924878491002
 21
221.8926231057521
 31
0.0
  0
LINE
  5
FC
330
1F
100
AcDbEntity
  8
0
100
AcDbLine
 10
-51.91872594672977
 20
221.8926231057521
 30
0.0
 11
-55.72227570407456
 21
223.4681050004054
 31
0.0
  0
LINE
  5
FD
330
1F
100
AcDbEntity
  8
0
100
AcDbLine
 10
-73.46166077464665
 20
216.1202111160155
 30
0.0
 11
-75.03714266929973
 21
212.3166613586707
 31
0.0
  0
LINE
  5
FE
330
1F
100
AcDbEntity
  8
0
100
AcDbLine
 10
-67.68924878491002
 20
221.8926231057521
 30
0.0
 11
-70.95543100755448
 21
219.38639333866
 31
0.0
  0
LINE
  5
FF
330
1F
100
AcDbEntity
  8
0
100
AcDbLine
 10
-75.03714266929973
 20
204.1532380351801
 30
0.0
 11
-73.46166077464665
 21
200.3496882778353
 31
0.0
  0
LINE
  5
100
330
1F
100
AcDbEntity
  8
0
100
AcDbLine
 10
-48.65254372408531
 20
219.38639333866
 30
0.0
 11
-51.91872594672977
 21
221.8926231057521
 31
0.0
  0
LINE
  5
101
330
1F
100
AcDbEntity
  8
0
100
AcDbLine
 10
115.7929958428518
 20
-198.5698909813806
 30
0.0
 11
115.7929958428518
 21
-48.18191926885336
 31
0.0
  0
LINE
  5
102
330
1F
100
AcDbEntity
  8
0
100
AcDbLine
 10
60.15776694266576
 20
-48.18191926885336
 30
0.0
 11
60.15776694266576
 21
-44.8963936775658
 31
0.0
  0
LINE
  5
103
330
1F
100
AcDbEntity
  8
0
100
AcDbLine
 10
115.0923225675516
 20
-198.5103264221167
 30
0.0
 11
115.7929958428518
 21
-198.5698909813806
 31
0.0
  0
LINE
  5
104
330
1F
100
AcDbEntity
  8
0
100
AcDbLine
 10
86.39356165302387
 20
-213.5071794092379
 30
0.0
 11
88.37610452126896
 21
-210.7644865573123
 31
0.0
  0
LINE
  5
105
330
1F
100
AcDbEntity
  8
0
100
AcDbLine
 10
98.76884299235194
 20
-202.2310137689462
 30
0.0
 11
101.8449017713584
 21
-200.8200911301985
 31
0.0
  0
LINE
  5
106
330
1F
100
AcDbEntity
  8
0
100
AcDbLine
 10
95.85410481478077
 20
-203.9506479337156
 30
0.0
 11
98.76884299235194
 21
-202.2310137689462
 31
0.0
  0
LINE
  5
107
330
1F
100
AcDbEntity
  8
0
100
AcDbLine
 10
93.13156489392838
 20
-205.9607764579147
 30
0.0
 11
95.85410481478077
 21
-203.9506479337156
 31
0.0
  0
LINE
  5
108
330
1F
100
AcDbEntity
  8
0
100
AcDbLine
 10
101.8449017713584
 20
-200.8200911301985
 30
0.0
 11
105.0496945258929
 21
-199.732826808648
 31
0.0
  0
LINE
  5
109
330
1F
100
AcDbEntity
  8
0
100
AcDbLine
 10
88.37610452126896
 20
-210.7644865573123
 30
0.0
 11
90.63006480802603
 21
-208.2401047854411
 31
0.0
  0
LINE
  5
10A
330
1F
100
AcDbEntity
  8
0
100
AcDbLine
 10
90.63006480802603
 20
-208.2401047854411
 30
0.0
 11
93.13156489392838
 21
-205.9607764579147
 31
0.0
  0
LINE
  5
10B
330
1F
100
AcDbEntity
  8
0
100
AcDbLine
 10
108.3492708700542
 20
-198.9807388792907
 30
0.0
 11
111.7086763157441
 21
-198.5717946827283
 31
0.0
  0
LINE
  5
10C
330
1F
100
AcDbEntity
  8
0
100
AcDbLine
 10
105.0496945258929
 20
-199.732826808648
 30
0.0
 11
108.3492708700542
 21
-198.9807388792907
 31
0.0
  0
LINE
  5
10D
330
1F
100
AcDbEntity
  8
0
100
AcDbLine
 10
111.7086763157441
 20
-198.5717946827283
 30
0.0
 11
115.0923225675516
 21
-198.5103264221167
 31
0.0
  0
LINE
  5
10E
330
1F
100
AcDbEntity
  8
0
100
AcDbLine
 10
-310.0111207880148
 20
-66.00589560158832
 30
0.0
 11
-313.9537514975598
 21
-66.00589560158832
 31
0.0
  0
LINE
  5
10F
330
1F
100
AcDbEntity
  8
0
100
AcDbLine
 10
115.7929958428518
 20
344.027698191098
 30
0.0
 11
-112.2224801925042
 21
344.027698191098
 31
0.0
  0
LINE
  5
110
330
1F
100
AcDbEntity
  8
0
100
AcDbLine
 10
115.7929958428518
 20
-295.3355818734595
 30
0.0
 11
115.7929958428518
 21
-248.0240133589188
 31
0.0
  0
LINE
  5
111
330
1F
100
AcDbEntity
  8
0
100
AcDbLine
 10
-258.7569215639289
 20
-295.3355818734595
 30
0.0
 11
-313.9537514975598
 21
-295.3355818734595
 31
0.0
  0
LINE
  5
112
330
1F
100
AcDbEntity
  8
0
100
AcDbLine
 10
-44.97691008830587
 20
-295.3355818734597
 30
0.0
 11
-36.15087006806024
 21
-295.3355818734597
 31
0.0
  0
LINE
  5
113
330
1F
100
AcDbEntity
  8
0
100
AcDbLine
 10
-44.97691008830587
 20
-295.3355818734597
 30
0.0
 11
-45.2757108323399
 21
-293.9562018470152
 31
0.0
  0
LINE
  5
114
330
1F
100
AcDbEntity
  8
0
100
AcDbLine
 10
-45.2757108323399
 20
-293.9562018470152
 30
0.0
 11
-47.15899295302183
 21
-290.2952754054027
 31
0.0
  0
LINE
  5
115
330
1F
100
AcDbEntity
  8
0
100
AcDbLine
 10
-47.15899295302183
 20
-290.2952754054027
 30
0.0
 11
-49.92562127738569
 21
-287.2465212874382
 31
0.0
  0
LINE
  5
116
330
1F
100
AcDbEntity
  8
0
100
AcDbLine
 10
-49.92562127738569
 20
-287.2465212874382
 30
0.0
 11
-53.38705465719552
 21
-285.0177070479566
 31
0.0
  0
LINE
  5
117
330
1F
100
AcDbEntity
  8
0
100
AcDbLine
 10
-53.38705465719552
 20
-285.0177070479566
 30
0.0
 11
-57.30740212790636
 21
-283.7607226940889
 31
0.0
  0
LINE
  5
118
330
1F
100
AcDbEntity
  8
0
100
AcDbLine
 10
-61.41949848806995
 20
-283.5612296322863
 30
0.0
 11
-65.44311116630148
 21
-284.4328229850327
 31
0.0
  0
LINE
  5
119
330
1F
100
AcDbEntity
  8
0
100
AcDbLine
 10
-65.44311116630148
 20
-284.4328229850327
 30
0.0
 11
-69.10403760791395
 21
-286.3161051057146
 31
0.0
  0
LINE
  5
11A
330
1F
100
AcDbEntity
  8
0
100
AcDbLine
 10
-69.10403760791395
 20
-286.3161051057146
 30
0.0
 11
-72.15279172587843
 21
-289.0827334300785
 31
0.0
  0
LINE
  5
11B
330
1F
100
AcDbEntity
  8
0
100
AcDbLine
 10
-72.15279172587843
 20
-289.0827334300785
 30
0.0
 11
-74.38160596536001
 21
-292.5441668098883
 31
0.0
  0
LINE
  5
11C
330
1F
100
AcDbEntity
  8
0
100
AcDbLine
 10
-74.38160596536001
 20
-292.5441668098883
 30
0.0
 11
-75.2766197584674
 21
-295.3355818734597
 31
0.0
  0
LINE
  5
11D
330
1F
100
AcDbEntity
  8
0
100
AcDbLine
 10
-313.9537514975598
 20
-244.0813826493737
 30
0.0
 11
-313.9537514975598
 21
-66.00589560158832
 31
0.0
  0
LINE
  5
11E
330
1F
100
AcDbEntity
  8
0
100
AcDbLine
 10
-73.46166077464665
 20
200.3496882778353
 30
0.0
 11
-70.95543100755448
 21
197.0835060551907
 31
0.0
  0
LINE
  5
11F
330
1F
100
AcDbEntity
  8
0
100
AcDbLine
 10
-70.95543100755448
 20
197.0835060551907
 30
0.0
 11
-67.68924878491002
 21
194.5772762880986
 31
0.0
  0
LINE
  5
120
330
1F
100
AcDbEntity
  8
0
100
AcDbLine
 10
-67.68924878491002
 20
194.5772762880986
 30
0.0
 11
-63.88569902756522
 21
193.0017943934454
 31
0.0
  0
LINE
  5
121
330
1F
100
AcDbEntity
  8
0
100
AcDbLine
 10
-59.80398736581989
 20
192.4644268587452
 30
0.0
 11
-55.72227570407456
 21
193.0017943934454
 31
0.0
  0
LINE
  5
122
330
1F
100
AcDbEntity
  8
0
100
AcDbLine
 10
-55.72227570407456
 20
193.0017943934454
 30
0.0
 11
-51.91872594672977
 21
194.5772762880986
 31
0.0
  0
LINE
  5
123
330
1F
100
AcDbEntity
  8
0
100
AcDbLine
 10
-51.91872594672977
 20
194.5772762880986
 30
0.0
 11
-48.65254372408531
 21
197.0835060551907
 31
0.0
  0
LINE
  5
124
330
1F
100
AcDbEntity
  8
0
100
AcDbLine
 10
-48.65254372408531
 20
197.0835060551907
 30
0.0
 11
-46.14631395699313
 21
200.3496882778353
 31
0.0
  0
LINE
  5
125
330
1F
100
AcDbEntity
  8
0
100
AcDbLine
 10
-46.14631395699313
 20
200.3496882778353
 30
0.0
 11
-44.57083206233998
 21
204.1532380351801
 31
0.0
  0
LINE
  5
126
330
1F
100
AcDbEntity
  8
0
100
AcDbLine
 10
-44.57083206233998
 20
204.1532380351801
 30
0.0
 11
-44.03346452763965
 21
208.2349496969254
 31
0.0
  0
LINE
  5
127
330
1F
100
AcDbEntity
  8
0
100
AcDbLine
 10
460.7959289400541
 20
200.7845983534478
 30
0.0
 11
462.8322763763481
 21
197.2065509703522
 31
0.0
  0
LINE
  5
128
330
1F
100
AcDbEntity
  8
0
100
AcDbLine
 10
462.8322763763481
 20
197.2065509703522
 30
0.0
 11
465.7253037633864
 21
194.2774680942928
 31
0.0
  0
LINE
  5
129
330
1F
100
AcDbEntity
  8
0
100
AcDbLine
 10
465.7253037633864
 20
194.2774680942928
 30
0.0
 11
469.277856065696
 21
192.1969618827349
 31
0.0
  0
LINE
  5
12A
330
1F
100
AcDbEntity
  8
0
100
AcDbLine
 10
469.277856065696
 20
192.1969618827349
 30
0.0
 11
471.1721179310132
 21
191.6768019169801
 31
0.0
  0
LINE
  5
12B
330
1F
100
AcDbEntity
  8
0
100
AcDbLine
 10
491.0256431942249
 20
204.5741178626911
 30
0.0
 11
491.0260467028579
 21
204.6392749807237
 31
0.0
  0
LINE
  5
12C
330
1F
100
AcDbEntity
  8
0
100
AcDbLine
 10
471.1721179310132
 20
191.6768019169801
 30
0.0
 11
471.1721179310132
 21
25.90668281468092
 31
0.0
  0
LINE
  5
12D
330
1F
100
AcDbEntity
  8
0
100
AcDbLine
 10
491.0260467028579
 20
204.6392749807237
 30
0.0
 11
513.2268454994938
 21
204.6392749807237
 31
0.0
  0
LINE
  5
12E
330
1F
100
AcDbEntity
  8
0
100
AcDbLine
 10
490.8185578958602
 20
203.8199771956163
 30
0.0
 11
491.0256431942249
 21
204.5741178626911
 31
0.0
  0
LINE
  5
12F
330
1F
100
AcDbEntity
  8
0
100
AcDbLine
 10
459.788614415214
 20
204.6392749807237
 30
0.0
 11
460.7959289400541
 21
200.7845983534478
 31
0.0
  0
LINE
  5
130
330
1F
100
AcDbEntity
  8
0
100
AcDbLine
 10
214.6504996238554
 20
-59.89927143353905
 30
0.0
 11
218.5184423461313
 21
-58.48925262012875
 31
0.0
  0
LINE
  5
131
330
1F
100
AcDbEntity
  8
0
100
AcDbLine
 10
218.5184423461313
 20
-58.48925262012875
 30
0.0
 11
221.8896483933209
 21
-56.12618179081174
 31
0.0
  0
LINE
  5
132
330
1F
100
AcDbEntity
  8
0
100
AcDbLine
 10
221.8896483933209
 20
-56.12618179081174
 30
0.0
 11
224.5343756444898
 21
-52.97109831744642
 31
0.0
  0
LINE
  5
133
330
1F
100
AcDbEntity
  8
0
100
AcDbLine
 10
224.5343756444898
 20
-52.97109831744642
 30
0.0
 11
226.2723903080892
 21
-49.23901592472107
 31
0.0
  0
LINE
  5
134
330
1F
100
AcDbEntity
  8
0
100
AcDbLine
 10
226.2723903080892
 20
-49.23901592472107
 30
0.0
 11
226.9852495569998
 21
-45.18426986014195
 31
0.0
  0
LINE
  5
135
330
1F
100
AcDbEntity
  8
0
100
AcDbLine
 10
226.9852495569998
 20
-45.18426986014195
 30
0.0
 11
226.624373211464
 21
-41.08318436722544
 31
0.0
  0
LINE
  5
136
330
1F
100
AcDbEntity
  8
0
100
AcDbLine
 10
226.624373211464
 20
-41.08318436722544
 30
0.0
 11
225.2143543980538
 21
-37.21524164494958
 31
0.0
  0
LINE
  5
137
330
1F
100
AcDbEntity
  8
0
100
AcDbLine
 10
225.2143543980538
 20
-37.21524164494958
 30
0.0
 11
222.8512835687366
 21
-33.84403559775994
 31
0.0
  0
LINE
  5
138
330
1F
100
AcDbEntity
  8
0
100
AcDbLine
 10
222.8512835687366
 20
-33.84403559775994
 30
0.0
 11
219.6962000953714
 21
-31.19930834659097
 31
0.0
  0
LINE
  5
139
330
1F
100
AcDbEntity
  8
0
100
AcDbLine
 10
219.6962000953714
 20
-31.19930834659097
 30
0.0
 11
215.964117702646
 21
-29.46129368299162
 31
0.0
  0
LINE
  5
13A
330
1F
100
AcDbEntity
  8
0
100
AcDbLine
 10
215.964117702646
 20
-29.46129368299162
 30
0.0
 11
213.5869115740692
 21
-29.04336038992387
 31
0.0
  0
LINE
  5
13B
330
1F
100
AcDbEntity
  8
0
100
AcDbLine
 10
213.5869115740692
 20
-59.99286220828035
 30
0.0
 11
214.6504996238554
 21
-59.89927143353905
 31
0.0
  0
LINE
  5
13C
330
1F
100
AcDbEntity
  8
0
100
AcDbLine
 10
213.5869115740692
 20
-29.04336038992387
 30
0.0
 11
213.5869115740692
 21
190.6681589120753
 31
0.0
  0
LINE
  5
13D
330
1F
100
AcDbEntity
  8
0
100
AcDbLine
 10
222.1577128273607
 20
-288.3208245615426
 30
0.0
 11
218.8915306047163
 21
-285.8145947944503
 31
0.0
  0
LINE
  5
13E
330
1F
100
AcDbEntity
  8
0
100
AcDbLine
 10
218.8915306047163
 20
-285.8145947944503
 30
0.0
 11
215.0879808473715
 21
-284.2391128997972
 31
0.0
  0
LINE
  5
13F
330
1F
100
AcDbEntity
  8
0
100
AcDbLine
 10
215.0879808473715
 20
-284.2391128997972
 30
0.0
 11
213.5869115740692
 21
-284.0414933809154
 31
0.0
  0
LINE
  5
140
330
1F
100
AcDbEntity
  8
0
100
AcDbLine
 10
223.0654218177117
 20
-289.503773948924
 30
0.0
 11
471.1721179310132
 21
-289.503773948924
 31
0.0
  0
LINE
  5
141
330
1F
100
AcDbEntity
  8
0
100
AcDbLine
 10
223.0654218177117
 20
-289.503773948924
 30
0.0
 11
222.1577128273607
 21
-288.3208245615426
 31
0.0
  0
LINE
  5
142
330
1F
100
AcDbEntity
  8
0
100
AcDbLine
 10
479.7144844683609
 20
-34.70918073185988
 30
0.0
 11
636.7877319779752
 21
-34.70918073185988
 31
0.0
  0
LINE
  5
143
330
1F
100
AcDbEntity
  8
0
100
AcDbLine
 10
471.1721179310132
 20
-289.503773948924
 30
0.0
 11
471.1721179310132
 21
-27.59856317561495
 31
0.0
  0
LINE
  5
144
330
1F
100
AcDbEntity
  8
0
100
AcDbLine
 10
479.7144844683609
 20
-27.59856317561495
 30
0.0
 11
479.7144844683609
 21
-34.70918073185988
 31
0.0
  0
LINE
  5
145
330
1F
100
AcDbEntity
  8
0
100
AcDbLine
 10
550.1962148246841
 20
168.6504462762043
 30
0.0
 11
550.1962148246841
 21
184.9959360928599
 31
0.0
  0
LINE
  5
146
330
1F
100
AcDbEntity
  8
0
100
AcDbLine
 10
550.1962148246841
 20
184.9959360928599
 30
0.0
 11
570.4843353508847
 21
184.9959360928599
 31
0.0
  0
LINE
  5
147
330
1F
100
AcDbEntity
  8
0
100
AcDbLine
 10
570.4843353508847
 20
184.9959360928599
 30
0.0
 11
570.4843353508847
 21
168.6504462762043
 31
0.0
  0
LINE
  5
148
330
1F
100
AcDbEntity
  8
0
100
AcDbLine
 10
570.4843353508847
 20
168.6504462762043
 30
0.0
 11
550.1962148246841
 21
168.6504462762043
 31
0.0
  0
LINE
  5
149
330
1F
100
AcDbEntity
  8
0
100
AcDbLine
 10
537.987141713398
 20
189.6922171530798
 30
0.0
 11
537.987141713398
 21
157.6988908047388
 31
0.0
  0
LINE
  5
14A
330
1F
100
AcDbEntity
  8
0
100
AcDbLine
 10
537.987141713398
 20
189.6922171530798
 30
0.0
 11
590.5555511739989
 21
189.6922171530798
 31
0.0
  0
LINE
  5
14B
330
1F
100
AcDbEntity
  8
0
100
AcDbLine
 10
590.5555511739989
 20
189.6922171530798
 30
0.0
 11
636.7877319779752
 21
189.6922171530798
 31
0.0
  0
LINE
  5
14C
330
1F
100
AcDbEntity
  8
0
100
AcDbLine
 10
590.5555511739989
 20
189.6922171530798
 30
0.0
 11
590.5555511739989
 21
179.1785352609597
 31
0.0
  0
LINE
  5
14D
330
1F
100
AcDbEntity
  8
0
100
AcDbLine
 10
590.5555511739989
 20
179.1785352609597
 30
0.0
 11
636.7877319779752
 21
179.1785352609597
 31
0.0
  0
LINE
  5
14E
330
1F
100
AcDbEntity
  8
0
100
AcDbLine
 10
60.15776694266576
 20
-44.8963936775658
 30
0.0
 11
115.7929958428518
 21
-44.8963936775658
 31
0.0
  0
LINE
  5
14F
330
1F
100
AcDbEntity
  8
0
100
AcDbLine
 10
-36.15087006806024
 20
-48.18191926885336
 30
0.0
 11
14.24442265694454
 21
-48.18191926885336
 31
0.0
  0
LINE
  5
150
330
1F
100
AcDbEntity
  8
0
100
AcDbLine
 10
-36.15087006806024
 20
-295.3355818734597
 30
0.0
 11
115.7929958428518
 21
-295.3355818734595
 31
0.0
  0
LINE
  5
151
330
1F
100
AcDbEntity
  8
0
100
AcDbLine
 10
-36.15087006806024
 20
-48.18191926885336
 30
0.0
 11
-36.15087006806024
 21
-295.3355818734597
 31
0.0
  0
LINE
  5
152
330
1F
100
AcDbEntity
  8
0
100
AcDbLine
 10
493.9083307478097
 20
189.8543843526747
 30
0.0
 11
496.5450933152712
 21
193.2906802327484
 31
0.0
  0
LINE
  5
153
330
1F
100
AcDbEntity
  8
0
100
AcDbLine
 10
520.0095893114211
 20
169.8261842365988
 30
0.0
 11
516.5732934313472
 21
167.1894216691371
 31
0.0
  0
LINE
  5
154
330
1F
100
AcDbEntity
  8
0
100
AcDbLine
 10
-57.46122010349598
 20
-60.4409884692155
 30
0.0
 11
-61.5750905082826
 21
-60.59974693229228
 31
0.0
  0
LINE
  5
155
330
1F
100
AcDbEntity
  8
0
100
AcDbLine
 10
-62.11821492536904
 20
-29.32622207515723
 30
0.0
 11
-62.11821492536904
 21
147.2295899400232
 31
0.0
  0
LINE
  5
156
330
1F
100
AcDbEntity
  8
0
100
AcDbLine
 10
-60.12110043031188
 20
-29.24915138584857
 30
0.0
 11
-58.66711035234125
 21
-29.19304042283933
 31
0.0
  0
LINE
  5
157
330
1F
100
AcDbEntity
  8
0
100
AcDbLine
 10
-75.2766197584674
 20
-295.3355818734597
 30
0.0
 11
-258.7569215639289
 21
-295.3355818734595
 31
0.0
  0
LINE
  5
158
330
1F
100
AcDbEntity
  8
0
100
AcDbLine
 10
-59.80398736581989
 20
224.0054725351056
 30
0.0
 11
-63.88569902756515
 21
223.4681050004054
 31
0.0
  0
LINE
  5
159
330
1F
100
AcDbEntity
  8
0
100
AcDbLine
 10
-75.57451020400013
 20
208.2349496969254
 30
0.0
 11
-75.03714266929973
 21
204.1532380351801
 31
0.0
  0
LINE
  5
15A
330
1F
100
AcDbEntity
  8
0
100
AcDbLine
 10
-59.80398736581989
 20
192.4644268587452
 30
0.0
 11
-63.88569902756522
 21
193.0017943934454
 31
0.0
  0
LINE
  5
15B
330
1F
100
AcDbEntity
  8
0
100
AcDbLine
 10
-44.03346452763965
 20
208.2349496969254
 30
0.0
 11
-44.57083206233998
 21
212.3166613586707
 31
0.0
  0
LINE
  5
15C
330
1F
100
AcDbEntity
  8
0
100
AcDbLine
 10
60.15776694266576
 20
-48.18191926885336
 30
0.0
 11
115.7929958428518
 21
-48.18191926885336
 31
0.0
  0
LINE
  5
15D
330
1F
100
AcDbEntity
  8
0
100
AcDbLine
 10
115.7929958428518
 20
-44.8963936775658
 30
0.0
 11
115.7929958428518
 21
344.027698191098
 31
0.0
  0
LINE
  5
15E
330
1F
100
AcDbEntity
  8
0
100
AcDbLine
 10
-112.2224801925042
 20
344.027698191098
 30
0.0
 11
-112.2224801925042
 21
181.722733981493
 31
0.0
  0
LINE
  5
15F
330
1F
100
AcDbEntity
  8
0
100
AcDbLine
 10
-57.30740212790636
 20
-283.7607226940889
 30
0.0
 11
-61.41949848806995
 21
-283.5612296322863
 31
0.0
  0
LINE
  5
160
330
1F
100
AcDbEntity
  8
0
100
AcDbLine
 10
479.7144844683609
 20
-27.59856317561495
 30
0.0
 11
471.1721179310132
 21
-27.59856317561495
 31
0.0
  0
LINE
  5
161
330
1F
100
AcDbEntity
  8
0
 62
   250
100
AcDbLine
 10
471.1721179310132
 20
30.1378305354648
 30
0.0
 11
471.1721179310132
 21
64.29355200274857
 31
0.0
  0
LINE
  5
162
330
1F
100
AcDbEntity
  8
0
 62
   250
100
AcDbLine
 10
274.0405824537602
 20
30.1378305354648
 30
0.0
 11
274.0405824537602
 21
64.29355200274857
 31
0.0
  0
LINE
  5
163
330
1F
100
AcDbEntity
  8
0
 62
   250
100
AcDbLine
 10
477.5188395121891
 20
66.40912586314052
 30
0.0
 11
471.1721179310132
 21
60.06240428196468
 31
0.0
  0
LINE
  5
164
330
1F
100
AcDbEntity
  8
0
 62
   250
100
AcDbLine
 10
471.1721179310132
 20
60.06240428196468
 30
0.0
 11
464.8253963498374
 21
53.71568270078885
 31
0.0
  0
LINE
  5
165
330
1F
100
AcDbEntity
  8
0
 62
   250
100
AcDbLine
 10
471.1721179310132
 20
60.06240428196468
 30
0.0
 11
477.5188395121891
 21
60.06240428196468
 31
0.0
  0
LINE
  5
166
330
1F
100
AcDbEntity
  8
0
 62
   250
100
AcDbLine
 10
267.6938608725844
 20
53.71568270078885
 30
0.0
 11
274.0405824537602
 21
60.06240428196468
 31
0.0
  0
LINE
  5
167
330
1F
100
AcDbEntity
  8
0
 62
   250
100
AcDbLine
 10
274.0405824537602
 20
60.06240428196468
 30
0.0
 11
280.387304034936
 21
66.40912586314052
 31
0.0
  0
LINE
  5
168
330
1F
100
AcDbEntity
  8
0
 62
   250
100
AcDbLine
 10
274.0405824537602
 20
60.06240428196468
 30
0.0
 11
267.6938608725844
 21
60.06240428196468
 31
0.0
  0
LINE
  5
169
330
1F
100
AcDbEntity
  8
0
 62
   250
100
AcDbLine
 10
471.1721179310132
 20
60.06240428196468
 30
0.0
 11
397.4643430519922
 21
60.06240428196498
 31
0.0
  0
LINE
  5
16A
330
1F
100
AcDbEntity
  8
0
 62
   250
100
AcDbLine
 10
347.7483573327815
 20
60.06240428196498
 30
0.0
 11
274.0405824537602
 21
60.06240428196468
 31
0.0
  0
LINE
  5
16B
330
1F
100
AcDbEntity
  8
0
 62
   250
100
AcDbLine
 10
213.5869115740692
 20
23.42432046388685
 30
0.0
 11
213.5869115740692
 21
122.2847311743685
 31
0.0
  0
LINE
  5
16C
330
1F
100
AcDbEntity
  8
0
 62
   250
100
AcDbLine
 10
274.0405824537602
 20
23.5667793528897
 30
0.0
 11
274.0405824537602
 21
122.2847311743685
 31
0.0
  0
LINE
  5
16D
330
1F
100
AcDbEntity
  8
0
 62
   250
100
AcDbLine
 10
207.2401899928934
 20
111.7068618724088
 30
0.0
 11
213.5869115740692
 21
118.0535834535847
 31
0.0
  0
LINE
  5
16E
330
1F
100
AcDbEntity
  8
0
 62
   250
100
AcDbLine
 10
213.5869115740692
 20
118.0535834535847
 30
0.0
 11
219.9336331552451
 21
124.4003050347605
 31
0.0
  0
LINE
  5
16F
330
1F
100
AcDbEntity
  8
0
 62
   250
100
AcDbLine
 10
213.5869115740692
 20
118.0535834535847
 30
0.0
 11
207.2401899928934
 21
118.0535834535847
 31
0.0
  0
LINE
  5
170
330
1F
100
AcDbEntity
  8
0
 62
   250
100
AcDbLine
 10
280.387304034936
 20
124.4003050347605
 30
0.0
 11
274.0405824537602
 21
118.0535834535847
 31
0.0
  0
LINE
  5
171
330
1F
100
AcDbEntity
  8
0
 62
   250
100
AcDbLine
 10
274.0405824537602
 20
118.0535834535847
 30
0.0
 11
267.6938608725844
 21
111.7068618724088
 31
0.0
  0
LINE
  5
172
330
1F
100
AcDbEntity
  8
0
 62
   250
100
AcDbLine
 10
274.0405824537602
 20
118.0535834535847
 30
0.0
 11
280.387304034936
 21
118.0535834535847
 31
0.0
  0
LINE
  5
173
330
1F
100
AcDbEntity
  8
0
 62
   250
100
AcDbLine
 10
213.5869115740692
 20
118.0535834535847
 30
0.0
 11
218.9557541543094
 21
118.0535834535847
 31
0.0
  0
LINE
  5
174
330
1F
100
AcDbEntity
  8
0
 62
   250
100
AcDbLine
 10
268.6717398735202
 20
118.0535834535847
 30
0.0
 11
274.0405824537602
 21
118.0535834535847
 31
0.0
  0
LINE
  5
175
330
1F
100
AcDbEntity
  8
0
 62
   250
100
AcDbLine
 10
350.4878726355628
 20
19.33563163210581
 30
0.0
 11
287.2743747122975
 21
19.33563163210579
 31
0.0
  0
LINE
  5
176
330
1F
100
AcDbEntity
  8
0
 62
   250
100
AcDbLine
 10
350.4878726355629
 20
-289.503773948924
 30
0.0
 11
287.2743747122976
 21
-289.503773948924
 31
0.0
  0
LINE
  5
177
330
1F
100
AcDbEntity
  8
0
 62
   250
100
AcDbLine
 10
285.1588008519056
 20
25.68235321328164
 30
0.0
 11
291.5055224330814
 21
19.33563163210582
 31
0.0
  0
LINE
  5
178
330
1F
100
AcDbEntity
  8
0
 62
   250
100
AcDbLine
 10
291.5055224330814
 20
19.33563163210582
 30
0.0
 11
297.8522440142572
 21
12.98891005092998
 31
0.0
  0
LINE
  5
179
330
1F
100
AcDbEntity
  8
0
 62
   250
100
AcDbLine
 10
291.5055224330814
 20
19.33563163210582
 30
0.0
 11
291.5055224330814
 21
25.68235321328165
 31
0.0
  0
LINE
  5
17A
330
1F
100
AcDbEntity
  8
0
 62
   250
100
AcDbLine
 10
297.8522440142574
 20
-295.8504955300998
 30
0.0
 11
291.5055224330816
 21
-289.503773948924
 31
0.0
  0
LINE
  5
17B
330
1F
100
AcDbEntity
  8
0
 62
   250
100
AcDbLine
 10
291.5055224330816
 20
-289.503773948924
 30
0.0
 11
285.1588008519058
 21
-283.1570523677481
 31
0.0
  0
LINE
  5
17C
330
1F
100
AcDbEntity
  8
0
 62
   250
100
AcDbLine
 10
291.5055224330816
 20
-289.503773948924
 30
0.0
 11
291.5055224330816
 21
-295.8504955300998
 31
0.0
  0
LINE
  5
17D
330
1F
100
AcDbEntity
  8
0
 62
   250
100
AcDbLine
 10
291.5055224330814
 20
19.33563163210579
 30
0.0
 11
291.5055224330816
 21
-121.8617345309592
 31
0.0
  0
LINE
  5
17E
330
1F
100
AcDbEntity
  8
0
 62
   250
100
AcDbLine
 10
291.5055224330818
 20
-148.3064077858585
 30
0.0
 11
291.5055224330815
 21
-289.503773948924
 31
0.0
  0
LINE
  5
17F
330
1F
100
AcDbEntity
  8
0
 62
   250
100
AcDbLine
 10
322.1783393165732
 20
204.6392749807237
 30
0.0
 11
339.4159466007982
 21
204.6392749807237
 31
0.0
  0
LINE
  5
180
330
1F
100
AcDbEntity
  8
0
 62
   250
100
AcDbLine
 10
322.1783393165732
 20
-289.5037739489243
 30
0.0
 11
339.4159466007985
 21
-289.5037739489243
 31
0.0
  0
LINE
  5
181
330
1F
100
AcDbEntity
  8
0
 62
   250
100
AcDbLine
 10
328.8380772988385
 20
210.9859965618995
 30
0.0
 11
335.1847988800143
 21
204.6392749807237
 31
0.0
  0
LINE
  5
182
330
1F
100
AcDbEntity
  8
0
 62
   250
100
AcDbLine
 10
335.1847988800143
 20
204.6392749807237
 30
0.0
 11
341.5315204611901
 21
198.2925533995479
 31
0.0
  0
LINE
  5
183
330
1F
100
AcDbEntity
  8
0
 62
   250
100
AcDbLine
 10
335.1847988800143
 20
204.6392749807237
 30
0.0
 11
335.1847988800143
 21
210.9859965618995
 31
0.0
  0
LINE
  5
184
330
1F
100
AcDbEntity
  8
0
 62
   250
100
AcDbLine
 10
341.5315204611904
 20
-295.8504955301001
 30
0.0
 11
335.1847988800146
 21
-289.5037739489243
 31
0.0
  0
LINE
  5
185
330
1F
100
AcDbEntity
  8
0
 62
   250
100
AcDbLine
 10
335.1847988800146
 20
-289.5037739489243
 30
0.0
 11
328.8380772988388
 21
-283.1570523677485
 31
0.0
  0
LINE
  5
186
330
1F
100
AcDbEntity
  8
0
 62
   250
100
AcDbLine
 10
335.1847988800146
 20
-289.5037739489243
 30
0.0
 11
335.1847988800146
 21
-295.8504955301001
 31
0.0
  0
LINE
  5
187
330
1F
100
AcDbEntity
  8
0
 62
   250
100
AcDbLine
 10
335.1847988800143
 20
204.6392749807237
 30
0.0
 11
335.1847988800145
 21
-29.20991285665048
 31
0.0
  0
LINE
  5
188
330
1F
100
AcDbEntity
  8
0
 62
   250
100
AcDbLine
 10
335.1847988800146
 20
-55.6545861115498
 30
0.0
 11
335.1847988800146
 21
-289.5037739489243
 31
0.0
  0
LINE
  5
189
330
1F
100
AcDbEntity
  8
0
 62
   250
100
AcDbLine
 10
278.2717301745441
 20
25.90668281468092
 30
0.0
 11
298.1247164835576
 21
25.90668281468092
 31
0.0
  0
LINE
  5
18A
330
1F
100
AcDbEntity
  8
0
 62
   250
100
AcDbLine
 10
278.2717301745441
 20
19.33563163210582
 30
0.0
 11
298.1247164835576
 21
19.33563163210582
 31
0.0
  0
LINE
  5
18B
330
1F
100
AcDbEntity
  8
0
 62
   250
100
AcDbLine
 10
287.5468471815979
 20
32.25340439585675
 30
0.0
 11
293.8935687627737
 21
25.90668281468092
 31
0.0
  0
LINE
  5
18C
330
1F
100
AcDbEntity
  8
0
 62
   250
100
AcDbLine
 10
293.8935687627737
 20
25.90668281468092
 30
0.0
 11
300.2402903439495
 21
19.55996123350508
 31
0.0
  0
LINE
  5
18D
330
1F
100
AcDbEntity
  8
0
 62
   250
100
AcDbLine
 10
293.8935687627737
 20
25.90668281468092
 30
0.0
 11
293.8935687627737
 21
32.25340439585675
 31
0.0
  0
LINE
  5
18E
330
1F
100
AcDbEntity
  8
0
 62
   250
100
AcDbLine
 10
300.2402903439495
 20
12.98891005092998
 30
0.0
 11
293.8935687627737
 21
19.33563163210582
 31
0.0
  0
LINE
  5
18F
330
1F
100
AcDbEntity
  8
0
 62
   250
100
AcDbLine
 10
293.8935687627737
 20
19.33563163210582
 30
0.0
 11
287.5468471815979
 21
25.68235321328164
 31
0.0
  0
LINE
  5
190
330
1F
100
AcDbEntity
  8
0
 62
   250
100
AcDbLine
 10
293.8935687627737
 20
19.33563163210582
 30
0.0
 11
293.8935687627737
 21
12.98891005092998
 31
0.0
  0
LINE
  5
191
330
1F
100
AcDbEntity
  8
0
 62
   250
100
AcDbLine
 10
208.3300706280092
 20
206.2859615706443
 30
0.0
 11
208.3300706280092
 21
260.6883180643855
 31
0.0
  0
LINE
  5
192
330
1F
100
AcDbEntity
  8
0
 62
   250
100
AcDbLine
 10
313.4668895492108
 20
206.2859615706443
 30
0.0
 11
313.4668895492108
 21
260.6883180643855
 31
0.0
  0
LINE
  5
193
330
1F
100
AcDbEntity
  8
0
 62
   250
100
AcDbLine
 10
201.9833490468334
 20
250.1104487624258
 30
0.0
 11
208.3300706280092
 21
256.4571703436016
 31
0.0
  0
LINE
  5
194
330
1F
100
AcDbEntity
  8
0
 62
   250
100
AcDbLine
 10
208.3300706280092
 20
256.4571703436016
 30
0.0
 11
214.676792209185
 21
262.8038919247774
 31
0.0
  0
LINE
  5
195
330
1F
100
AcDbEntity
  8
0
 62
   250
100
AcDbLine
 10
208.3300706280092
 20
256.4571703436016
 30
0.0
 11
201.9833490468334
 21
256.4571703436016
 31
0.0
  0
LINE
  5
196
330
1F
100
AcDbEntity
  8
0
 62
   250
100
AcDbLine
 10
319.8136111303866
 20
262.8038919247774
 30
0.0
 11
313.4668895492108
 21
256.4571703436016
 31
0.0
  0
LINE
  5
197
330
1F
100
AcDbEntity
  8
0
 62
   250
100
AcDbLine
 10
313.4668895492108
 20
256.4571703436016
 30
0.0
 11
307.120167968035
 21
250.1104487624258
 31
0.0
  0
LINE
  5
198
330
1F
100
AcDbEntity
  8
0
 62
   250
100
AcDbLine
 10
313.4668895492108
 20
256.4571703436016
 30
0.0
 11
319.8136111303866
 21
256.4571703436016
 31
0.0
  0
LINE
  5
199
330
1F
100
AcDbEntity
  8
0
 62
   250
100
AcDbLine
 10
208.3300706280092
 20
256.4571703436016
 30
0.0
 11
240.8005284148866
 21
256.4571703436019
 31
0.0
  0
LINE
  5
19A
330
1F
100
AcDbEntity
  8
0
 62
   250
100
AcDbLine
 10
280.9964317623335
 20
256.4571703436019
 30
0.0
 11
313.4668895492108
 21
256.4571703436016
 31
0.0
  0
LINE
  5
19B
330
1F
100
AcDbEntity
  8
0
 62
   250
100
AcDbLine
 10
512.5716421241407
 20
165.531883425804
 30
0.0
 11
538.8516317069275
 21
152.1904662731268
 31
0.0
  0
LINE
  5
19C
330
1F
100
AcDbEntity
  8
0
 62
   250
100
AcDbLine
 10
538.8516317069275
 20
152.1904662731268
 30
0.0
 11
555.776222590063
 21
152.1904662731268
 31
0.0
  0
LINE
  5
19D
330
1F
100
AcDbEntity
  8
0
100
AcDbLine
 10
496.0487881544455
 20
192.6438827544884
 30
0.0
 11
493.9083307478097
 21
189.8543843526747
 31
0.0
  0
LINE
  5
19E
330
1F
100
AcDbEntity
  8
0
100
AcDbLine
 10
524.3038901222155
 20
177.2641314238791
 30
0.0
 11
524.8692455493483
 21
181.5584322346736
 31
0.0
  0
LINE
  5
19F
330
1F
100
AcDbEntity
  8
0
100
AcDbLine
 10
491.685437077344
 20
181.5584322346736
 30
0.0
 11
492.2507925044767
 21
177.2641314238791
 31
0.0
  0
LINE
  5
1A0
330
1F
100
AcDbEntity
  8
0
100
AcDbLine
 10
508.2773413133461
 20
164.9665279986715
 30
0.0
 11
512.5716421241407
 21
165.531883425804
 31
0.0
  0
LINE
  5
1A1
330
1F
100
AcDbEntity
  8
0
100
AcDbLine
 10
519.8697397984074
 20
169.7188739310077
 30
0.0
 11
520.0095893114211
 21
169.8261842365988
 31
0.0
  0
LINE
  5
1A2
330
1F
100
AcDbEntity
  8
0
100
AcDbLine
 10
492.2507925044767
 20
177.2641314238791
 30
0.0
 11
493.9083307478097
 21
173.2624801166725
 31
0.0
  0
LINE
  5
1A3
330
1F
100
AcDbEntity
  8
0
100
AcDbLine
 10
492.2507925044767
 20
185.8527330454681
 30
0.0
 11
491.685437077344
 21
181.5584322346736
 31
0.0
  0
LINE
  5
1A4
330
1F
100
AcDbEntity
  8
0
100
AcDbLine
 10
493.9083307478097
 20
173.2624801166725
 30
0.0
 11
496.5450933152712
 21
169.8261842365988
 31
0.0
  0
LINE
  5
1A5
330
1F
100
AcDbEntity
  8
0
100
AcDbLine
 10
512.5716421241407
 20
197.5849810435432
 30
0.0
 11
508.2773413133461
 21
198.1503364706757
 31
0.0
  0
LINE
  5
1A6
330
1F
100
AcDbEntity
  8
0
100
AcDbLine
 10
512.5716421241407
 20
165.531883425804
 30
0.0
 11
516.5732934313472
 21
167.1894216691371
 31
0.0
  0
LINE
  5
1A7
330
1F
100
AcDbEntity
  8
0
100
AcDbLine
 10
493.9083307478097
 20
189.8543843526747
 30
0.0
 11
492.2507925044767
 21
185.8527330454681
 31
0.0
  0
LINE
  5
1A8
330
1F
100
AcDbEntity
  8
0
100
AcDbLine
 10
522.6463518788827
 20
189.8543843526747
 30
0.0
 11
520.0095893114211
 21
193.2906802327484
 31
0.0
  0
LINE
  5
1A9
330
1F
100
AcDbEntity
  8
0
100
AcDbLine
 10
496.5450933152712
 20
169.8261842365988
 30
0.0
 11
499.9813891953451
 21
167.1894216691371
 31
0.0
  0
LINE
  5
1AA
330
1F
100
AcDbEntity
  8
0
100
AcDbLine
 10
520.0095893114211
 20
193.2906802327484
 30
0.0
 11
516.5732934313472
 21
195.9274428002101
 31
0.0
  0
LINE
  5
1AB
330
1F
100
AcDbEntity
  8
0
100
AcDbLine
 10
503.9830405025517
 20
165.531883425804
 30
0.0
 11
508.2773413133461
 21
164.9665279986715
 31
0.0
  0
LINE
  5
1AC
330
1F
100
AcDbEntity
  8
0
100
AcDbLine
 10
524.8692455493483
 20
181.5584322346736
 30
0.0
 11
524.3038901222155
 21
185.8527330454681
 31
0.0
  0
LINE
  5
1AD
330
1F
100
AcDbEntity
  8
0
100
AcDbLine
 10
503.9830405025517
 20
197.5849810435432
 30
0.0
 11
499.9813891953451
 21
195.9274428002101
 31
0.0
  0
LINE
  5
1AE
330
1F
100
AcDbEntity
  8
0
100
AcDbLine
 10
508.2773413133461
 20
198.1503364706757
 30
0.0
 11
503.9830405025517
 21
197.5849810435432
 31
0.0
  0
LINE
  5
1AF
330
1F
100
AcDbEntity
  8
0
100
AcDbLine
 10
520.0095893114211
 20
169.8261842365988
 30
0.0
 11
522.6463518788827
 21
173.2624801166725
 31
0.0
  0
LINE
  5
1B0
330
1F
100
AcDbEntity
  8
0
100
AcDbLine
 10
516.5732934313472
 20
195.9274428002101
 30
0.0
 11
512.5716421241407
 21
197.5849810435432
 31
0.0
  0
LINE
  5
1B1
330
1F
100
AcDbEntity
  8
0
100
AcDbLine
 10
524.3038901222155
 20
185.8527330454681
 30
0.0
 11
522.6463518788827
 21
189.8543843526747
 31
0.0
  0
LINE
  5
1B2
330
1F
100
AcDbEntity
  8
0
100
AcDbLine
 10
522.6463518788827
 20
173.2624801166725
 30
0.0
 11
524.3038901222155
 21
177.2641314238791
 31
0.0
  0
LINE
  5
1B3
330
1F
100
AcDbEntity
  8
0
100
AcDbLine
 10
496.5450933152712
 20
193.2906802327484
 30
0.0
 11
496.0487881544455
 21
192.6438827544884
 31
0.0
  0
LINE
  5
1B4
330
1F
100
AcDbEntity
  8
0
100
AcDbLine
 10
499.9813891953451
 20
195.9274428002101
 30
0.0
 11
496.5450933152712
 21
193.2906802327484
 31
0.0
  0
LINE
  5
1B5
330
1F
100
AcDbEntity
  8
0
100
AcDbLine
 10
516.5732934313472
 20
167.1894216691371
 30
0.0
 11
519.8697397984074
 21
169.7188739310077
 31
0.0
  0
LINE
  5
1B6
330
1F
100
AcDbEntity
  8
0
100
AcDbLine
 10
499.9813891953451
 20
167.1894216691371
 30
0.0
 11
503.9830405025517
 21
165.531883425804
 31
0.0
  0
LINE
  5
1B7
330
1F
100
AcDbEntity
  8
0
100
AcDbLine
 10
489.8077632157322
 20
-50.23328915069356
 30
0.0
 11
489.8077632157322
 21
-420.809289377789
 31
0.0
  0
LINE
  5
1B8
330
1F
100
AcDbEntity
  8
0
100
AcDbLine
 10
313.4668895492108
 20
209.8961159267838
 30
0.0
 11
352.7810698367753
 21
236.2168253325533
 31
0.0
  0
LINE
  5
1B9
330
1F
100
AcDbEntity
  8
0
100
AcDbLine
 10
402.4224949333212
 20
209.8961159267838
 30
0.0
 11
364.0649154995252
 21
237.5923361614314
 31
0.0
  0
LINE
  5
1BA
330
1F
100
AcDbEntity
  8
0
 62
   250
100
AcDbLine
 10
614.75369048326
 20
91.57427549978432
 30
0.0
 11
609.667439647428
 21
118.8961793422082
 31
0.0
  0
LINE
  5
1BB
330
1F
100
AcDbEntity
  8
0
 62
   250
100
AcDbLine
 10
609.667439647428
 20
118.8961793422082
 30
0.0
 11
592.7428487642925
 21
118.8961793422082
 31
0.0
  0
LINE
  5
1BC
330
1F
100
AcDbEntity
  8
0
 62
   250
100
AcDbLine
 10
407.552832441459
 20
-262.1029522537639
 30
0.0
 11
508.6521345957075
 21
-419.8513858690912
 31
0.0
  0
LINE
  5
1BD
330
1F
100
AcDbEntity
  8
0
 62
   250
100
AcDbLine
 10
508.6521345957075
 20
-419.8513858690912
 30
0.0
 11
525.5767254788431
 21
-419.8513858690912
 31
0.0
  0
LINE
  5
1BE
330
1F
100
AcDbEntity
  8
0
100
AcDbLine
 10
208.3300706280092
 20
-268.5532604411108
 30
0.0
 11
208.3300706280092
 21
-284.054073589247
 31
0.0
  0
LINE
  5
1BF
330
1F
100
AcDbEntity
  8
0
100
AcDbLine
 10
208.3300706280092
 20
301.8908324828352
 30
0.0
 11
636.7877319779752
 21
301.8908324828352
 31
0.0
  0
LINE
  5
1C0
330
1F
100
AcDbEntity
  8
0
100
AcDbLine
 10
208.3300706280092
 20
301.8908324828352
 30
0.0
 11
208.3300706280092
 21
398.7304283491698
 31
0.0
  0
LINE
  5
1C1
330
1F
100
AcDbEntity
  8
0
 62
   250
100
AcDbLine
 10
537.462142702658
 20
209.8961159267838
 30
0.0
 11
636.7877319779752
 21
209.8961159267838
 31
0.0
  0
LINE
  5
1C2
330
1F
100
AcDbEntity
  8
0
 62
   250
100
AcDbLine
 10
537.462142702658
 20
301.8908324828352
 30
0.0
 11
636.7877319779752
 21
301.8908324828352
 31
0.0
  0
LINE
  5
1C3
330
1F
100
AcDbEntity
  8
0
 62
   250
100
AcDbLine
 10
121.7263534823545
 20
-115.6935153242367
 30
0.0
 11
121.7263534823545
 21
-95.6718565028218
 31
0.0
  0
LINE
  5
1C4
330
1F
100
AcDbEntity
  8
0
 62
   250
100
AcDbLine
 10
208.4642290923459
 20
-115.6935153242367
 30
0.0
 11
208.4642290923459
 21
-95.6718565028218
 31
0.0
  0
LINE
  5
1C5
330
1F
100
AcDbEntity
  8
0
 62
   250
100
AcDbLine
 10
115.3796319011787
 20
-106.2497258047815
 30
0.0
 11
121.7263534823545
 21
-99.90300422360569
 31
0.0
  0
LINE
  5
1C6
330
1F
100
AcDbEntity
  8
0
 62
   250
100
AcDbLine
 10
121.7263534823545
 20
-99.90300422360569
 30
0.0
 11
128.0730750635304
 21
-93.55628264242986
 31
0.0
  0
LINE
  5
1C7
330
1F
100
AcDbEntity
  8
0
 62
   250
100
AcDbLine
 10
121.7263534823545
 20
-99.90300422360569
 30
0.0
 11
115.3796319011787
 21
-99.90300422360569
 31
0.0
  0
LINE
  5
1C8
330
1F
100
AcDbEntity
  8
0
 62
   250
100
AcDbLine
 10
214.8109506735217
 20
-93.55628264242986
 30
0.0
 11
208.4642290923459
 21
-99.90300422360569
 31
0.0
  0
LINE
  5
1C9
330
1F
100
AcDbEntity
  8
0
 62
   250
100
AcDbLine
 10
208.4642290923459
 20
-99.90300422360569
 30
0.0
 11
202.1175075111701
 21
-106.2497258047815
 31
0.0
  0
LINE
  5
1CA
330
1F
100
AcDbEntity
  8
0
 62
   250
100
AcDbLine
 10
208.4642290923459
 20
-99.90300422360569
 30
0.0
 11
214.8109506735217
 21
-99.90300422360569
 31
0.0
  0
LINE
  5
1CB
330
1F
100
AcDbEntity
  8
0
 62
   250
100
AcDbLine
 10
121.7263534823545
 20
-99.90300422360569
 30
0.0
 11
144.9973396136268
 21
-99.90300422360555
 31
0.0
  0
LINE
  5
1CC
330
1F
100
AcDbEntity
  8
0
 62
   250
100
AcDbLine
 10
185.1932429610738
 20
-99.90300422360555
 30
0.0
 11
208.4642290923459
 21
-99.90300422360569
 31
0.0
  0
LINE
  5
1CD
330
1F
100
AcDbEntity
  8
0
100
AcDbLine
 10
226.3398138791902
 20
204.7867472507384
 30
0.0
 11
226.1527753408691
 21
208.899428923584
 31
0.0
  0
LINE
  5
1CE
330
1F
100
AcDbEntity
  8
0
100
AcDbLine
 10
226.1527753408691
 20
208.899428923584
 30
0.0
 11
224.9076696428168
 21
212.8235652308057
 31
0.0
  0
LINE
  5
1CF
330
1F
100
AcDbEntity
  8
0
100
AcDbLine
 10
224.9076696428168
 20
212.8235652308057
 30
0.0
 11
222.6893486807212
 21
216.2917327680081
 31
0.0
  0
LINE
  5
1D0
330
1F
100
AcDbEntity
  8
0
100
AcDbLine
 10
222.6893486807212
 20
216.2917327680081
 30
0.0
 11
219.6489873622003
 21
219.0675816489487
 31
0.0
  0
LINE
  5
1D1
330
1F
100
AcDbEntity
  8
0
100
AcDbLine
 10
219.6489873622003
 20
219.0675816489487
 30
0.0
 11
215.9937812866768
 21
220.9619423596988
 31
0.0
  0
LINE
  5
1D2
330
1F
100
AcDbEntity
  8
0
100
AcDbLine
 10
215.9937812866768
 20
220.9619423596988
 30
0.0
 11
211.9728267076838
 21
221.8457173483996
 31
0.0
  0
LINE
  5
1D3
330
1F
100
AcDbEntity
  8
0
100
AcDbLine
 10
211.9728267076838
 20
221.8457173483996
 30
0.0
 11
207.8601450348382
 21
221.6586788100784
 31
0.0
  0
LINE
  5
1D4
330
1F
100
AcDbEntity
  8
0
100
AcDbLine
 10
207.8601450348382
 20
221.6586788100784
 30
0.0
 11
203.9360087276165
 21
220.4135731120261
 31
0.0
  0
LINE
  5
1D5
330
1F
100
AcDbEntity
  8
0
100
AcDbLine
 10
203.9360087276165
 20
220.4135731120261
 30
0.0
 11
200.4678411904141
 21
218.1952521499306
 31
0.0
  0
LINE
  5
1D6
330
1F
100
AcDbEntity
  8
0
100
AcDbLine
 10
200.4678411904141
 20
218.1952521499306
 30
0.0
 11
197.6919923094734
 21
215.1548908314097
 31
0.0
  0
LINE
  5
1D7
330
1F
100
AcDbEntity
  8
0
100
AcDbLine
 10
197.6919923094734
 20
215.1548908314097
 30
0.0
 11
195.7976315987235
 21
211.4996847558861
 31
0.0
  0
LINE
  5
1D8
330
1F
100
AcDbEntity
  8
0
100
AcDbLine
 10
195.7976315987235
 20
211.4996847558861
 30
0.0
 11
194.9138566100226
 21
207.4787301768932
 31
0.0
  0
LINE
  5
1D9
330
1F
100
AcDbEntity
  8
0
100
AcDbLine
 10
194.9138566100226
 20
207.4787301768932
 30
0.0
 11
195.1008951483438
 21
203.3660485040476
 31
0.0
  0
LINE
  5
1DA
330
1F
100
AcDbEntity
  8
0
100
AcDbLine
 10
195.1008951483438
 20
203.3660485040476
 30
0.0
 11
196.346000846396
 21
199.4419121968259
 31
0.0
  0
LINE
  5
1DB
330
1F
100
AcDbEntity
  8
0
100
AcDbLine
 10
196.346000846396
 20
199.4419121968259
 30
0.0
 11
198.5643218084917
 21
195.9737446596235
 31
0.0
  0
LINE
  5
1DC
330
1F
100
AcDbEntity
  8
0
100
AcDbLine
 10
198.5643218084917
 20
195.9737446596235
 30
0.0
 11
201.6046831270125
 21
193.1978957786829
 31
0.0
  0
LINE
  5
1DD
330
1F
100
AcDbEntity
  8
0
100
AcDbLine
 10
201.6046831270125
 20
193.1978957786829
 30
0.0
 11
205.2598892025361
 21
191.3035350679328
 31
0.0
  0
LINE
  5
1DE
330
1F
100
AcDbEntity
  8
0
100
AcDbLine
 10
205.2598892025361
 20
191.3035350679328
 30
0.0
 11
208.3300706280092
 21
190.6287327290101
 31
0.0
  0
LINE
  5
1DF
330
1F
100
AcDbEntity
  8
0
100
AcDbLine
 10
226.307400604878
 20
204.6392749807237
 30
0.0
 11
226.3398138791902
 21
204.7867472507384
 31
0.0
  0
LINE
  5
1E0
330
1F
100
AcDbEntity
  8
0
100
AcDbLine
 10
208.3300706280092
 20
190.6287327290101
 30
0.0
 11
208.3300706280092
 21
-29.06339618513766
 31
0.0
  0
LINE
  5
1E1
330
1F
100
AcDbEntity
  8
0
100
AcDbLine
 10
208.3300706280092
 20
-59.86996809399084
 30
0.0
 11
208.3300706280092
 21
-218.3401857368661
 31
0.0
  0
LINE
  5
1E2
330
1F
100
AcDbEntity
  8
0
100
AcDbLine
 10
513.2268454994938
 20
203.8199771956163
 30
0.0
 11
513.2268454994938
 21
197.3135869193592
 31
0.0
  0
LINE
  5
1E3
330
1F
100
AcDbEntity
  8
0
100
AcDbLine
 10
484.4359156229517
 20
157.6988908047388
 30
0.0
 11
484.4359156229517
 21
193.879696031614
 31
0.0
  0
LINE
  5
1E4
330
1F
100
AcDbEntity
  8
0
100
AcDbLine
 10
537.987141713398
 20
203.8199771956163
 30
0.0
 11
513.2268454994938
 21
203.8199771956163
 31
0.0
  0
LINE
  5
1E5
330
1F
100
AcDbEntity
  8
0
100
AcDbLine
 10
-112.2224801925042
 20
181.722733981493
 30
0.0
 11
-112.2224801925042
 21
97.6132788445317
 31
0.0
  0
LINE
  5
1E6
330
1F
100
AcDbEntity
  8
0
100
AcDbLine
 10
-313.9537514975598
 20
97.6132788445317
 30
0.0
 11
-112.2224801925042
 21
97.6132788445317
 31
0.0
  0
LINE
  5
1E7
330
1F
100
AcDbEntity
  8
0
 62
   250
100
AcDbLine
 10
111.561848122068
 20
-295.3355818734595
 30
0.0
 11
92.28425256792423
 21
-295.3355818734595
 31
0.0
  0
LINE
  5
1E8
330
1F
100
AcDbEntity
  8
0
 62
   250
100
AcDbLine
 10
111.561848122068
 20
-248.0240133589188
 30
0.0
 11
92.28425256792421
 21
-248.0240133589188
 31
0.0
  0
LINE
  5
1E9
330
1F
100
AcDbEntity
  8
0
 62
   250
100
AcDbLine
 10
102.8621218698839
 20
-301.6823034546354
 30
0.0
 11
96.51540028870812
 21
-295.3355818734595
 31
0.0
  0
LINE
  5
1EA
330
1F
100
AcDbEntity
  8
0
 62
   250
100
AcDbLine
 10
96.51540028870812
 20
-295.3355818734595
 30
0.0
 11
90.16867870753228
 21
-288.9888602922837
 31
0.0
  0
LINE
  5
1EB
330
1F
100
AcDbEntity
  8
0
 62
   250
100
AcDbLine
 10
96.51540028870812
 20
-295.3355818734595
 30
0.0
 11
96.51540028870812
 21
-301.6823034546354
 31
0.0
  0
LINE
  5
1EC
330
1F
100
AcDbEntity
  8
0
 62
   250
100
AcDbLine
 10
90.16867870753228
 20
-241.677291777743
 30
0.0
 11
96.51540028870812
 21
-248.0240133589188
 31
0.0
  0
LINE
  5
1ED
330
1F
100
AcDbEntity
  8
0
 62
   250
100
AcDbLine
 10
96.51540028870812
 20
-248.0240133589188
 30
0.0
 11
102.8621218698839
 21
-254.3707349400946
 31
0.0
  0
LINE
  5
1EE
330
1F
100
AcDbEntity
  8
0
 62
   250
100
AcDbLine
 10
96.51540028870812
 20
-248.0240133589188
 30
0.0
 11
96.51540028870812
 21
-241.677291777743
 31
0.0
  0
LINE
  5
1EF
330
1F
100
AcDbEntity
  8
0
 62
   250
100
AcDbLine
 10
96.51540028870812
 20
-295.3355818734595
 30
0.0
 11
96.51540028870812
 21
-284.9021342436387
 31
0.0
  0
LINE
  5
1F0
330
1F
100
AcDbEntity
  8
0
 62
   250
100
AcDbLine
 10
96.51540028870811
 20
-258.4574609887393
 30
0.0
 11
96.51540028870811
 21
-248.0240133589188
 31
0.0
  0
LINE
  5
1F1
330
1F
100
AcDbEntity
  8
0
 62
   250
100
AcDbLine
 10
-258.7569215639289
 20
-239.8502349285898
 30
0.0
 11
-258.7569215639289
 21
-201.8893234941282
 31
0.0
  0
LINE
  5
1F2
330
1F
100
AcDbEntity
  8
0
 62
   250
100
AcDbLine
 10
-313.9537514975598
 20
-239.8502349285898
 30
0.0
 11
-313.9537514975598
 21
-201.8893234941282
 31
0.0
  0
LINE
  5
1F3
330
1F
100
AcDbEntity
  8
0
 62
   250
100
AcDbLine
 10
-252.4101999827531
 20
-199.7737496337363
 30
0.0
 11
-258.7569215639289
 21
-206.1204712149121
 31
0.0
  0
LINE
  5
1F4
330
1F
100
AcDbEntity
  8
0
 62
   250
100
AcDbLine
 10
-258.7569215639289
 20
-206.1204712149121
 30
0.0
 11
-265.1036431451048
 21
-212.4671927960879
 31
0.0
  0
LINE
  5
1F5
330
1F
100
AcDbEntity
  8
0
 62
   250
100
AcDbLine
 10
-258.7569215639289
 20
-206.1204712149121
 30
0.0
 11
-252.4101999827531
 21
-206.1204712149121
 31
0.0
  0
LINE
  5
1F6
330
1F
100
AcDbEntity
  8
0
 62
   250
100
AcDbLine
 10
-320.3004730787356
 20
-212.4671927960879
 30
0.0
 11
-313.9537514975598
 21
-206.1204712149121
 31
0.0
  0
LINE
  5
1F7
330
1F
100
AcDbEntity
  8
0
 62
   250
100
AcDbLine
 10
-313.9537514975598
 20
-206.1204712149121
 30
0.0
 11
-307.607029916384
 21
-199.7737496337363
 31
0.0
  0
LINE
  5
1F8
330
1F
100
AcDbEntity
  8
0
 62
   250
100
AcDbLine
 10
-313.9537514975598
 20
-206.1204712149121
 30
0.0
 11
-320.3004730787356
 21
-206.1204712149121
 31
0.0
  0
LINE
  5
1F9
330
1F
100
AcDbEntity
  8
0
 62
   250
100
AcDbLine
 10
-258.7569215639289
 20
-206.1204712149121
 30
0.0
 11
-266.257384857021
 21
-206.1204712149121
 31
0.0
  0
LINE
  5
1FA
330
1F
100
AcDbEntity
  8
0
 62
   250
100
AcDbLine
 10
-306.453288204468
 20
-206.1204712149121
 30
0.0
 11
-313.9537514975598
 21
-206.1204712149121
 31
0.0
  0
LINE
  5
1FB
330
1F
100
AcDbEntity
  8
0
 62
   250
100
AcDbLine
 10
-254.5257738431451
 20
-244.0813826493737
 30
0.0
 11
-214.6331283240042
 21
-244.0813826493737
 31
0.0
  0
LINE
  5
1FC
330
1F
100
AcDbEntity
  8
0
 62
   250
100
AcDbLine
 10
-254.5257738431451
 20
-295.3355818734595
 30
0.0
 11
-214.6331283240042
 21
-295.3355818734595
 31
0.0
  0
LINE
  5
1FD
330
1F
100
AcDbEntity
  8
0
 62
   250
100
AcDbLine
 10
-225.2109976259639
 20
-237.7346610681979
 30
0.0
 11
-218.8642760447881
 21
-244.0813826493737
 31
0.0
  0
LINE
  5
1FE
330
1F
100
AcDbEntity
  8
0
 62
   250
100
AcDbLine
 10
-218.8642760447881
 20
-244.0813826493737
 30
0.0
 11
-212.5175544636123
 21
-250.4281042305495
 31
0.0
  0
LINE
  5
1FF
330
1F
100
AcDbEntity
  8
0
 62
   250
100
AcDbLine
 10
-218.8642760447881
 20
-244.0813826493737
 30
0.0
 11
-218.8642760447881
 21
-237.7346610681979
 31
0.0
  0
LINE
  5
200
330
1F
100
AcDbEntity
  8
0
 62
   250
100
AcDbLine
 10
-212.5175544636122
 20
-301.6823034546354
 30
0.0
 11
-218.8642760447881
 21
-295.3355818734595
 31
0.0
  0
LINE
  5
201
330
1F
100
AcDbEntity
  8
0
 62
   250
100
AcDbLine
 10
-218.8642760447881
 20
-295.3355818734595
 30
0.0
 11
-225.2109976259639
 21
-288.9888602922837
 31
0.0
  0
LINE
  5
202
330
1F
100
AcDbEntity
  8
0
 62
   250
100
AcDbLine
 10
-218.8642760447881
 20
-295.3355818734595
 30
0.0
 11
-218.8642760447881
 21
-301.6823034546354
 31
0.0
  0
LINE
  5
203
330
1F
100
AcDbEntity
  8
0
 62
   250
100
AcDbLine
 10
-218.8642760447881
 20
-244.0813826493737
 30
0.0
 11
-218.8642760447881
 21
-256.4861456339669
 31
0.0
  0
LINE
  5
204
330
1F
100
AcDbEntity
  8
0
 62
   250
100
AcDbLine
 10
-218.8642760447881
 20
-282.9308188888663
 30
0.0
 11
-218.8642760447881
 21
-295.3355818734595
 31
0.0
  0
LINE
  5
205
330
1F
100
AcDbEntity
  8
0
 62
   250
100
AcDbLine
 10
-313.9537514975598
 20
51.81175893122051
 30
0.0
 11
-313.9537514975598
 21
18.21686218104107
 31
0.0
  0
LINE
  5
206
330
1F
100
AcDbEntity
  8
0
 62
   250
100
AcDbLine
 10
-66.88222703273598
 20
51.81175893122051
 30
0.0
 11
-66.88222703273598
 21
18.21686218104107
 31
0.0
  0
LINE
  5
207
330
1F
100
AcDbEntity
  8
0
 62
   250
100
AcDbLine
 10
-320.3004730787356
 20
16.10128832064913
 30
0.0
 11
-313.9537514975598
 21
22.44800990182496
 31
0.0
  0
LINE
  5
208
330
1F
100
AcDbEntity
  8
0
 62
   250
100
AcDbLine
 10
-313.9537514975598
 20
22.44800990182496
 30
0.0
 11
-307.607029916384
 21
28.79473148300079
 31
0.0
  0
LINE
  5
209
330
1F
100
AcDbEntity
  8
0
 62
   250
100
AcDbLine
 10
-313.9537514975598
 20
22.44800990182496
 30
0.0
 11
-320.3004730787356
 21
22.44800990182496
 31
0.0
  0
LINE
  5
20A
330
1F
100
AcDbEntity
  8
0
 62
   250
100
AcDbLine
 10
-60.53550545156015
 20
28.79473148300079
 30
0.0
 11
-66.88222703273598
 21
22.44800990182496
 31
0.0
  0
LINE
  5
20B
330
1F
100
AcDbEntity
  8
0
 62
   250
100
AcDbLine
 10
-66.88222703273598
 20
22.44800990182496
 30
0.0
 11
-73.22894861391183
 21
16.10128832064913
 31
0.0
  0
LINE
  5
20C
330
1F
100
AcDbEntity
  8
0
 62
   250
100
AcDbLine
 10
-66.88222703273598
 20
22.44800990182496
 30
0.0
 11
-60.53550545156015
 21
22.44800990182496
 31
0.0
  0
LINE
  5
20D
330
1F
100
AcDbEntity
  8
0
 62
   250
100
AcDbLine
 10
-313.9537514975598
 20
22.44800990182496
 30
0.0
 11
-215.2759821247532
 21
22.44800990182496
 31
0.0
  0
LINE
  5
20E
330
1F
100
AcDbEntity
  8
0
 62
   250
100
AcDbLine
 10
-165.5599964055425
 20
22.44800990182496
 30
0.0
 11
-66.882227032736
 21
22.44800990182496
 31
0.0
  0
LINE
  5
20F
330
1F
100
AcDbEntity
  8
0
 62
   250
100
AcDbLine
 10
-313.9537514975598
 20
-299.5667295942434
 30
0.0
 11
-313.9537514975598
 21
-413.1347429372016
 31
0.0
  0
LINE
  5
210
330
1F
100
AcDbEntity
  8
0
 62
   250
100
AcDbLine
 10
115.7929958428518
 20
-299.5667295942434
 30
0.0
 11
115.7929958428518
 21
-413.1347429372016
 31
0.0
  0
LINE
  5
211
330
1F
100
AcDbEntity
  8
0
 62
   250
100
AcDbLine
 10
-320.3004730787356
 20
-415.2503167975934
 30
0.0
 11
-313.9537514975598
 21
-408.9035952164176
 31
0.0
  0
LINE
  5
212
330
1F
100
AcDbEntity
  8
0
 62
   250
100
AcDbLine
 10
-313.9537514975598
 20
-408.9035952164176
 30
0.0
 11
-307.607029916384
 21
-402.5568736352418
 31
0.0
  0
LINE
  5
213
330
1F
100
AcDbEntity
  8
0
 62
   250
100
AcDbLine
 10
-313.9537514975598
 20
-408.9035952164176
 30
0.0
 11
-320.3004730787356
 21
-408.9035952164176
 31
0.0
  0
LINE
  5
214
330
1F
100
AcDbEntity
  8
0
 62
   250
100
AcDbLine
 10
122.1397174240277
 20
-402.5568736352418
 30
0.0
 11
115.7929958428518
 21
-408.9035952164176
 31
0.0
  0
LINE
  5
215
330
1F
100
AcDbEntity
  8
0
 62
   250
100
AcDbLine
 10
115.7929958428518
 20
-408.9035952164176
 30
0.0
 11
109.446274261676
 21
-415.2503167975934
 31
0.0
  0
LINE
  5
216
330
1F
100
AcDbEntity
  8
0
 62
   250
100
AcDbLine
 10
115.7929958428518
 20
-408.9035952164176
 30
0.0
 11
122.1397174240277
 21
-408.9035952164176
 31
0.0
  0
LINE
  5
217
330
1F
100
AcDbEntity
  8
0
 62
   250
100
AcDbLine
 10
-313.9537514975598
 20
-408.9035952164176
 30
0.0
 11
-123.9383706869594
 21
-408.9035952164178
 31
0.0
  0
LINE
  5
218
330
1F
100
AcDbEntity
  8
0
 62
   250
100
AcDbLine
 10
-74.22238496774868
 20
-408.9035952164178
 30
0.0
 11
115.7929958428518
 21
-408.9035952164176
 31
0.0
  0
LINE
  5
219
330
1F
100
AcDbEntity
  8
0
 62
   250
100
AcDbLine
 10
-296.4219693896968
 20
92.35643789847163
 30
0.0
 11
-381.3462024272856
 21
92.3564378984716
 31
0.0
  0
LINE
  5
21A
330
1F
100
AcDbEntity
  8
0
 62
   250
100
AcDbLine
 10
-296.4219693896968
 20
-66.00589560158832
 30
0.0
 11
-381.3462024272856
 21
-66.00589560158835
 31
0.0
  0
LINE
  5
21B
330
1F
100
AcDbEntity
  8
0
 62
   250
100
AcDbLine
 10
-383.4617762876775
 20
98.70315947964747
 30
0.0
 11
-377.1150547065017
 21
92.35643789847163
 31
0.0
  0
LINE
  5
21C
330
1F
100
AcDbEntity
  8
0
 62
   250
100
AcDbLine
 10
-377.1150547065017
 20
92.35643789847163
 30
0.0
 11
-370.7683331253259
 21
86.0097163172958
 31
0.0
  0
LINE
  5
21D
330
1F
100
AcDbEntity
  8
0
 62
   250
100
AcDbLine
 10
-377.1150547065017
 20
92.35643789847163
 30
0.0
 11
-377.1150547065017
 21
98.70315947964747
 31
0.0
  0
LINE
  5
21E
330
1F
100
AcDbEntity
  8
0
 62
   250
100
AcDbLine
 10
-370.7683331253259
 20
-72.35261718276415
 30
0.0
 11
-377.1150547065017
 21
-66.00589560158832
 31
0.0
  0
LINE
  5
21F
330
1F
100
AcDbEntity
  8
0
 62
   250
100
AcDbLine
 10
-377.1150547065017
 20
-66.00589560158832
 30
0.0
 11
-383.4617762876775
 21
-59.65917402041249
 31
0.0
  0
LINE
  5
220
330
1F
100
AcDbEntity
  8
0
 62
   250
100
AcDbLine
 10
-377.1150547065017
 20
-66.00589560158832
 30
0.0
 11
-377.1150547065017
 21
-72.35261718276415
 31
0.0
  0
LINE
  5
221
330
1F
100
AcDbEntity
  8
0
 62
   250
100
AcDbLine
 10
-377.1150547065017
 20
92.3564378984716
 30
0.0
 11
-377.1150547065018
 21
26.39760777589129
 31
0.0
  0
LINE
  5
222
330
1F
100
AcDbEntity
  8
0
 62
   250
100
AcDbLine
 10
-377.1150547065018
 20
-0.0470654790080406
 30
0.0
 11
-377.1150547065017
 21
-66.00589560158835
 31
0.0
  0
LINE
  5
223
330
1F
100
AcDbEntity
  8
0
 62
   250
100
AcDbLine
 10
-116.4536279132881
 20
181.722733981493
 30
0.0
 11
-176.2450988235157
 21
181.722733981493
 31
0.0
  0
LINE
  5
224
330
1F
100
AcDbEntity
  8
0
 62
   250
100
AcDbLine
 10
-116.4536279132881
 20
172.5232623258879
 30
0.0
 11
-176.2450988235157
 21
172.5232623258878
 31
0.0
  0
LINE
  5
225
330
1F
100
AcDbEntity
  8
0
 62
   250
100
AcDbLine
 10
-178.3606726839076
 20
188.0694555626688
 30
0.0
 11
-172.0139511027318
 21
181.722733981493
 31
0.0
  0
LINE
  5
226
330
1F
100
AcDbEntity
  8
0
 62
   250
100
AcDbLine
 10
-172.0139511027318
 20
181.722733981493
 30
0.0
 11
-165.667229521556
 21
175.3760124003172
 31
0.0
  0
LINE
  5
227
330
1F
100
AcDbEntity
  8
0
 62
   250
100
AcDbLine
 10
-172.0139511027318
 20
181.722733981493
 30
0.0
 11
-172.0139511027318
 21
188.0694555626688
 31
0.0
  0
LINE
  5
228
330
1F
100
AcDbEntity
  8
0
 62
   250
100
AcDbLine
 10
-165.667229521556
 20
166.176540744712
 30
0.0
 11
-172.0139511027318
 21
172.5232623258879
 31
0.0
  0
LINE
  5
229
330
1F
100
AcDbEntity
  8
0
 62
   250
100
AcDbLine
 10
-172.0139511027318
 20
172.5232623258879
 30
0.0
 11
-178.3606726839076
 21
178.8699839070637
 31
0.0
  0
LINE
  5
22A
330
1F
100
AcDbEntity
  8
0
 62
   250
100
AcDbLine
 10
-172.0139511027318
 20
172.5232623258879
 30
0.0
 11
-172.0139511027318
 21
166.176540744712
 31
0.0
  0
LINE
  5
22B
330
1F
100
AcDbEntity
  8
0
 62
   250
100
AcDbLine
 10
-62.11821492536904
 20
108.1669962845418
 30
0.0
 11
-62.11821492536904
 21
83.53719762680588
 31
0.0
  0
LINE
  5
22C
330
1F
100
AcDbEntity
  8
0
 62
   250
100
AcDbLine
 10
115.7929958428518
 20
108.1669962845418
 30
0.0
 11
115.7929958428518
 21
83.53719762680588
 31
0.0
  0
LINE
  5
22D
330
1F
100
AcDbEntity
  8
0
 62
   250
100
AcDbLine
 10
-68.46493650654487
 20
81.42162376641394
 30
0.0
 11
-62.11821492536904
 21
87.76834534758977
 31
0.0
  0
LINE
  5
22E
330
1F
100
AcDbEntity
  8
0
 62
   250
100
AcDbLine
 10
-62.11821492536904
 20
87.76834534758977
 30
0.0
 11
-55.7714933441932
 21
94.1150669287656
 31
0.0
  0
LINE
  5
22F
330
1F
100
AcDbEntity
  8
0
 62
   250
100
AcDbLine
 10
-62.11821492536904
 20
87.76834534758977
 30
0.0
 11
-68.46493650654487
 21
87.76834534758977
 31
0.0
  0
LINE
  5
230
330
1F
100
AcDbEntity
  8
0
 62
   250
100
AcDbLine
 10
122.1397174240277
 20
94.1150669287656
 30
0.0
 11
115.7929958428518
 21
87.76834534758977
 31
0.0
  0
LINE
  5
231
330
1F
100
AcDbEntity
  8
0
 62
   250
100
AcDbLine
 10
115.7929958428518
 20
87.76834534758977
 30
0.0
 11
109.446274261676
 21
81.42162376641394
 31
0.0
  0
LINE
  5
232
330
1F
100
AcDbEntity
  8
0
 62
   250
100
AcDbLine
 10
115.7929958428518
 20
87.76834534758977
 30
0.0
 11
122.1397174240277
 21
87.76834534758977
 31
0.0
  0
LINE
  5
233
330
1F
100
AcDbEntity
  8
0
 62
   250
100
AcDbLine
 10
-62.11821492536904
 20
87.76834534758977
 30
0.0
 11
-13.35851288870546
 21
87.76834534758977
 31
0.0
  0
LINE
  5
234
330
1F
100
AcDbEntity
  8
0
 62
   250
100
AcDbLine
 10
67.03329380618848
 20
87.76834534758977
 30
0.0
 11
115.7929958428518
 21
87.76834534758977
 31
0.0
  0
LINE
  5
235
330
1F
100
AcDbEntity
  8
0
 62
   250
100
AcDbLine
 10
-111.196786967228
 20
92.35643789847163
 30
0.0
 11
-162.9373129483449
 21
92.35643789847161
 31
0.0
  0
LINE
  5
236
330
1F
100
AcDbEntity
  8
0
 62
   250
100
AcDbLine
 10
-111.196786967228
 20
172.5232623258879
 30
0.0
 11
-162.9373129483449
 21
172.5232623258879
 31
0.0
  0
LINE
  5
237
330
1F
100
AcDbEntity
  8
0
 62
   250
100
AcDbLine
 10
-152.3594436463852
 20
86.0097163172958
 30
0.0
 11
-158.706165227561
 21
92.35643789847163
 31
0.0
  0
LINE
  5
238
330
1F
100
AcDbEntity
  8
0
 62
   250
100
AcDbLine
 10
-158.706165227561
 20
92.35643789847163
 30
0.0
 11
-165.0528868087368
 21
98.70315947964747
 31
0.0
  0
LINE
  5
239
330
1F
100
AcDbEntity
  8
0
 62
   250
100
AcDbLine
 10
-158.706165227561
 20
92.35643789847163
 30
0.0
 11
-158.706165227561
 21
86.0097163172958
 31
0.0
  0
LINE
  5
23A
330
1F
100
AcDbEntity
  8
0
 62
   250
100
AcDbLine
 10
-165.0528868087369
 20
178.8699839070637
 30
0.0
 11
-158.706165227561
 21
172.5232623258879
 31
0.0
  0
LINE
  5
23B
330
1F
100
AcDbEntity
  8
0
 62
   250
100
AcDbLine
 10
-158.706165227561
 20
172.5232623258879
 30
0.0
 11
-152.3594436463852
 21
166.176540744712
 31
0.0
  0
LINE
  5
23C
330
1F
100
AcDbEntity
  8
0
 62
   250
100
AcDbLine
 10
-158.706165227561
 20
172.5232623258879
 30
0.0
 11
-158.706165227561
 21
178.8699839070637
 31
0.0
  0
LINE
  5
23D
330
1F
100
AcDbEntity
  8
0
 62
   250
100
AcDbLine
 10
-158.706165227561
 20
92.35643789847161
 30
0.0
 11
-158.706165227561
 21
119.2175134847304
 31
0.0
  0
LINE
  5
23E
330
1F
100
AcDbEntity
  8
0
 62
   250
100
AcDbLine
 10
-158.7061652275611
 20
145.6621867396297
 30
0.0
 11
-158.706165227561
 21
172.5232623258879
 31
0.0
  0
LINE
  5
23F
330
1F
100
AcDbEntity
  8
0
 62
   250
100
AcDbLine
 10
-122.9400330740452
 20
92.35643789847163
 30
0.0
 11
-174.9676757902791
 21
92.35643789847161
 31
0.0
  0
LINE
  5
240
330
1F
100
AcDbEntity
  8
0
 62
   250
100
AcDbLine
 10
-122.9400330740452
 20
-295.3355818734597
 30
0.0
 11
-174.9676757902789
 21
-295.3355818734597
 31
0.0
  0
LINE
  5
241
330
1F
100
AcDbEntity
  8
0
 62
   250
100
AcDbLine
 10
-177.083249650671
 20
98.70315947964747
 30
0.0
 11
-170.7365280694952
 21
92.35643789847163
 31
0.0
  0
LINE
  5
242
330
1F
100
AcDbEntity
  8
0
 62
   250
100
AcDbLine
 10
-170.7365280694952
 20
92.35643789847163
 30
0.0
 11
-164.3898064883194
 21
86.0097163172958
 31
0.0
  0
LINE
  5
243
330
1F
100
AcDbEntity
  8
0
 62
   250
100
AcDbLine
 10
-170.7365280694952
 20
92.35643789847163
 30
0.0
 11
-170.7365280694952
 21
98.70315947964747
 31
0.0
  0
LINE
  5
244
330
1F
100
AcDbEntity
  8
0
 62
   250
100
AcDbLine
 10
-164.3898064883192
 20
-301.6823034546355
 30
0.0
 11
-170.736528069495
 21
-295.3355818734597
 31
0.0
  0
LINE
  5
245
330
1F
100
AcDbEntity
  8
0
 62
   250
100
AcDbLine
 10
-170.736528069495
 20
-295.3355818734597
 30
0.0
 11
-177.0832496506708
 21
-288.9888602922838
 31
0.0
  0
LINE
  5
246
330
1F
100
AcDbEntity
  8
0
 62
   250
100
AcDbLine
 10
-170.736528069495
 20
-295.3355818734597
 30
0.0
 11
-170.736528069495
 21
-301.6823034546355
 31
0.0
  0
LINE
  5
247
330
1F
100
AcDbEntity
  8
0
 62
   250
100
AcDbLine
 10
-170.7365280694952
 20
92.35643789847161
 30
0.0
 11
-170.7365280694951
 21
-88.2672353600447
 31
0.0
  0
LINE
  5
248
330
1F
100
AcDbEntity
  8
0
 62
   250
100
AcDbLine
 10
-170.7365280694951
 20
-114.711908614944
 30
0.0
 11
-170.736528069495
 21
-295.3355818734597
 31
0.0
  0
LINE
  5
249
330
1F
100
AcDbEntity
  8
0
100
AcDbLine
 10
-329.7242743357401
 20
-295.3355818734595
 30
0.0
 11
-329.7242743357401
 21
-427.82440134213
 31
0.0
  0
LINE
  5
24A
330
1F
100
AcDbEntity
  8
0
100
AcDbLine
 10
-329.7242743357401
 20
162.0095804337677
 30
0.0
 11
-329.7242743357401
 21
-67.977210956361
 31
0.0
  0
LINE
  5
24B
330
1F
100
AcDbEntity
  8
0
100
AcDbLine
 10
-329.7242743357401
 20
-295.3355818734595
 30
0.0
 11
-313.9537514975598
 21
-295.3355818734595
 31
0.0
  0
LINE
  5
24C
330
1F
100
AcDbEntity
  8
0
 62
   250
100
AcDbLine
 10
-283.8806234807282
 20
-272.3696211075797
 30
0.0
 11
-237.0118652382698
 21
-223.0172839680725
 31
0.0
  0
LINE
  5
24D
330
1F
100
AcDbEntity
  8
0
 62
   250
100
AcDbLine
 10
-237.0118652382698
 20
-223.0172839680725
 30
0.0
 11
-220.0872743551343
 21
-223.0172839680725
 31
0.0
  0
LINE
  5
24E
330
1F
100
AcDbEntity
  8
0
 62
   250
100
AcDbLine
 10
-337.1888966390788
 20
-207.2834960269531
 30
0.0
 11
-337.8470007160088
 21
-104.0330812997145
 31
0.0
  0
LINE
  5
24F
330
1F
100
AcDbEntity
  8
0
 62
   250
100
AcDbLine
 10
-337.8470007160088
 20
-104.0330812997146
 30
0.0
 11
-354.7715915991444
 21
-104.0330812997146
 31
0.0
  0
LINE
  5
250
330
1F
100
AcDbEntity
  8
0
 62
   250
100
AcDbLine
 10
-226.1807874439271
 20
-132.2311874733575
 30
0.0
 11
-363.6682969316506
 21
-367.2984727398357
 31
0.0
  0
LINE
  5
251
330
1F
100
AcDbEntity
  8
0
 62
   250
100
AcDbLine
 10
-363.6682969316506
 20
-367.2984727398357
 30
0.0
 11
-380.5928878147862
 21
-367.2984727398357
 31
0.0
  0
LINE
  5
252
330
1F
100
AcDbEntity
  8
0
 62
   250
100
AcDbLine
 10
-463.5694066328178
 20
343.4980301724671
 30
0.0
 11
-535.2656762939567
 21
343.4980301724671
 31
0.0
  0
LINE
  5
253
330
1F
100
AcDbEntity
  8
0
 62
   250
100
AcDbLine
 10
-463.5694066328178
 20
-295.86524989209
 30
0.0
 11
-535.2656762939564
 21
-295.86524989209
 31
0.0
  0
LINE
  5
254
330
1F
100
AcDbEntity
  8
0
 62
   250
100
AcDbLine
 10
-537.3812501543487
 20
349.8447517536429
 30
0.0
 11
-531.0345285731728
 21
343.4980301724671
 31
0.0
  0
LINE
  5
255
330
1F
100
AcDbEntity
  8
0
 62
   250
100
AcDbLine
 10
-531.0345285731728
 20
343.4980301724671
 30
0.0
 11
-524.687806991997
 21
337.1513085912913
 31
0.0
  0
LINE
  5
256
330
1F
100
AcDbEntity
  8
0
 62
   250
100
AcDbLine
 10
-531.0345285731728
 20
343.4980301724671
 30
0.0
 11
-531.0345285731728
 21
349.8447517536429
 31
0.0
  0
LINE
  5
257
330
1F
100
AcDbEntity
  8
0
 62
   250
100
AcDbLine
 10
-524.6878069919968
 20
-302.2119714732658
 30
0.0
 11
-531.0345285731726
 21
-295.86524989209
 31
0.0
  0
LINE
  5
258
330
1F
100
AcDbEntity
  8
0
 62
   250
100
AcDbLine
 10
-531.0345285731726
 20
-295.86524989209
 30
0.0
 11
-537.3812501543484
 21
-289.5185283109142
 31
0.0
  0
LINE
  5
259
330
1F
100
AcDbEntity
  8
0
 62
   250
100
AcDbLine
 10
-531.0345285731726
 20
-295.86524989209
 30
0.0
 11
-531.0345285731726
 21
-302.2119714732658
 31
0.0
  0
LINE
  5
25A
330
1F
100
AcDbEntity
  8
0
 62
   250
100
AcDbLine
 10
-531.0345285731728
 20
343.4980301724671
 30
0.0
 11
-531.0345285731727
 21
37.03872676763804
 31
0.0
  0
LINE
  5
25B
330
1F
100
AcDbEntity
  8
0
 62
   250
100
AcDbLine
 10
-531.0345285731727
 20
10.59405351273872
 30
0.0
 11
-531.0345285731726
 21
-295.86524989209
 31
0.0
  0
LINE
  5
25C
330
1F
100
AcDbEntity
  8
0
100
AcDbLine
 10
18.12244322104008
 20
-44.8963936775658
 30
0.0
 11
49.84112903461298
 21
-18.02377857919567
 31
0.0
  0
LINE
  5
25D
330
1F
100
AcDbEntity
  8
0
100
AcDbLine
 10
115.7929958428518
 20
-248.0240133589188
 30
0.0
 11
121.7890800469516
 21
-248.0240133589188
 31
0.0
  0
LINE
  5
25E
330
1F
100
AcDbEntity
  8
0
100
AcDbLine
 10
115.7929958428518
 20
-198.5698909813806
 30
0.0
 11
118.4643645319555
 21
-198.7969852694127
 31
0.0
  0
LINE
  5
25F
330
1F
100
AcDbEntity
  8
0
100
AcDbLine
 10
-329.7242743357401
 20
-207.2834960269533
 30
0.0
 11
-329.7242743357401
 21
-295.3355818734595
 31
0.0
  0
LINE
  5
260
330
1F
100
AcDbEntity
  8
0
100
AcDbLine
 10
118.4643645319555
 20
-198.7969852694127
 30
0.0
 11
121.7890800469516
 21
-199.4287344670991
 31
0.0
  0
LINE
  5
261
330
1F
100
AcDbEntity
  8
0
 62
   250
100
AcDbLine
 10
115.7929958428518
 20
348.2588459118819
 30
0.0
 11
115.7929958428518
 21
409.1703420914782
 31
0.0
  0
LINE
  5
262
330
1F
100
AcDbEntity
  8
0
 62
   250
100
AcDbLine
 10
-112.2224801925042
 20
348.2588459118819
 30
0.0
 11
-112.2224801925042
 21
409.1703420914782
 31
0.0
  0
LINE
  5
263
330
1F
100
AcDbEntity
  8
0
 62
   250
100
AcDbLine
 10
122.1397174240277
 20
411.2859159518701
 30
0.0
 11
115.7929958428518
 21
404.9391943706943
 31
0.0
  0
LINE
  5
264
330
1F
100
AcDbEntity
  8
0
 62
   250
100
AcDbLine
 10
115.7929958428518
 20
404.9391943706943
 30
0.0
 11
109.446274261676
 21
398.5924727895185
 31
0.0
  0
LINE
  5
265
330
1F
100
AcDbEntity
  8
0
 62
   250
100
AcDbLine
 10
115.7929958428518
 20
404.9391943706943
 30
0.0
 11
122.1397174240277
 21
404.9391943706943
 31
0.0
  0
LINE
  5
266
330
1F
100
AcDbEntity
  8
0
 62
   250
100
AcDbLine
 10
-118.56920177368
 20
398.5924727895185
 30
0.0
 11
-112.2224801925042
 21
404.9391943706943
 31
0.0
  0
LINE
  5
267
330
1F
100
AcDbEntity
  8
0
 62
   250
100
AcDbLine
 10
-112.2224801925042
 20
404.9391943706943
 30
0.0
 11
-105.8757586113284
 21
411.2859159518701
 31
0.0
  0
LINE
  5
268
330
1F
100
AcDbEntity
  8
0
 62
   250
100
AcDbLine
 10
-112.2224801925042
 20
404.9391943706943
 30
0.0
 11
-118.56920177368
 21
404.9391943706943
 31
0.0
  0
LINE
  5
269
330
1F
100
AcDbEntity
  8
0
 62
   250
100
AcDbLine
 10
115.7929958428518
 20
404.9391943706943
 30
0.0
 11
41.98116117262076
 21
404.9391943706943
 31
0.0
  0
LINE
  5
26A
330
1F
100
AcDbEntity
  8
0
 62
   250
100
AcDbLine
 10
-38.41064552227306
 20
404.9391943706943
 30
0.0
 11
-112.2224801925042
 21
404.9391943706943
 31
0.0
  0
LINE
  5
26B
330
1F
100
AcDbEntity
  8
0
 62
   250
100
AcDbLine
 10
-57.88706720458514
 20
139.7501445527946
 30
0.0
 11
-18.86516032250927
 21
139.7501445527946
 31
0.0
  0
LINE
  5
26C
330
1F
100
AcDbEntity
  8
0
 62
   250
100
AcDbLine
 10
-57.88706720458514
 20
-48.18191926885351
 30
0.0
 11
-18.86516032250919
 21
-48.18191926885351
 31
0.0
  0
LINE
  5
26D
330
1F
100
AcDbEntity
  8
0
 62
   250
100
AcDbLine
 10
-29.44302962446899
 20
146.0968661339704
 30
0.0
 11
-23.09630804329316
 21
139.7501445527946
 31
0.0
  0
LINE
  5
26E
330
1F
100
AcDbEntity
  8
0
 62
   250
100
AcDbLine
 10
-23.09630804329316
 20
139.7501445527946
 30
0.0
 11
-16.74958646211732
 21
133.4034229716187
 31
0.0
  0
LINE
  5
26F
330
1F
100
AcDbEntity
  8
0
 62
   250
100
AcDbLine
 10
-23.09630804329316
 20
139.7501445527946
 30
0.0
 11
-23.09630804329316
 21
146.0968661339704
 31
0.0
  0
LINE
  5
270
330
1F
100
AcDbEntity
  8
0
 62
   250
100
AcDbLine
 10
-16.74958646211725
 20
-54.52864085002934
 30
0.0
 11
-23.09630804329308
 21
-48.18191926885351
 31
0.0
  0
LINE
  5
271
330
1F
100
AcDbEntity
  8
0
 62
   250
100
AcDbLine
 10
-23.09630804329308
 20
-48.18191926885351
 30
0.0
 11
-29.44302962446891
 21
-41.83519768767768
 31
0.0
  0
LINE
  5
272
330
1F
100
AcDbEntity
  8
0
 62
   250
100
AcDbLine
 10
-23.09630804329308
 20
-48.18191926885351
 30
0.0
 11
-23.09630804329307
 21
-54.52864085002934
 31
0.0
  0
LINE
  5
273
330
1F
100
AcDbEntity
  8
0
 62
   250
100
AcDbLine
 10
-23.09630804329316
 20
139.7501445527946
 30
0.0
 11
-23.09630804329316
 21
59.00644926942027
 31
0.0
  0
LINE
  5
274
330
1F
100
AcDbEntity
  8
0
 62
   250
100
AcDbLine
 10
-23.096308043293
 20
32.56177601452096
 30
0.0
 11
-23.09630804329309
 21
-48.18191926885351
 31
0.0
  0
LINE
  5
275
330
1F
100
AcDbEntity
  8
0
 62
   250
100
AcDbLine
 10
16.73439926553218
 20
-65.63730749456978
 30
0.0
 11
16.73439926553218
 21
-99.66118084798428
 31
0.0
  0
LINE
  5
276
330
1F
100
AcDbEntity
  8
0
 62
   250
100
AcDbLine
 10
-62.11821492536904
 20
-65.63730749456978
 30
0.0
 11
-62.11821492536904
 21
-99.66118084798428
 31
0.0
  0
LINE
  5
277
330
1F
100
AcDbEntity
  8
0
 62
   250
100
AcDbLine
 10
23.08112084670802
 20
-89.08331154602456
 30
0.0
 11
16.73439926553218
 21
-95.43003312720039
 31
0.0
  0
LINE
  5
278
330
1F
100
AcDbEntity
  8
0
 62
   250
100
AcDbLine
 10
16.73439926553218
 20
-95.43003312720039
 30
0.0
 11
10.38767768435635
 21
-101.7767547083762
 31
0.0
  0
LINE
  5
279
330
1F
100
AcDbEntity
  8
0
 62
   250
100
AcDbLine
 10
16.73439926553218
 20
-95.43003312720039
 30
0.0
 11
23.08112084670802
 21
-95.43003312720039
 31
0.0
  0
LINE
  5
27A
330
1F
100
AcDbEntity
  8
0
 62
   250
100
AcDbLine
 10
-68.46493650654487
 20
-101.7767547083762
 30
0.0
 11
-62.11821492536904
 21
-95.43003312720039
 31
0.0
  0
LINE
  5
27B
330
1F
100
AcDbEntity
  8
0
 62
   250
100
AcDbLine
 10
-62.11821492536904
 20
-95.43003312720039
 30
0.0
 11
-55.7714933441932
 21
-89.08331154602456
 31
0.0
  0
LINE
  5
27C
330
1F
100
AcDbEntity
  8
0
 62
   250
100
AcDbLine
 10
-62.11821492536904
 20
-95.43003312720039
 30
0.0
 11
-68.46493650654487
 21
-95.43003312720039
 31
0.0
  0
LINE
  5
27D
330
1F
100
AcDbEntity
  8
0
 62
   250
100
AcDbLine
 10
16.73439926553218
 20
-95.43003312720039
 30
0.0
 11
-13.17182545815466
 21
-95.43003312720025
 31
0.0
  0
LINE
  5
27E
330
1F
100
AcDbEntity
  8
0
 62
   250
100
AcDbLine
 10
-32.21199020168211
 20
-95.43003312720025
 30
0.0
 11
-62.11821492536904
 21
-95.43003312720039
 31
0.0
  0
LINE
  5
27F
330
1F
100
AcDbEntity
  8
0
 62
   250
100
AcDbLine
 10
-116.4536279132881
 20
344.027698191098
 30
0.0
 11
-162.937312948345
 21
344.027698191098
 31
0.0
  0
LINE
  5
280
330
1F
100
AcDbEntity
  8
0
 62
   250
100
AcDbLine
 10
-116.4536279132881
 20
181.722733981493
 30
0.0
 11
-162.9373129483449
 21
181.722733981493
 31
0.0
  0
LINE
  5
281
330
1F
100
AcDbEntity
  8
0
 62
   250
100
AcDbLine
 10
-165.052886808737
 20
350.3744197722738
 30
0.0
 11
-158.7061652275611
 21
344.027698191098
 31
0.0
  0
LINE
  5
282
330
1F
100
AcDbEntity
  8
0
 62
   250
100
AcDbLine
 10
-158.7061652275611
 20
344.027698191098
 30
0.0
 11
-152.3594436463853
 21
337.6809766099222
 31
0.0
  0
LINE
  5
283
330
1F
100
AcDbEntity
  8
0
 62
   250
100
AcDbLine
 10
-158.7061652275611
 20
344.027698191098
 30
0.0
 11
-158.7061652275611
 21
350.3744197722738
 31
0.0
  0
LINE
  5
284
330
1F
100
AcDbEntity
  8
0
 62
   250
100
AcDbLine
 10
-152.3594436463852
 20
175.3760124003172
 30
0.0
 11
-158.706165227561
 21
181.722733981493
 31
0.0
  0
LINE
  5
285
330
1F
100
AcDbEntity
  8
0
 62
   250
100
AcDbLine
 10
-158.706165227561
 20
181.722733981493
 30
0.0
 11
-165.0528868087369
 21
188.0694555626688
 31
0.0
  0
LINE
  5
286
330
1F
100
AcDbEntity
  8
0
 62
   250
100
AcDbLine
 10
-158.706165227561
 20
181.722733981493
 30
0.0
 11
-158.706165227561
 21
175.3760124003172
 31
0.0
  0
LINE
  5
287
330
1F
100
AcDbEntity
  8
0
 62
   250
100
AcDbLine
 10
-158.7061652275611
 20
344.027698191098
 30
0.0
 11
-158.7061652275611
 21
276.0975527137455
 31
0.0
  0
LINE
  5
288
330
1F
100
AcDbEntity
  8
0
 62
   250
100
AcDbLine
 10
-158.706165227561
 20
249.6528794588462
 30
0.0
 11
-158.706165227561
 21
181.722733981493
 31
0.0
  0
LINE
  5
289
330
1F
100
AcDbEntity
  8
0
100
AcDbLine
 10
-60.12110043031188
 20
223.9637238081475
 30
0.0
 11
-60.12110043031188
 21
223.7774615499737
 31
0.0
  0
LINE
  5
28A
330
1F
100
AcDbEntity
  8
0
 62
   250
100
AcDbLine
 10
-313.9537514975598
 20
96.58758561925552
 30
0.0
 11
-313.9537514975598
 21
118.9240452062975
 31
0.0
  0
LINE
  5
28B
330
1F
100
AcDbEntity
  8
0
 62
   250
100
AcDbLine
 10
-106.9656392464441
 20
96.58758561925552
 30
0.0
 11
-106.9656392464441
 21
118.9240452062975
 31
0.0
  0
LINE
  5
28C
330
1F
100
AcDbEntity
  8
0
 62
   250
100
AcDbLine
 10
-320.3004730787356
 20
108.3461759043378
 30
0.0
 11
-313.9537514975598
 21
114.6928974855136
 31
0.0
  0
LINE
  5
28D
330
1F
100
AcDbEntity
  8
0
 62
   250
100
AcDbLine
 10
-313.9537514975598
 20
114.6928974855136
 30
0.0
 11
-307.607029916384
 21
121.0396190666895
 31
0.0
  0
LINE
  5
28E
330
1F
100
AcDbEntity
  8
0
 62
   250
100
AcDbLine
 10
-313.9537514975598
 20
114.6928974855136
 30
0.0
 11
-320.3004730787356
 21
114.6928974855136
 31
0.0
  0
LINE
  5
28F
330
1F
100
AcDbEntity
  8
0
 62
   250
100
AcDbLine
 10
-100.6189176652683
 20
121.0396190666895
 30
0.0
 11
-106.9656392464441
 21
114.6928974855136
 31
0.0
  0
LINE
  5
290
330
1F
100
AcDbEntity
  8
0
 62
   250
100
AcDbLine
 10
-106.9656392464441
 20
114.6928974855136
 30
0.0
 11
-113.3123608276199
 21
108.3461759043378
 31
0.0
  0
LINE
  5
291
330
1F
100
AcDbEntity
  8
0
 62
   250
100
AcDbLine
 10
-106.9656392464441
 20
114.6928974855136
 30
0.0
 11
-100.6189176652683
 21
114.6928974855136
 31
0.0
  0
LINE
  5
292
330
1F
100
AcDbEntity
  8
0
 62
   250
100
AcDbLine
 10
-313.9537514975598
 20
114.6928974855136
 30
0.0
 11
-250.655598719449
 21
114.6928974855136
 31
0.0
  0
LINE
  5
293
330
1F
100
AcDbEntity
  8
0
 62
   250
100
AcDbLine
 10
-170.263792024555
 20
114.6928974855136
 30
0.0
 11
-106.9656392464441
 21
114.6928974855136
 31
0.0
  0
LINE
  5
294
330
1F
100
AcDbEntity
  8
0
 62
   250
100
AcDbLine
 10
-106.9656392464441
 20
128.2087023913959
 30
0.0
 11
-106.9656392464441
 21
72.71986183121867
 31
0.0
  0
LINE
  5
295
330
1F
100
AcDbEntity
  8
0
 62
   250
100
AcDbLine
 10
-66.0608456349141
 20
128.2087023913959
 30
0.0
 11
-66.0608456349141
 21
72.71986183121867
 31
0.0
  0
LINE
  5
296
330
1F
100
AcDbEntity
  8
0
 62
   250
100
AcDbLine
 10
-113.3123608276199
 20
70.60428797082672
 30
0.0
 11
-106.9656392464441
 21
76.95100955200256
 31
0.0
  0
LINE
  5
297
330
1F
100
AcDbEntity
  8
0
 62
   250
100
AcDbLine
 10
-106.9656392464441
 20
76.95100955200256
 30
0.0
 11
-100.6189176652683
 21
83.29773113317839
 31
0.0
  0
LINE
  5
298
330
1F
100
AcDbEntity
  8
0
 62
   250
100
AcDbLine
 10
-106.9656392464441
 20
76.95100955200256
 30
0.0
 11
-113.3123608276199
 21
76.95100955200256
 31
0.0
  0
LINE
  5
299
330
1F
100
AcDbEntity
  8
0
 62
   250
100
AcDbLine
 10
-59.71412405373826
 20
83.29773113317839
 30
0.0
 11
-66.0608456349141
 21
76.95100955200256
 31
0.0
  0
LINE
  5
29A
330
1F
100
AcDbEntity
  8
0
 62
   250
100
AcDbLine
 10
-66.0608456349141
 20
76.95100955200256
 30
0.0
 11
-72.40756721608993
 21
70.60428797082672
 31
0.0
  0
LINE
  5
29B
330
1F
100
AcDbEntity
  8
0
 62
   250
100
AcDbLine
 10
-66.0608456349141
 20
76.95100955200256
 30
0.0
 11
-59.71412405373826
 21
76.95100955200256
 31
0.0
  0
LINE
  5
29C
330
1F
100
AcDbEntity
  8
0
100
AcDbLine
 10
121.7890800469516
 20
-199.4287344670991
 30
0.0
 11
121.7890800469516
 21
283.4918891716249
 31
0.0
  0
LINE
  5
29D
330
1F
100
AcDbEntity
  8
0
100
AcDbLine
 10
-120.7293205094861
 20
283.4918891716249
 30
0.0
 11
-112.2224801925042
 21
283.4918891716249
 31
0.0
  0
LINE
  5
29E
330
1F
100
AcDbEntity
  8
0
100
AcDbLine
 10
-44.60361054139604
 20
-302.0919108854102
 30
0.0
 11
-44.40411747959345
 21
-297.9798145252468
 31
0.0
  0
LINE
  5
29F
330
1F
100
AcDbEntity
  8
0
100
AcDbLine
 10
-66.85514620342833
 20
-313.5387181180528
 30
0.0
 11
-62.93479873271741
 21
-314.7957024719205
 31
0.0
  0
LINE
  5
2A0
330
1F
100
AcDbEntity
  8
0
100
AcDbLine
 10
-48.08940913474542
 20
-309.4736917359309
 30
0.0
 11
-45.86059489526377
 21
-306.0122583561212
 31
0.0
  0
LINE
  5
2A1
330
1F
100
AcDbEntity
  8
0
100
AcDbLine
 10
-70.31657958323815
 20
-311.3099038785713
 30
0.0
 11
-66.85514620342833
 21
-313.5387181180528
 31
0.0
  0
LINE
  5
2A2
330
1F
100
AcDbEntity
  8
0
100
AcDbLine
 10
-58.8227023725539
 20
-314.9951955337232
 30
0.0
 11
-54.7990896943223
 21
-314.1236021809768
 31
0.0
  0
LINE
  5
2A3
330
1F
100
AcDbEntity
  8
0
100
AcDbLine
 10
-73.08320790760202
 20
-308.2611497606067
 30
0.0
 11
-70.31657958323815
 21
-311.3099038785713
 31
0.0
  0
LINE
  5
2A4
330
1F
100
AcDbEntity
  8
0
100
AcDbLine
 10
-54.7990896943223
 20
-314.1236021809768
 30
0.0
 11
-51.13816325270982
 21
-312.2403200602948
 31
0.0
  0
LINE
  5
2A5
330
1F
100
AcDbEntity
  8
0
100
AcDbLine
 10
-74.96649002828396
 20
-304.6002233189943
 30
0.0
 11
-73.08320790760202
 21
-308.2611497606067
 31
0.0
  0
LINE
  5
2A6
330
1F
100
AcDbEntity
  8
0
100
AcDbLine
 10
-75.27661975846739
 20
-295.3355818734597
 30
0.0
 11
-75.63859031922773
 21
-296.4645142805992
 31
0.0
  0
LINE
  5
2A7
330
1F
100
AcDbEntity
  8
0
100
AcDbLine
 10
-75.83808338103039
 20
-300.5766106407627
 30
0.0
 11
-74.96649002828396
 21
-304.6002233189943
 31
0.0
  0
LINE
  5
2A8
330
1F
100
AcDbEntity
  8
0
100
AcDbLine
 10
-62.93479873271741
 20
-314.7957024719205
 30
0.0
 11
-58.8227023725539
 21
-314.9951955337232
 31
0.0
  0
LINE
  5
2A9
330
1F
100
AcDbEntity
  8
0
100
AcDbLine
 10
-75.63859031922773
 20
-296.4645142805992
 30
0.0
 11
-75.83808338103039
 21
-300.5766106407627
 31
0.0
  0
LINE
  5
2AA
330
1F
100
AcDbEntity
  8
0
100
AcDbLine
 10
-45.86059489526377
 20
-306.0122583561212
 30
0.0
 11
-44.60361054139604
 21
-302.0919108854102
 31
0.0
  0
LINE
  5
2AB
330
1F
100
AcDbEntity
  8
0
100
AcDbLine
 10
-44.40411747959345
 20
-297.9798145252468
 30
0.0
 11
-44.97691008830587
 21
-295.3355818734597
 31
0.0
  0
LINE
  5
2AC
330
1F
100
AcDbEntity
  8
0
100
AcDbLine
 10
-51.13816325270982
 20
-312.2403200602948
 30
0.0
 11
-48.08940913474542
 21
-309.4736917359309
 31
0.0
  0
LINE
  5
2AD
330
1F
100
AcDbEntity
  8
0
 62
   250
100
AcDbLine
 10
313.4668895492108
 20
209.8961159267838
 30
0.0
 11
338.501818281018
 21
345.3853434326259
 31
0.0
  0
LINE
  5
2AE
330
1F
100
AcDbEntity
  8
0
 62
   250
100
AcDbLine
 10
338.501818281018
 20
345.3853434326259
 30
0.0
 11
355.4264091641535
 21
345.3853434326259
 31
0.0
  0
LINE
  5
2AF
330
1F
100
AcDbEntity
  8
0
100
AcDbLine
 10
313.4668895492108
 20
209.8961159267838
 30
0.0
 11
225.8365323335671
 21
209.8961159267838
 31
0.0
  0
LINE
  5
2B0
330
1F
100
AcDbEntity
  8
0
100
AcDbLine
 10
225.8365323335671
 20
209.8961159267838
 30
0.0
 11
224.5223220970521
 21
209.8961159267838
 31
0.0
  0
LINE
  5
2B1
330
1F
100
AcDbEntity
  8
0
100
AcDbLine
 10
484.9259076196691
 20
194.1585615242942
 30
0.0
 11
487.8549904957284
 21
197.0515889113324
 31
0.0
  0
LINE
  5
2B2
330
1F
100
AcDbEntity
  8
0
100
AcDbLine
 10
487.8549904957284
 20
197.0515889113324
 30
0.0
 11
489.9354967072866
 21
200.6041412136423
 31
0.0
  0
LINE
  5
2B3
330
1F
100
AcDbEntity
  8
0
100
AcDbLine
 10
489.9354967072866
 20
200.6041412136423
 30
0.0
 11
490.8185578958602
 21
203.8199771956163
 31
0.0
  0
LINE
  5
2B4
330
1F
100
AcDbEntity
  8
0
100
AcDbLine
 10
490.0102445020211
 20
212.6741453845197
 30
0.0
 11
487.9738970657271
 21
216.2521927676151
 31
0.0
  0
LINE
  5
2B5
330
1F
100
AcDbEntity
  8
0
100
AcDbLine
 10
487.9738970657271
 20
216.2521927676151
 30
0.0
 11
485.0808696786888
 21
219.1812756436748
 31
0.0
  0
LINE
  5
2B6
330
1F
100
AcDbEntity
  8
0
100
AcDbLine
 10
485.0808696786888
 20
219.1812756436748
 30
0.0
 11
481.5283173763792
 21
221.2617818552326
 31
0.0
  0
LINE
  5
2B7
330
1F
100
AcDbEntity
  8
0
100
AcDbLine
 10
481.5283173763792
 20
221.2617818552326
 30
0.0
 11
477.5583407273303
 21
222.3519283421711
 31
0.0
  0
LINE
  5
2B8
330
1F
100
AcDbEntity
  8
0
100
AcDbLine
 10
477.5583407273303
 20
222.3519283421711
 30
0.0
 11
473.4414870794781
 21
222.3774234229569
 31
0.0
  0
LINE
  5
2B9
330
1F
100
AcDbEntity
  8
0
100
AcDbLine
 10
473.4414870794781
 20
222.3774234229569
 30
0.0
 11
469.4583132055017
 21
221.3365296499671
 31
0.0
  0
LINE
  5
2BA
330
1F
100
AcDbEntity
  8
0
100
AcDbLine
 10
469.4583132055017
 20
221.3365296499671
 30
0.0
 11
465.8802658224062
 21
219.3001822136734
 31
0.0
  0
LINE
  5
2BB
330
1F
100
AcDbEntity
  8
0
100
AcDbLine
 10
465.8802658224062
 20
219.3001822136734
 30
0.0
 11
462.9511829463468
 21
216.4071548266351
 31
0.0
  0
LINE
  5
2BC
330
1F
100
AcDbEntity
  8
0
100
AcDbLine
 10
462.9511829463468
 20
216.4071548266351
 30
0.0
 11
460.8706767347886
 21
212.8546025243253
 31
0.0
  0
LINE
  5
2BD
330
1F
100
AcDbEntity
  8
0
100
AcDbLine
 10
460.8706767347886
 20
212.8546025243253
 30
0.0
 11
460.0582830972249
 21
209.8961159267838
 31
0.0
  0
LINE
  5
2BE
330
1F
100
AcDbEntity
  8
0
100
AcDbLine
 10
459.7805302478503
 20
208.8846258752765
 30
0.0
 11
459.7550351670645
 21
204.7677722274242
 31
0.0
  0
LINE
  5
2BF
330
1F
100
AcDbEntity
  8
0
100
AcDbLine
 10
459.7550351670645
 20
204.7677722274242
 30
0.0
 11
459.788614415214
 21
204.6392749807237
 31
0.0
  0
LINE
  5
2C0
330
1F
100
AcDbEntity
  8
0
100
AcDbLine
 10
460.0582830972249
 20
209.8961159267838
 30
0.0
 11
402.4224949333212
 21
209.8961159267838
 31
0.0
  0
LINE
  5
2C1
330
1F
100
AcDbEntity
  8
0
100
AcDbLine
 10
490.7362066757116
 20
209.8961159267838
 30
0.0
 11
636.7877319779752
 21
209.8961159267838
 31
0.0
  0
LINE
  5
2C2
330
1F
100
AcDbEntity
  8
0
100
AcDbLine
 10
484.4359156229517
 20
193.879696031614
 30
0.0
 11
484.9259076196691
 21
194.1585615242942
 31
0.0
  0
LINE
  5
2C3
330
1F
100
AcDbEntity
  8
0
100
AcDbLine
 10
490.7362066757116
 20
209.8961159267838
 30
0.0
 11
490.0102445020211
 21
212.6741453845197
 31
0.0
  0
LINE
  5
2C4
330
1F
100
AcDbEntity
  8
0
100
AcDbLine
 10
460.0582830972249
 20
209.8961159267838
 30
0.0
 11
459.7805302478503
 21
208.8846258752765
 31
0.0
  0
LINE
  5
2C5
330
1F
100
AcDbEntity
  8
0
100
AcDbLine
 10
197.9244101245159
 20
-36.03748389570942
 30
0.0
 11
196.1863954609166
 21
-39.76956628843477
 31
0.0
  0
LINE
  5
2C6
330
1F
100
AcDbEntity
  8
0
100
AcDbLine
 10
196.1863954609166
 20
-39.76956628843477
 30
0.0
 11
195.473536212006
 21
-43.82431235301389
 31
0.0
  0
LINE
  5
2C7
330
1F
100
AcDbEntity
  8
0
100
AcDbLine
 10
195.473536212006
 20
-43.82431235301389
 30
0.0
 11
195.8344125575418
 21
-47.92539784593041
 31
0.0
  0
LINE
  5
2C8
330
1F
100
AcDbEntity
  8
0
100
AcDbLine
 10
195.8344125575418
 20
-47.92539784593041
 30
0.0
 11
197.244431370952
 21
-51.79334056820626
 31
0.0
  0
LINE
  5
2C9
330
1F
100
AcDbEntity
  8
0
100
AcDbLine
 10
197.244431370952
 20
-51.79334056820626
 30
0.0
 11
199.6075022002691
 21
-55.1645466153959
 31
0.0
  0
LINE
  5
2CA
330
1F
100
AcDbEntity
  8
0
100
AcDbLine
 10
199.6075022002691
 20
-55.1645466153959
 30
0.0
 11
202.7625856736343
 21
-57.80927386656487
 31
0.0
  0
LINE
  5
2CB
330
1F
100
AcDbEntity
  8
0
100
AcDbLine
 10
202.7625856736343
 20
-57.80927386656487
 30
0.0
 11
206.4946680663597
 21
-59.54728853016422
 31
0.0
  0
LINE
  5
2CC
330
1F
100
AcDbEntity
  8
0
100
AcDbLine
 10
206.4946680663597
 20
-59.54728853016422
 30
0.0
 11
208.3300706280092
 21
-59.86996809399084
 31
0.0
  0
LINE
  5
2CD
330
1F
100
AcDbEntity
  8
0
100
AcDbLine
 10
207.8082861451503
 20
-29.10931077961679
 30
0.0
 11
203.9403434228745
 21
-30.51932959302709
 31
0.0
  0
LINE
  5
2CE
330
1F
100
AcDbEntity
  8
0
100
AcDbLine
 10
203.9403434228745
 20
-30.51932959302709
 30
0.0
 11
200.5691373756848
 21
-32.88240042234411
 31
0.0
  0
LINE
  5
2CF
330
1F
100
AcDbEntity
  8
0
100
AcDbLine
 10
200.5691373756848
 20
-32.88240042234411
 30
0.0
 11
197.9244101245159
 21
-36.03748389570942
 31
0.0
  0
LINE
  5
2D0
330
1F
100
AcDbEntity
  8
0
100
AcDbLine
 10
208.3300706280092
 20
-29.06339618513766
 30
0.0
 11
207.8082861451503
 21
-29.10931077961679
 31
0.0
  0
LINE
  5
2D1
330
1F
100
AcDbEntity
  8
0
100
AcDbLine
 10
206.9245575238808
 20
-284.2391128997972
 30
0.0
 11
203.121007766536
 21
-285.8145947944503
 31
0.0
  0
LINE
  5
2D2
330
1F
100
AcDbEntity
  8
0
100
AcDbLine
 10
203.121007766536
 20
-285.8145947944503
 30
0.0
 11
199.8548255438916
 21
-288.3208245615426
 31
0.0
  0
LINE
  5
2D3
330
1F
100
AcDbEntity
  8
0
100
AcDbLine
 10
199.8548255438916
 20
-288.3208245615426
 30
0.0
 11
197.3485957767994
 21
-291.587006784187
 31
0.0
  0
LINE
  5
2D4
330
1F
100
AcDbEntity
  8
0
100
AcDbLine
 10
197.3485957767994
 20
-291.587006784187
 30
0.0
 11
195.7731138821463
 21
-295.3905565415318
 31
0.0
  0
LINE
  5
2D5
330
1F
100
AcDbEntity
  8
0
100
AcDbLine
 10
195.7731138821463
 20
-295.3905565415318
 30
0.0
 11
195.2357463474459
 21
-299.4722682032771
 31
0.0
  0
LINE
  5
2D6
330
1F
100
AcDbEntity
  8
0
100
AcDbLine
 10
195.2357463474459
 20
-299.4722682032771
 30
0.0
 11
195.7731138821463
 21
-303.5539798650224
 31
0.0
  0
LINE
  5
2D7
330
1F
100
AcDbEntity
  8
0
100
AcDbLine
 10
195.7731138821463
 20
-303.5539798650224
 30
0.0
 11
197.3485957767994
 21
-307.3575296223672
 31
0.0
  0
LINE
  5
2D8
330
1F
100
AcDbEntity
  8
0
100
AcDbLine
 10
197.3485957767994
 20
-307.3575296223672
 30
0.0
 11
199.8548255438916
 21
-310.6237118450116
 31
0.0
  0
LINE
  5
2D9
330
1F
100
AcDbEntity
  8
0
100
AcDbLine
 10
199.8548255438916
 20
-310.6237118450116
 30
0.0
 11
203.121007766536
 21
-313.1299416121038
 31
0.0
  0
LINE
  5
2DA
330
1F
100
AcDbEntity
  8
0
100
AcDbLine
 10
203.121007766536
 20
-313.1299416121038
 30
0.0
 11
206.9245575238808
 21
-314.7054235067569
 31
0.0
  0
LINE
  5
2DB
330
1F
100
AcDbEntity
  8
0
100
AcDbLine
 10
206.9245575238808
 20
-314.7054235067569
 30
0.0
 11
208.3300706280092
 21
-314.8904628173072
 31
0.0
  0
LINE
  5
2DC
330
1F
100
AcDbEntity
  8
0
100
AcDbLine
 10
211.0062691856261
 20
-315.2427910414573
 30
0.0
 11
215.0879808473715
 21
-314.7054235067569
 31
0.0
  0
LINE
  5
2DD
330
1F
100
AcDbEntity
  8
0
100
AcDbLine
 10
215.0879808473715
 20
-314.7054235067569
 30
0.0
 11
218.8915306047163
 21
-313.1299416121038
 31
0.0
  0
LINE
  5
2DE
330
1F
100
AcDbEntity
  8
0
100
AcDbLine
 10
218.8915306047163
 20
-313.1299416121038
 30
0.0
 11
222.1577128273607
 21
-310.6237118450116
 31
0.0
  0
LINE
  5
2DF
330
1F
100
AcDbEntity
  8
0
100
AcDbLine
 10
222.1577128273607
 20
-310.6237118450116
 30
0.0
 11
224.6639425944529
 21
-307.3575296223672
 31
0.0
  0
LINE
  5
2E0
330
1F
100
AcDbEntity
  8
0
100
AcDbLine
 10
224.6639425944529
 20
-307.3575296223672
 30
0.0
 11
226.239424489106
 21
-303.5539798650224
 31
0.0
  0
LINE
  5
2E1
330
1F
100
AcDbEntity
  8
0
100
AcDbLine
 10
226.239424489106
 20
-303.5539798650224
 30
0.0
 11
226.7767920238064
 21
-299.4722682032771
 31
0.0
  0
LINE
  5
2E2
330
1F
100
AcDbEntity
  8
0
100
AcDbLine
 10
226.7767920238064
 20
-299.4722682032771
 30
0.0
 11
226.239424489106
 21
-295.3905565415318
 31
0.0
  0
LINE
  5
2E3
330
1F
100
AcDbEntity
  8
0
100
AcDbLine
 10
226.239424489106
 20
-295.3905565415318
 30
0.0
 11
224.6639425944529
 21
-291.587006784187
 31
0.0
  0
LINE
  5
2E4
330
1F
100
AcDbEntity
  8
0
100
AcDbLine
 10
224.6639425944529
 20
-291.587006784187
 30
0.0
 11
223.0654218177117
 21
-289.503773948924
 31
0.0
  0
LINE
  5
2E5
330
1F
100
AcDbEntity
  8
0
100
AcDbLine
 10
208.3300706280092
 20
-314.8904628173072
 30
0.0
 11
208.3300706280092
 21
-439.346118177764
 31
0.0
  0
LINE
  5
2E6
330
1F
100
AcDbEntity
  8
0
100
AcDbLine
 10
208.3300706280092
 20
-284.054073589247
 30
0.0
 11
206.9245575238808
 21
-284.2391128997972
 31
0.0
  0
LINE
  5
2E7
330
1F
100
AcDbEntity
  8
0
100
AcDbLine
 10
208.3300706280092
 20
-314.8904628173072
 30
0.0
 11
211.0062691856261
 21
-315.2427910414573
 31
0.0
  0
LINE
  5
2E8
330
1F
100
AcDbEntity
  8
0
 62
   250
100
AcDbLine
 10
434.685492773656
 20
25.90668281468092
 30
0.0
 11
417.9042311530457
 21
25.90668281468091
 31
0.0
  0
LINE
  5
2E9
330
1F
100
AcDbEntity
  8
0
 62
   250
100
AcDbLine
 10
434.6854927736561
 20
204.6392749807237
 30
0.0
 11
417.9042311530457
 21
204.6392749807237
 31
0.0
  0
LINE
  5
2EA
330
1F
100
AcDbEntity
  8
0
 62
   250
100
AcDbLine
 10
428.4821004550054
 20
19.55996123350508
 30
0.0
 11
422.1353788738296
 21
25.90668281468092
 31
0.0
  0
LINE
  5
2EB
330
1F
100
AcDbEntity
  8
0
 62
   250
100
AcDbLine
 10
422.1353788738296
 20
25.90668281468092
 30
0.0
 11
415.7886572926537
 21
32.25340439585675
 31
0.0
  0
LINE
  5
2EC
330
1F
100
AcDbEntity
  8
0
 62
   250
100
AcDbLine
 10
422.1353788738296
 20
25.90668281468092
 30
0.0
 11
422.1353788738296
 21
19.55996123350508
 31
0.0
  0
LINE
  5
2ED
330
1F
100
AcDbEntity
  8
0
 62
   250
100
AcDbLine
 10
415.7886572926537
 20
210.9859965618995
 30
0.0
 11
422.1353788738296
 21
204.6392749807237
 31
0.0
  0
LINE
  5
2EE
330
1F
100
AcDbEntity
  8
0
 62
   250
100
AcDbLine
 10
422.1353788738296
 20
204.6392749807237
 30
0.0
 11
428.4821004550054
 21
198.2925533995479
 31
0.0
  0
LINE
  5
2EF
330
1F
100
AcDbEntity
  8
0
 62
   250
100
AcDbLine
 10
422.1353788738296
 20
204.6392749807237
 30
0.0
 11
422.1353788738296
 21
210.9859965618995
 31
0.0
  0
LINE
  5
2F0
330
1F
100
AcDbEntity
  8
0
 62
   250
100
AcDbLine
 10
422.1353788738296
 20
25.90668281468091
 30
0.0
 11
422.13537887383
 21
102.0506422702526
 31
0.0
  0
LINE
  5
2F1
330
1F
100
AcDbEntity
  8
0
 62
   250
100
AcDbLine
 10
422.1353788738299
 20
128.495315525152
 30
0.0
 11
422.1353788738295
 21
204.6392749807237
 31
0.0
  0
LINE
  5
2F2
330
1F
100
AcDbEntity
  8
0
 62
   250
100
AcDbLine
 10
88.81315242993065
 20
-44.8963936775658
 30
0.0
 11
77.84556638670131
 21
-44.89639367756581
 31
0.0
  0
LINE
  5
2F3
330
1F
100
AcDbEntity
  8
0
 62
   250
100
AcDbLine
 10
88.81315242993065
 20
344.0276981910979
 30
0.0
 11
77.84556638670115
 21
344.0276981910979
 31
0.0
  0
LINE
  5
2F4
330
1F
100
AcDbEntity
  8
0
 62
   250
100
AcDbLine
 10
88.42343568866103
 20
-51.24311525874164
 30
0.0
 11
82.07671410748519
 21
-44.8963936775658
 31
0.0
  0
LINE
  5
2F5
330
1F
100
AcDbEntity
  8
0
 62
   250
100
AcDbLine
 10
82.07671410748519
 20
-44.8963936775658
 30
0.0
 11
75.72999252630936
 21
-38.54967209638998
 31
0.0
  0
LINE
  5
2F6
330
1F
100
AcDbEntity
  8
0
 62
   250
100
AcDbLine
 10
82.07671410748519
 20
-44.8963936775658
 30
0.0
 11
82.07671410748519
 21
-51.24311525874164
 31
0.0
  0
LINE
  5
2F7
330
1F
100
AcDbEntity
  8
0
 62
   250
100
AcDbLine
 10
75.7299925263092
 20
350.3744197722738
 30
0.0
 11
82.07671410748505
 21
344.027698191098
 31
0.0
  0
LINE
  5
2F8
330
1F
100
AcDbEntity
  8
0
 62
   250
100
AcDbLine
 10
82.07671410748505
 20
344.027698191098
 30
0.0
 11
88.42343568866087
 21
337.6809766099222
 31
0.0
  0
LINE
  5
2F9
330
1F
100
AcDbEntity
  8
0
 62
   250
100
AcDbLine
 10
82.07671410748505
 20
344.027698191098
 30
0.0
 11
82.07671410748505
 21
350.3744197722738
 31
0.0
  0
LINE
  5
2FA
330
1F
100
AcDbEntity
  8
0
 62
   250
100
AcDbLine
 10
82.07671410748519
 20
-44.8963936775658
 30
0.0
 11
82.07671410748519
 21
136.3433156293166
 31
0.0
  0
LINE
  5
2FB
330
1F
100
AcDbEntity
  8
0
 62
   250
100
AcDbLine
 10
82.07671410748526
 20
162.7879888842159
 30
0.0
 11
82.07671410748505
 21
344.0276981910979
 31
0.0
  0
LINE
  5
2FC
330
1F
100
AcDbEntity
  8
0
100
AcDbLine
 10
484.4359156229517
 20
19.33563163210582
 30
0.0
 11
505.1582701450178
 21
-18.66872401718959
 31
0.0
  0
LINE
  5
2FD
330
1F
100
AcDbEntity
  8
0
100
AcDbLine
 10
479.7144844683609
 20
-26.28435293909993
 30
0.0
 11
479.7144844683609
 21
-27.59856317561495
 31
0.0
  0
LINE
  5
2FE
330
1F
100
AcDbEntity
  8
0
100
AcDbLine
 10
471.1721179310132
 20
-27.59856317561495
 30
0.0
 11
471.1721179310132
 21
-26.28435293909993
 31
0.0
  0
LINE
  5
2FF
330
1F
100
AcDbEntity
  8
0
 62
   250
100
AcDbLine
 10
479.7144844683609
 20
-31.82971089639884
 30
0.0
 11
479.7144844683609
 21
-89.38434159894224
 31
0.0
  0
LINE
  5
300
330
1F
100
AcDbEntity
  8
0
 62
   250
100
AcDbLine
 10
473.3677628871851
 20
-91.49991545933418
 30
0.0
 11
479.7144844683609
 21
-85.15319387815835
 31
0.0
  0
LINE
  5
301
330
1F
100
AcDbEntity
  8
0
 62
   250
100
AcDbLine
 10
479.7144844683609
 20
-85.15319387815835
 30
0.0
 11
486.0612060495367
 21
-78.8064722969825
 31
0.0
  0
LINE
  5
302
330
1F
100
AcDbEntity
  8
0
 62
   250
100
AcDbLine
 10
479.7144844683609
 20
-85.15319387815835
 30
0.0
 11
473.3677628871851
 21
-85.15319387815835
 31
0.0
  0
LINE
  5
303
330
1F
100
AcDbEntity
  8
0
 62
   250
100
AcDbLine
 10
479.7144844683609
 20
-85.15319387815835
 30
0.0
 11
568.8774454170099
 21
-85.15319387815819
 31
0.0
  0
LINE
  5
304
330
1F
100
AcDbEntity
  8
0
 62
   250
100
AcDbLine
 10
554.125426973659
 20
174.5029372071902
 30
0.0
 11
575.7068819297633
 21
235.5161669976103
 31
0.0
  0
LINE
  5
305
330
1F
100
AcDbEntity
  8
0
 62
   250
100
AcDbLine
 10
575.7068819297633
 20
235.5161669976103
 30
0.0
 11
592.6314728128989
 21
235.5161669976103
 31
0.0
  0
LINE
  5
306
330
1F
100
AcDbEntity
  8
0
100
AcDbLine
 10
121.7890800469516
 20
283.4918891716249
 30
0.0
 11
121.7890800469516
 21
362.2623652227439
 31
0.0
  0
LINE
  5
307
330
1F
100
AcDbEntity
  8
0
100
AcDbLine
 10
121.7890800469516
 20
283.4918891716249
 30
0.0
 11
136.6560833475278
 21
283.4918891716249
 31
0.0
  0
LINE
  5
308
330
1F
100
AcDbEntity
  8
0
100
AcDbLine
 10
489.8077632157322
 20
-50.23328915069356
 30
0.0
 11
636.7877319779752
 21
-50.23328915069356
 31
0.0
  0
LINE
  5
309
330
1F
100
AcDbEntity
  8
0
100
AcDbLine
 10
121.7890800469516
 20
-248.0240133589188
 30
0.0
 11
121.7890800469516
 21
-353.0786941403382
 31
0.0
  0
LINE
  5
30A
330
1F
100
AcDbEntity
  8
0
 62
   250
100
AcDbLine
 10
-40.38201778884413
 20
-48.18191926885336
 30
0.0
 11
-108.5327528620987
 21
-48.18191926885338
 31
0.0
  0
LINE
  5
30B
330
1F
100
AcDbEntity
  8
0
 62
   250
100
AcDbLine
 10
-40.38201778884411
 20
-295.3355818734597
 30
0.0
 11
-108.5327528620986
 21
-295.3355818734597
 31
0.0
  0
LINE
  5
30C
330
1F
100
AcDbEntity
  8
0
 62
   250
100
AcDbLine
 10
-110.6483267224906
 20
-41.83519768767753
 30
0.0
 11
-104.3016051413148
 21
-48.18191926885336
 31
0.0
  0
LINE
  5
30D
330
1F
100
AcDbEntity
  8
0
 62
   250
100
AcDbLine
 10
-104.3016051413148
 20
-48.18191926885336
 30
0.0
 11
-97.95488356013897
 21
-54.52864085002919
 31
0.0
  0
LINE
  5
30E
330
1F
100
AcDbEntity
  8
0
 62
   250
100
AcDbLine
 10
-104.3016051413148
 20
-48.18191926885336
 30
0.0
 11
-104.3016051413148
 21
-41.83519768767752
 31
0.0
  0
LINE
  5
30F
330
1F
100
AcDbEntity
  8
0
 62
   250
100
AcDbLine
 10
-97.9548835601389
 20
-301.6823034546355
 30
0.0
 11
-104.3016051413147
 21
-295.3355818734597
 31
0.0
  0
LINE
  5
310
330
1F
100
AcDbEntity
  8
0
 62
   250
100
AcDbLine
 10
-104.3016051413147
 20
-295.3355818734597
 30
0.0
 11
-110.6483267224906
 21
-288.9888602922838
 31
0.0
  0
LINE
  5
311
330
1F
100
AcDbEntity
  8
0
 62
   250
100
AcDbLine
 10
-104.3016051413147
 20
-295.3355818734597
 30
0.0
 11
-104.3016051413147
 21
-301.6823034546355
 31
0.0
  0
LINE
  5
312
330
1F
100
AcDbEntity
  8
0
 62
   250
100
AcDbLine
 10
-104.3016051413148
 20
-48.18191926885338
 30
0.0
 11
-104.3016051413148
 21
-158.5364139437066
 31
0.0
  0
LINE
  5
313
330
1F
100
AcDbEntity
  8
0
 62
   250
100
AcDbLine
 10
-104.3016051413147
 20
-184.9810871986059
 30
0.0
 11
-104.3016051413147
 21
-295.3355818734597
 31
0.0
  0
LINE
  5
314
330
1F
100
AcDbEntity
  8
0
 62
   250
100
AcDbLine
 10
213.5869115740692
 20
-280.1894907388655
 30
0.0
 11
213.5869115740692
 21
-365.7970439223621
 31
0.0
  0
LINE
  5
315
330
1F
100
AcDbEntity
  8
0
 62
   250
100
AcDbLine
 10
471.1721179310132
 20
-280.1894907388655
 30
0.0
 11
471.1721179310132
 21
-365.7970439223621
 31
0.0
  0
LINE
  5
316
330
1F
100
AcDbEntity
  8
0
 62
   250
100
AcDbLine
 10
207.2401899928934
 20
-367.912617782754
 30
0.0
 11
213.5869115740692
 21
-361.5658962015781
 31
0.0
  0
LINE
  5
317
330
1F
100
AcDbEntity
  8
0
 62
   250
100
AcDbLine
 10
213.5869115740692
 20
-361.5658962015781
 30
0.0
 11
219.9336331552451
 21
-355.2191746204023
 31
0.0
  0
LINE
  5
318
330
1F
100
AcDbEntity
  8
0
 62
   250
100
AcDbLine
 10
213.5869115740692
 20
-361.5658962015781
 30
0.0
 11
207.2401899928934
 21
-361.5658962015781
 31
0.0
  0
LINE
  5
319
330
1F
100
AcDbEntity
  8
0
 62
   250
100
AcDbLine
 10
477.5188395121891
 20
-355.2191746204023
 30
0.0
 11
471.1721179310132
 21
-361.5658962015781
 31
0.0
  0
LINE
  5
31A
330
1F
100
AcDbEntity
  8
0
 62
   250
100
AcDbLine
 10
471.1721179310132
 20
-361.5658962015781
 30
0.0
 11
464.8253963498374
 21
-367.912617782754
 31
0.0
  0
LINE
  5
31B
330
1F
100
AcDbEntity
  8
0
 62
   250
100
AcDbLine
 10
471.1721179310132
 20
-361.5658962015781
 30
0.0
 11
477.5188395121891
 21
-361.5658962015781
 31
0.0
  0
LINE
  5
31C
330
1F
100
AcDbEntity
  8
0
 62
   250
100
AcDbLine
 10
213.5869115740692
 20
-361.5658962015781
 30
0.0
 11
317.521521892936
 21
-361.5658962015781
 31
0.0
  0
LINE
  5
31D
330
1F
100
AcDbEntity
  8
0
 62
   250
100
AcDbLine
 10
367.2375076121468
 20
-361.5658962015781
 30
0.0
 11
471.1721179310132
 21
-361.5658962015781
 31
0.0
  0
POLYLINE
  5
31E
330
1F
100
AcDbEntity
  8
0
 62
   250
100
AcDbPolyFaceMesh
 66
     1
 10
0.0
 20
0.0
 30
0.0
 70
    64
 71
     3
 72
     1
  0
VERTEX
  5
31F
330
31E
100
AcDbEntity
  8
0
100
AcDbVertex
100
AcDbPolyFaceMeshVertex
 10
521.237416747123
 20
164.2872184781082
 30
0.0
 70
   192
  0
VERTEX
  5
320
330
31E
100
AcDbEntity
  8
0
100
AcDbVertex
100
AcDbPolyFaceMeshVertex
 10
518.2062419527296
 20
159.5167562644929
 30
0.0
 70
   192
  0
VERTEX
  5
321
330
31E
100
AcDbEntity
  8
0
100
AcDbVertex
100
AcDbPolyFaceMeshVertex
 10
512.5716421241407
 20
165.531883425804
 30
0.0
 70
   192
  0
VERTEX
  5
322
330
31E
100
AcDbEntity
  8
0
 62
   250
100
AcDbFaceRecord
 10
0.0
 20
0.0
 30
0.0
 70
   128
 71
     1
 72
     2
 73
     3
  0
SEQEND
  5
323
330
31E
100
AcDbEntity
  8
0
 62
   250
  0
POLYLINE
  5
324
330
1F
100
AcDbEntity
  8
0
 62
   250
100
AcDbPolyFaceMesh
 66
     1
 10
0.0
 20
0.0
 30
0.0
 70
    64
 71
     3
 72
     1
  0
VERTEX
  5
325
330
324
100
AcDbEntity
  8
0
100
AcDbVertex
100
AcDbPolyFaceMeshVertex
 10
616.0916103144826
 20
99.6446575698824
 30
0.0
 70
   192
  0
VERTEX
  5
326
330
324
100
AcDbEntity
  8
0
100
AcDbVertex
100
AcDbPolyFaceMeshVertex
 10
614.75369048326
 20
91.57427549978432
 30
0.0
 70
   192
  0
VERTEX
  5
327
330
324
100
AcDbEntity
  8
0
100
AcDbVertex
100
AcDbPolyFaceMeshVertex
 10
610.7602813631322
 20
97.76843234997136
 30
0.0
 70
   192
  0
VERTEX
  5
328
330
324
100
AcDbEntity
  8
0
 62
   250
100
AcDbFaceRecord
 10
0.0
 20
0.0
 30
0.0
 70
   128
 71
     1
 72
     2
 73
     3
  0
SEQEND
  5
329
330
324
100
AcDbEntity
  8
0
 62
   250
  0
POLYLINE
  5
32A
330
1F
100
AcDbEntity
  8
0
 62
   250
100
AcDbPolyFaceMesh
 66
     1
 10
0.0
 20
0.0
 30
0.0
 70
    64
 71
     3
 72
     1
  0
VERTEX
  5
32B
330
32A
100
AcDbEntity
  8
0
100
AcDbVertex
100
AcDbPolyFaceMeshVertex
 10
414.3525006242352
 20
-267.4827791591129
 30
0.0
 70
   192
  0
VERTEX
  5
32C
330
32A
100
AcDbEntity
  8
0
100
AcDbVertex
100
AcDbPolyFaceMeshVertex
 10
409.431259988422
 20
-270.263832148167
 30
0.0
 70
   192
  0
VERTEX
  5
32D
330
32A
100
AcDbEntity
  8
0
100
AcDbVertex
100
AcDbPolyFaceMeshVertex
 10
407.552832441459
 20
-262.1029522537639
 30
0.0
 70
   192
  0
VERTEX
  5
32E
330
32A
100
AcDbEntity
  8
0
 62
   250
100
AcDbFaceRecord
 10
0.0
 20
0.0
 30
0.0
 70
   128
 71
     1
 72
     2
 73
     3
  0
SEQEND
  5
32F
330
32A
100
AcDbEntity
  8
0
 62
   250
  0
POLYLINE
  5
330
330
1F
100
AcDbEntity
  8
0
 62
   250
100
AcDbPolyFaceMesh
 66
     1
 10
0.0
 20
0.0
 30
0.0
 70
    64
 71
     3
 72
     1
  0
VERTEX
  5
331
330
330
100
AcDbEntity
  8
0
100
AcDbVertex
100
AcDbPolyFaceMeshVertex
 10
-277.2189460127167
 20
-269.4584947249256
 30
0.0
 70
   192
  0
VERTEX
  5
332
330
330
100
AcDbEntity
  8
0
100
AcDbVertex
100
AcDbPolyFaceMeshVertex
 10
-283.8806234807282
 20
-272.3696211075797
 30
0.0
 70
   192
  0
VERTEX
  5
333
330
330
100
AcDbEntity
  8
0
100
AcDbVertex
100
AcDbPolyFaceMeshVertex
 10
-281.2997681362657
 20
-265.5484521939835
 30
0.0
 70
   192
  0
VERTEX
  5
334
330
330
100
AcDbEntity
  8
0
 62
   250
100
AcDbFaceRecord
 10
0.0
 20
0.0
 30
0.0
 70
   128
 71
     1
 72
     2
 73
     3
  0
SEQEND
  5
335
330
330
100
AcDbEntity
  8
0
 62
   250
  0
POLYLINE
  5
336
330
1F
100
AcDbEntity
  8
0
 62
   250
100
AcDbPolyFaceMesh
 66
     1
 10
0.0
 20
0.0
 30
0.0
 70
    64
 71
     3
 72
     1
  0
VERTEX
  5
337
330
336
100
AcDbEntity
  8
0
100
AcDbVertex
100
AcDbPolyFaceMeshVertex
 10
-334.4169895945869
 20
-201.1324538743316
 30
0.0
 70
   192
  0
VERTEX
  5
338
330
336
100
AcDbEntity
  8
0
100
AcDbVertex
100
AcDbPolyFaceMeshVertex
 10
-337.1888966390788
 20
-207.2834960269531
 30
0.0
 70
   192
  0
VERTEX
  5
339
330
336
100
AcDbEntity
  8
0
100
AcDbVertex
100
AcDbPolyFaceMeshVertex
 10
-340.0427903437524
 20
-200.5715929972001
 30
0.0
 70
   192
  0
VERTEX
  5
33A
330
336
100
AcDbEntity
  8
0
 62
   250
100
AcDbFaceRecord
 10
0.0
 20
0.0
 30
0.0
 70
   128
 71
     1
 72
     2
 73
     3
  0
SEQEND
  5
33B
330
336
100
AcDbEntity
  8
0
 62
   250
  0
POLYLINE
  5
33C
330
1F
100
AcDbEntity
  8
0
 62
   250
100
AcDbPolyFaceMesh
 66
     1
 10
0.0
 20
0.0
 30
0.0
 70
    64
 71
     3
 72
     1
  0
VERTEX
  5
33D
330
33C
100
AcDbEntity
  8
0
100
AcDbVertex
100
AcDbPolyFaceMeshVertex
 10
-226.1807874439271
 20
-132.2311874733575
 30
0.0
 70
   192
  0
VERTEX
  5
33E
330
33C
100
AcDbEntity
  8
0
100
AcDbVertex
100
AcDbPolyFaceMeshVertex
 10
-228.0182803324265
 20
-140.9599204879874
 30
0.0
 70
   192
  0
VERTEX
  5
33F
330
33C
100
AcDbEntity
  8
0
100
AcDbVertex
100
AcDbPolyFaceMeshVertex
 10
-232.8880215635046
 20
-138.1116781519617
 30
0.0
 70
   192
  0
VERTEX
  5
340
330
33C
100
AcDbEntity
  8
0
 62
   250
100
AcDbFaceRecord
 10
0.0
 20
0.0
 30
0.0
 70
   128
 71
     1
 72
     2
 73
     3
  0
SEQEND
  5
341
330
33C
100
AcDbEntity
  8
0
 62
   250
  0
POLYLINE
  5
342
330
1F
100
AcDbEntity
  8
0
 62
   250
100
AcDbPolyFaceMesh
 66
     1
 10
0.0
 20
0.0
 30
0.0
 70
    64
 71
     3
 72
     1
  0
VERTEX
  5
343
330
342
100
AcDbEntity
  8
0
100
AcDbVertex
100
AcDbPolyFaceMeshVertex
 10
317.6906466985327
 20
217.2390659077266
 30
0.0
 70
   192
  0
VERTEX
  5
344
330
342
100
AcDbEntity
  8
0
100
AcDbVertex
100
AcDbPolyFaceMeshVertex
 10
313.4668895492108
 20
209.8961159267838
 30
0.0
 70
   192
  0
VERTEX
  5
345
330
342
100
AcDbEntity
  8
0
100
AcDbVertex
100
AcDbPolyFaceMeshVertex
 10
312.0746846320017
 20
217.8775484787932
 30
0.0
 70
   192
  0
VERTEX
  5
346
330
342
100
AcDbEntity
  8
0
 62
   250
100
AcDbFaceRecord
 10
0.0
 20
0.0
 30
0.0
 70
   128
 71
     1
 72
     2
 73
     3
  0
SEQEND
  5
347
330
342
100
AcDbEntity
  8
0
 62
   250
  0
POLYLINE
  5
348
330
1F
100
AcDbEntity
  8
0
 62
   250
100
AcDbPolyFaceMesh
 66
     1
 10
0.0
 20
0.0
 30
0.0
 70
    64
 71
     3
 72
     1
  0
VERTEX
  5
349
330
348
100
AcDbEntity
  8
0
100
AcDbVertex
100
AcDbPolyFaceMeshVertex
 10
559.5358053242143
 20
181.3813921089784
 30
0.0
 70
   192
  0
VERTEX
  5
34A
330
348
100
AcDbEntity
  8
0
100
AcDbVertex
100
AcDbPolyFaceMeshVertex
 10
554.125426973659
 20
174.5029372071902
 30
0.0
 70
   192
  0
VERTEX
  5
34B
330
348
100
AcDbEntity
  8
0
100
AcDbVertex
100
AcDbPolyFaceMeshVertex
 10
554.0249468322803
 20
182.6361689715309
 30
0.0
 70
   192
  0
VERTEX
  5
34C
330
348
100
AcDbEntity
  8
0
 62
   250
100
AcDbFaceRecord
 10
0.0
 20
0.0
 30
0.0
 70
   128
 71
     1
 72
     2
 73
     3
  0
SEQEND
  5
34D
330
348
100
AcDbEntity
  8
0
 62
   250
  0
MTEXT
  5
34F
330
1F
100
AcDbEntity
  8
0
 62
   250
100
AcDbMText
 10
350.9217181233693
 20
53.46959794123314
 30
0.0
 40
13.18561268146297
 41
0.0
 71
     7
 72
     1
  1
12' 6"
  7
TAHOMA
  0
MTEXT
  5
350
330
1F
100
AcDbEntity
  8
0
 62
   250
100
AcDbMText
 10
222.1291149448973
 20
111.4607771128531
 30
0.0
 40
13.18561268146296
 41
0.0
 71
     7
 72
     1
  1
3' 10"
  7
TAHOMA
  0
MTEXT
  5
351
330
1F
100
AcDbEntity
  8
0
 62
   250
100
AcDbMText
 10
269.820890364064
 20
-141.6768774991406
 30
0.0
 40
13.18561268146296
 41
0.0
 71
     7
 72
     1
  1
19' 7"
  7
TAHOMA
  0
MTEXT
  5
352
330
1F
100
AcDbEntity
  8
0
 62
   250
100
AcDbMText
 10
313.5001668109971
 20
-49.02505582483183
 30
0.0
 40
13.18561268146297
 41
0.0
 71
     7
 72
     1
  1
31' 4"
  7
TAHOMA
  0
MTEXT
  5
353
330
1F
100
AcDbEntity
  8
0
 62
   250
100
AcDbMText
 10
285.9601667863038
 20
16.02835088266183
 30
0.0
 40
13.18561268146297
 41
0.0
 71
     7
 72
     1
  1
5"
  7
TAHOMA
  0
MTEXT
  5
354
330
1F
100
AcDbEntity
  8
0
 62
   250
100
AcDbMText
 10
243.9738892054744
 20
249.8643640028701
 30
0.0
 40
13.18561268146298
 41
0.0
 71
     7
 72
     1
  1
6' 8"
  7
TAHOMA
  0
MTEXT
  5
355
330
1F
100
AcDbEntity
  8
0
 62
   250
100
AcDbMText
 10
503.7518965783521
 20
-154.4640698184173
 30
0.0
 40
13.18561268146298
 41
0.0
 71
     7
 72
     1
  1
Window 6'
  7
TAHOMA
  0
MTEXT
  5
356
330
1F
100
AcDbEntity
  8
0
 62
   250
100
AcDbMText
 10
503.7518965783521
 20
-174.5620214921408
 30
0.0
 40
13.18561268146296
 41
0.0
 71
     7
 72
     1
  1
above floor 
  7
TAHOMA
  0
MTEXT
  5
357
330
1F
100
AcDbEntity
  8
0
 62
   250
100
AcDbMText
 10
503.7518965783521
 20
-194.6599731658642
 30
0.0
 40
13.18561268146298
 41
0.0
 71
     7
 72
     1
  1
to outside 
  7
TAHOMA
  0
MTEXT
  5
358
330
1F
100
AcDbEntity
  8
0
 62
   250
100
AcDbMText
 10
503.7518965783521
 20
-214.7579248395877
 30
0.0
 40
13.18561268146296
 41
0.0
 71
     7
 72
     1
  1
Ground L.
  7
TAHOMA
  0
MTEXT
  5
359
330
1F
100
AcDbEntity
  8
0
 62
   250
100
AcDbMText
 10
564.2385180316307
 20
145.5976599323955
 30
0.0
 40
13.18561268146296
 41
0.0
 71
     7
 72
     1
  1
Pipe 2'
  7
TAHOMA
  0
MTEXT
  5
35A
330
1F
100
AcDbEntity
  8
0
 62
   250
100
AcDbMText
 10
544.0846499752778
 20
112.3033730014767
 30
0.0
 40
13.18561268146297
 41
0.0
 71
     7
 72
     1
  1
Drain
  7
TAHOMA
  0
MTEXT
  5
35B
330
1F
100
AcDbEntity
  8
0
 62
   250
100
AcDbMText
 10
148.1707004042146
 20
-106.4958105643372
 30
0.0
 40
13.18561268146296
 41
0.0
 71
     7
 72
     1
  1
5' 6"
  7
TAHOMA
  0
MTEXT
  5
35C
330
1F
100
AcDbEntity
  8
0
 62
   250
100
AcDbMText
 10
-243.2909939450736
 20
-367.8270430026561
 30
0.0
 40
13.18561268146296
 41
0.0
 71
     7
 72
     1
  1
~ 10 ' 10" Max. ceiling height
  7
TAHOMA
  0
MTEXT
  5
35D
330
1F
100
AcDbEntity
  8
0
 62
   250
100
AcDbMText
 10
-243.2909939450736
 20
-387.9249946763796
 30
0.0
 40
13.185612681463
 41
0.0
 71
     7
 72
     1
  1
min. below lights 8' 5''
  7
TAHOMA
  0
MTEXT
  5
35E
330
1F
100
AcDbEntity
  8
0
 62
   250
100
AcDbMText
 10
-474.9463316579915
 20
419.1664330631473
 30
0.0
 40
13.18561268146296
 41
0.0
 71
     7
 72
     1
  1
MAKEHartford 30 Arbor Street Basement space 11/11/2013
  7
TAHOMA
  0
MTEXT
  5
35F
330
1F
100
AcDbEntity
  8
0
 62
   250
100
AcDbMText
 10
90.16867870753231
 20
-278.2726039569207
 30
0.0
 40
13.185612681463
 41
0.0
 71
     7
 72
     1
  1
3'
  7
TAHOMA
  0
MTEXT
  5
360
330
1F
100
AcDbEntity
  8
0
 62
   250
100
AcDbMText
 10
-303.2799274138799
 20
-212.7132775556437
 30
0.0
 40
13.18561268146296
 41
0.0
 71
     7
 72
     1
  1
3' 6"
  7
TAHOMA
  0
MTEXT
  5
361
330
1F
100
AcDbEntity
  8
0
 62
   250
100
AcDbMText
 10
-235.7888669279236
 20
-276.3012886021481
 30
0.0
 40
13.18561268146296
 41
0.0
 71
     7
 72
     1
  1
3' 3"
  7
TAHOMA
  0
MTEXT
  5
362
330
1F
100
AcDbEntity
  8
0
 62
   250
100
AcDbMText
 10
-212.1026213341653
 20
15.85520356109342
 30
0.0
 40
13.18561268146297
 41
0.0
 71
     7
 72
     1
  1
15' 8"
  7
TAHOMA
  0
MTEXT
  5
363
330
1F
100
AcDbEntity
  8
0
 62
   250
100
AcDbMText
 10
-120.7650098963714
 20
-415.4964015571492
 30
0.0
 40
13.185612681463
 41
0.0
 71
     7
 72
     1
  1
27' 3"
  7
TAHOMA
  0
MTEXT
  5
364
330
1F
100
AcDbEntity
  8
0
 62
   250
100
AcDbMText
 10
-406.7330887519889
 20
6.582464807710121
 30
0.0
 40
13.18561268146297
 41
0.0
 71
     7
 72
     1
  1
10' 1/2"
  7
TAHOMA
  0
MTEXT
  5
365
330
1F
100
AcDbEntity
  8
0
 62
   250
100
AcDbMText
 10
-179.9473530792016
 20
170.5301918129589
 30
0.0
 40
13.18561268146296
 41
0.0
 71
     7
 72
     1
  1
7"
  7
TAHOMA
  0
MTEXT
  5
366
330
1F
100
AcDbEntity
  8
0
 62
   250
100
AcDbMText
 10
-10.18515209811758
 20
81.17553900685823
 30
0.0
 40
13.18561268146296
 41
0.0
 71
     7
 72
     1
  1
11' 3 3/8"
  7
TAHOMA
  0
MTEXT
  5
367
330
1F
100
AcDbEntity
  8
0
 62
   250
100
AcDbMText
 10
-175.6307561106966
 20
125.8470437714482
 30
0.0
 40
13.18561268146296
 41
0.0
 71
     7
 72
     1
  1
5' 1"
  7
TAHOMA
  0
MTEXT
  5
368
330
1F
100
AcDbEntity
  8
0
 62
   250
100
AcDbMText
 10
-192.4211601385125
 20
-108.0823783282256
 30
0.0
 40
13.18561268146296
 41
0.0
 71
     7
 72
     1
  1
24' 7"
  7
TAHOMA
  0
MTEXT
  5
369
330
1F
100
AcDbEntity
  8
0
 62
   250
100
AcDbMText
 10
-211.6249789135665
 20
-229.610090308804
 30
0.0
 40
13.18561268146296
 41
0.0
 71
     7
 72
     1
  1
Furnace
  7
TAHOMA
  0
MTEXT
  5
36A
330
1F
100
AcDbEntity
  8
0
 62
   250
100
AcDbMText
 10
-423.5277420618826
 20
-110.625887640446
 30
0.0
 40
13.18561268146297
 41
0.0
 71
     7
 72
     1
  1
Window
  7
TAHOMA
  0
MTEXT
  5
36B
330
1F
100
AcDbEntity
  8
0
 62
   250
100
AcDbMText
 10
-416.1232335505108
 20
-130.7238393141695
 30
0.0
 40
13.18561268146296
 41
0.0
 71
     7
 72
     1
  1
Typical
  7
TAHOMA
  0
MTEXT
  5
36C
330
1F
100
AcDbEntity
  8
0
 62
   250
100
AcDbMText
 10
-422.4699551316866
 20
-150.8217909878929
 30
0.0
 40
13.18561268146296
 41
0.0
 71
     7
 72
     1
  1
  4' 8'' h
  7
TAHOMA
  0
MTEXT
  5
36D
330
1F
100
AcDbEntity
  8
0
 62
   250
100
AcDbMText
 10
-414.0076596901189
 20
-170.9197426616165
 30
0.0
 40
13.18561268146298
 41
0.0
 71
     7
 72
     1
  1
8'10''w
  7
TAHOMA
  0
MTEXT
  5
36E
330
1F
100
AcDbEntity
  8
0
 62
   250
100
AcDbMText
 10
-446.799054526194
 20
-191.0176943353399
 30
0.0
 40
13.18561268146298
 41
0.0
 71
     7
 72
     1
  1
6' off floor 
  7
TAHOMA
  0
MTEXT
  5
36F
330
1F
100
AcDbEntity
  8
0
 62
   250
100
AcDbMText
 10
-440.4523329450182
 20
-211.1156460090634
 30
0.0
 40
13.18561268146298
 41
0.0
 71
     7
 72
     1
  1
North side
  7
TAHOMA
  0
MTEXT
  5
370
330
1F
100
AcDbEntity
  8
0
 62
   250
100
AcDbMText
 10
-401.3142165277672
 20
-231.2135976827868
 30
0.0
 40
13.18561268146298
 41
0.0
 71
     7
 72
     1
  1
Bldg.
  7
TAHOMA
  0
MTEXT
  5
371
330
1F
100
AcDbEntity
  8
0
 62
   250
100
AcDbMText
 10
-490.6027285551673
 20
-373.8912790805672
 30
0.0
 40
13.185612681463
 41
0.0
 71
     7
 72
     1
  1
~  812 Feet 
  7
TAHOMA
  0
MTEXT
  5
372
330
1F
100
AcDbEntity
  8
0
 62
   250
100
AcDbMText
 10
-568.0570711300318
 20
17.22358379945688
 30
0.0
 40
13.18561268146296
 41
0.0
 71
     7
 72
     1
  1
40' 6 1/2"
  7
TAHOMA
  0
MTEXT
  5
373
330
1F
100
AcDbEntity
  8
0
 62
   250
100
AcDbMText
 10
-35.2372847316852
 20
398.3463880299627
 30
0.0
 40
13.185612681463
 41
0.0
 71
     7
 72
     1
  1
14' 5 1/2"
  7
TAHOMA
  0
MTEXT
  5
374
330
1F
100
AcDbEntity
  8
0
 62
   250
100
AcDbMText
 10
-49.5409812981924
 20
39.19130630123905
 30
0.0
 40
13.18561268146297
 41
0.0
 71
     7
 72
     1
  1
11' 11"
  7
TAHOMA
  0
MTEXT
  5
375
330
1F
100
AcDbEntity
  8
0
 62
   250
100
AcDbMText
 10
-29.03862941109424
 20
-102.0228394679319
 30
0.0
 40
13.18561268146297
 41
0.0
 71
     7
 72
     1
  1
5'
  7
TAHOMA
  0
MTEXT
  5
376
330
1F
100
AcDbEntity
  8
0
 62
   250
100
AcDbMText
 10
-195.7287077844201
 20
256.282409745564
 30
0.0
 40
13.18561268146296
 41
0.0
 71
     7
 72
     1
  1
10' 3 1/2"
  7
TAHOMA
  0
MTEXT
  5
377
330
1F
100
AcDbEntity
  8
0
 62
   250
100
AcDbMText
 10
-247.482237928861
 20
108.1000911447821
 30
0.0
 40
13.18561268146297
 41
0.0
 71
     7
 72
     1
  1
13' 1 1/2"
  7
TAHOMA
  0
MTEXT
  5
378
330
1F
100
AcDbEntity
  8
0
 62
   250
100
AcDbMText
 10
-118.7757438116562
 20
70.35820321127102
 30
0.0
 40
13.18561268146296
 41
0.0
 71
     7
 72
     1
  1
2' 7 1/8"
  7
TAHOMA
  0
MTEXT
  5
379
330
1F
100
AcDbEntity
  8
0
 62
   250
100
AcDbMText
 10
400.4507468048122
 20
108.6801725569708
 30
0.0
 40
13.18561268146296
 41
0.0
 71
     7
 72
     1
  1
11' 4"
  7
TAHOMA
  0
MTEXT
  5
37A
330
1F
100
AcDbEntity
  8
0
 62
   250
100
AcDbMText
 10
35.53408917886237
 20
142.9728459160346
 30
0.0
 40
13.18561268146298
 41
0.0
 71
     7
 72
     1
  1
24' 7 15/16"
  7
TAHOMA
  0
MTEXT
  5
37B
330
1F
100
AcDbEntity
  8
0
 62
   250
100
AcDbMText
 10
-146.0841888840557
 20
-178.3515569118881
 30
0.0
 40
13.18561268146298
 41
0.0
 71
     7
 72
     1
  1
15' 8 1/16"
  7
TAHOMA
  0
MTEXT
  5
37C
330
1F
100
AcDbEntity
  8
0
 62
   250
100
AcDbMText
 10
320.6948826835239
 20
-368.1587025423097
 30
0.0
 40
13.185612681463
 41
0.0
 71
     7
 72
     1
  1
16' 4"
  7
TAHOMA
  0
ENDSEC
  0
SECTION
  2
OBJECTS
  0
DICTIONARY
  5
C
330
0
100
AcDbDictionary
  3
ACAD_GROUP
350
D
  3
ACAD_LAYOUT
350
1A
  3
ACAD_MATERIAL
350
43
  3
ACAD_MLEADERSTYLE
350
39F
  3
ACAD_MLINESTYLE
350
17
  3
ACAD_PLOTSETTINGS
350
19
  3
ACAD_SCALELIST
350
47
  3
ACAD_VISUALSTYLE
350
2A
  3
ACDBHEADERROUNDTRIPXREC
350
37D
  3
ACDBVARIABLEDICTIONARY
350
39D
  0
DICTIONARY
  5
3A4
330
8
100
AcDbDictionary
280
     1
  3
ACAD_XREC_ROUNDTRIP
360
3A5
  0
DICTIONARY
  5
D
102
{ACAD_REACTORS
330
C
102
}
330
C
100
AcDbDictionary
  0
DICTIONARY
  5
1A
102
{ACAD_REACTORS
330
C
102
}
330
C
100
AcDbDictionary
  0
DICTIONARY
  5
43
102
{ACAD_REACTORS
330
C
102
}
330
C
100
AcDbDictionary
  3
BYBLOCK
350
45
  3
BYLAYER
350
44
  3
GLOBAL
350
46
  0
DICTIONARY
  5
39F
102
{ACAD_REACTORS
330
C
102
}
330
C
100
AcDbDictionary
  0
DICTIONARY
  5
17
102
{ACAD_REACTORS
330
C
102
}
330
C
100
AcDbDictionary
  3
STANDARD
350
18
  0
DICTIONARY
  5
19
102
{ACAD_REACTORS
330
C
102
}
330
C
100
AcDbDictionary
  0
DICTIONARY
  5
47
102
{ACAD_REACTORS
330
C
102
}
330
C
100
AcDbDictionary
  3
A0
350
48
  3
A1
350
49
  3
A2
350
4A
  3
A3
350
4B
  3
A4
350
4C
  3
A5
350
4D
  3
A6
350
4E
  3
A7
350
4F
  3
A8
350
50
  3
A9
350
51
  3
B0
350
52
  3
B1
350
53
  3
B2
350
54
  3
B3
350
55
  3
B4
350
56
  3
B5
350
57
  3
B6
350
58
  3
B7
350
59
  3
B8
350
5A
  3
B9
350
5B
  3
C0
350
5C
  3
C1
350
5D
  3
C2
350
5E
  3
C3
350
5F
  3
C4
350
60
  3
C5
350
61
  3
C6
350
62
  3
C7
350
63
  3
C8
350
64
  3
C9
350
65
  3
D0
350
66
  3
D1
350
67
  3
D2
350
68
  0
DICTIONARY
  5
2A
102
{ACAD_REACTORS
330
C
102
}
330
C
100
AcDbDictionary
  3
2DWIREFRAME
350
2F
  3
BASIC
350
32
  3
BRIGHTEN
350
36
  3
COLORCHANGE
350
3A
  3
CONCEPTUAL
350
34
  3
DIM
350
35
  3
EDGECOLOROFF
350
3D
  3
FACEPATTERN
350
39
  3
FLAT
350
2B
  3
FLATWITHEDGES
350
2C
  3
GOURAUD
350
2D
  3
GOURAUDWITHEDGES
350
2E
  3
HIDDEN
350
31
  3
JITTEROFF
350
3B
  3
LINEPATTERN
350
38
  3
OVERHANGOFF
350
3C
  3
REALISTIC
350
33
  3
SHADED
350
42
  3
SHADED_WITH_EDGES
350
41
  3
SHADES_OF_GRAY
350
3E
  3
SKETCHY
350
3F
  3
THICKEN
350
37
  3
WIREFRAME
350
30
  3
X-RAY
350
40
  0
DICTIONARY
  5
37D
102
{ACAD_REACTORS
330
C
102
}
330
C
100
AcDbDictionary
  3
CEPSNTYPE
350
386
  3
DIMSTYLEDATA
350
39C
  3
FINGERPRINTGUID
350
387
  3
HYPERLINKBASE
350
380
  3
INSUNITS
350
385
  3
LAYOUTDICT
350
382
  3
LWETCUNION
350
384
  3
PLOTSETDICT
350
383
  3
PSVPSCALE
350
389
  3
PUCSBASE
350
38C
  3
PUCSORGBACK
350
392
  3
PUCSORGBOTTOM
350
38E
  3
PUCSORGFRONT
350
391
  3
PUCSORGLEFT
350
38F
  3
PUCSORGRIGHT
350
390
  3
PUCSORGTOP
350
38D
  3
PUCSORTHOREF
350
38A
  3
PUCSORTHOVIEW
350
38B
  3
STYLESHEET
350
381
  3
TSTACKALIGN
350
37E
  3
TSTACKSIZE
350
37F
  3
UCSBASE
350
395
  3
UCSORGBACK
350
39B
  3
UCSORGBOTTOM
350
397
  3
UCSORGFRONT
350
39A
  3
UCSORGLEFT
350
398
  3
UCSORGRIGHT
350
399
  3
UCSORGTOP
350
396
  3
UCSORTHOREF
350
393
  3
UCSORTHOVIEW
350
394
  3
VERSIONGUID
350
388
  0
DICTIONARY
  5
39D
102
{ACAD_REACTORS
330
C
102
}
330
C
100
AcDbDictionary
  3
CANNOSCALE
350
3A6
  3
DIMASSOC
350
3A2
  3
HIDETEXT
350
3A3
  3
MSLTSCALE
350
3A7
  0
XRECORD
  5
3A5
102
{ACAD_REACTORS
330
3A4
102
}
330
3A4
100
AcDbXrecord
102
VTR_0.000_0.000_1.000_1.000_GRIDDISPLAY
 70
     3
102
VTR_0.000_0.000_1.000_1.000_GRIDMAJOR
 70
     5
102
VTR_0.000_0.000_1.000_1.000_DEFAULTLIGHTING
280
     1
102
VTR_0.000_0.000_1.000_1.000_DEFAULTLIGHTINGTYPE
 70
     1
102
VTR_0.000_0.000_1.000_1.000_BRIGHTNESS
141
0.0
102
VTR_0.000_0.000_1.000_1.000_CONTRAST
142
0.0
  0
MATERIAL
  5
45
102
{ACAD_REACTORS
330
43
102
}
102
{ACAD_XDICTIONARY
360
3AA
102
}
330
43
100
AcDbMaterial
  1
BYBLOCK
  0
MATERIAL
  5
44
102
{ACAD_REACTORS
330
43
102
}
102
{ACAD_XDICTIONARY
360
3A8
102
}
330
43
100
AcDbMaterial
  1
BYLAYER
  0
MATERIAL
  5
46
102
{ACAD_REACTORS
330
43
102
}
102
{ACAD_XDICTIONARY
360
3AC
102
}
330
43
100
AcDbMaterial
  1
GLOBAL
  0
MLINESTYLE
  5
18
102
{ACAD_REACTORS
330
17
102
}
330
17
100
AcDbMlineStyle
  2
Standard
 70
     0
  3

 62
   256
 51
90.0
 52
90.0
 71
     2
 49
0.5
 62
   256
  6
BYLAYER
 49
-0.5
 62
   256
  6
BYLAYER
  0
ACAD_PROXY_OBJECT
  5
48
102
{ACAD_REACTORS
330
47
102
}
330
47
100
AcDbProxyObject
 90
      499
 91
      503
 93
       41
310
903313A31580
  0
ACAD_PROXY_OBJECT
  5
49
102
{ACAD_REACTORS
330
47
102
}
330
47
100
AcDbProxyObject
 90
      499
 91
      503
 93
      105
310
903313A324000000000000004000
  0
ACAD_PROXY_OBJECT
  5
4A
102
{ACAD_REACTORS
330
47
102
}
330
47
100
AcDbProxyObject
 90
      499
 91
      503
 93
      105
310
903313A344000000000000104000
  0
ACAD_PROXY_OBJECT
  5
4B
102
{ACAD_REACTORS
330
47
102
}
330
47
100
AcDbProxyObject
 90
      499
 91
      503
 93
      105
310
903313A354000000000000144000
  0
ACAD_PROXY_OBJECT
  5
4C
102
{ACAD_REACTORS
330
47
102
}
330
47
100
AcDbProxyObject
 90
      499
 91
      503
 93
      105
310
903313A384000000000000204000
  0
ACAD_PROXY_OBJECT
  5
4D
102
{ACAD_REACTORS
330
47
102
}
330
47
100
AcDbProxyObject
 90
      499
 91
      503
 93
      113
310
904313A31304000000000000244000
  0
ACAD_PROXY_OBJECT
  5
4E
102
{ACAD_REACTORS
330
47
102
}
330
47
100
AcDbProxyObject
 90
      499
 91
      503
 93
      113
310
904313A31364000000000000304000
  0
ACAD_PROXY_OBJECT
  5
4F
102
{ACAD_REACTORS
330
47
102
}
330
47
100
AcDbProxyObject
 90
      499
 91
      503
 93
      113
310
904313A32304000000000000344000
  0
ACAD_PROXY_OBJECT
  5
50
102
{ACAD_REACTORS
330
47
102
}
330
47
100
AcDbProxyObject
 90
      499
 91
      503
 93
      113
310
904313A333040000000000003E4000
  0
ACAD_PROXY_OBJECT
  5
51
102
{ACAD_REACTORS
330
47
102
}
330
47
100
AcDbProxyObject
 90
      499
 91
      503
 93
      113
310
904313A34304000000000000444000
  0
ACAD_PROXY_OBJECT
  5
52
102
{ACAD_REACTORS
330
47
102
}
330
47
100
AcDbProxyObject
 90
      499
 91
      503
 93
      113
310
904313A35304000000000000494000
  0
ACAD_PROXY_OBJECT
  5
53
102
{ACAD_REACTORS
330
47
102
}
330
47
100
AcDbProxyObject
 90
      499
 91
      503
 93
      121
310
905313A3130304000000000000594000
  0
ACAD_PROXY_OBJECT
  5
54
102
{ACAD_REACTORS
330
47
102
}
330
47
100
AcDbProxyObject
 90
      499
 91
      503
 93
      105
310
903323A310000000000000010100
  0
ACAD_PROXY_OBJECT
  5
55
102
{ACAD_REACTORS
330
47
102
}
330
47
100
AcDbProxyObject
 90
      499
 91
      503
 93
      105
310
903343A310000000000000410100
  0
ACAD_PROXY_OBJECT
  5
56
102
{ACAD_REACTORS
330
47
102
}
330
47
100
AcDbProxyObject
 90
      499
 91
      503
 93
      105
310
903383A310000000000000810100
  0
ACAD_PROXY_OBJECT
  5
57
102
{ACAD_REACTORS
330
47
102
}
330
47
100
AcDbProxyObject
 90
      499
 91
      503
 93
      113
310
90431303A310000000000000910100
  0
ACAD_PROXY_OBJECT
  5
58
102
{ACAD_REACTORS
330
47
102
}
330
47
100
AcDbProxyObject
 90
      499
 91
      503
 93
      121
310
9053130303A310000000000001650100
  0
ACAD_PROXY_OBJECT
  5
59
102
{ACAD_REACTORS
330
47
102
}
330
47
100
AcDbProxyObject
 90
      499
 91
      503
 93
      257
310
90E312F31323822203D2031272D3022000000000000200FC000000000000284000
  0
ACAD_PROXY_OBJECT
  5
5A
102
{ACAD_REACTORS
330
47
102
}
330
47
100
AcDbProxyObject
 90
      499
 91
      503
 93
      249
310
90D312F363422203D2031272D3022000000000000240FC000000000000284000
  0
ACAD_PROXY_OBJECT
  5
5B
102
{ACAD_REACTORS
330
47
102
}
330
47
100
AcDbProxyObject
 90
      499
 91
      503
 93
      249
310
90D312F333222203D2031272D3022000000000000280FC000000000000284000
  0
ACAD_PROXY_OBJECT
  5
5C
102
{ACAD_REACTORS
330
47
102
}
330
47
100
AcDbProxyObject
 90
      499
 91
      503
 93
      249
310
90D312F313622203D2031272D30220000000000002C0FC000000000000284000
  0
ACAD_PROXY_OBJECT
  5
5D
102
{ACAD_REACTORS
330
47
102
}
330
47
100
AcDbProxyObject
 90
      499
 91
      503
 93
      249
310
90D332F333222203D2031272D30220000000000002E0FC000000000000284000
  0
ACAD_PROXY_OBJECT
  5
5E
102
{ACAD_REACTORS
330
47
102
}
330
47
100
AcDbProxyObject
 90
      499
 91
      503
 93
      241
310
90C312F3822203D2031272D3022000000000000300FC000000000000284000
  0
ACAD_PROXY_OBJECT
  5
5F
102
{ACAD_REACTORS
330
47
102
}
330
47
100
AcDbProxyObject
 90
      499
 91
      503
 93
      249
310
90D332F313622203D2031272D3022000000000000320FC000000000000284000
  0
ACAD_PROXY_OBJECT
  5
60
102
{ACAD_REACTORS
330
47
102
}
330
47
100
AcDbProxyObject
 90
      499
 91
      503
 93
      241
310
90C312F3422203D2031272D3022000000000000340FC000000000000284000
  0
ACAD_PROXY_OBJECT
  5
61
102
{ACAD_REACTORS
330
47
102
}
330
47
100
AcDbProxyObject
 90
      499
 91
      503
 93
      241
310
90C332F3822203D2031272D3022000000000000360FC000000000000284000
  0
ACAD_PROXY_OBJECT
  5
62
102
{ACAD_REACTORS
330
47
102
}
330
47
100
AcDbProxyObject
 90
      499
 91
      503
 93
      241
310
90C312F3222203D2031272D3022000000000000380FC000000000000284000
  0
ACAD_PROXY_OBJECT
  5
63
102
{ACAD_REACTORS
330
47
102
}
330
47
100
AcDbProxyObject
 90
      499
 91
      503
 93
      241
310
90C332F3422203D2031272D30220000000000003A0FC000000000000284000
  0
ACAD_PROXY_OBJECT
  5
64
102
{ACAD_REACTORS
330
47
102
}
330
47
100
AcDbProxyObject
 90
      499
 91
      503
 93
      161
310
90A3122203D2031272D30224000000000000284000
  0
ACAD_PROXY_OBJECT
  5
65
102
{ACAD_REACTORS
330
47
102
}
330
47
100
AcDbProxyObject
 90
      499
 91
      503
 93
      257
310
90E312D312F3222203D2031272D30220000000000003E0FC000000000000284000
  0
ACAD_PROXY_OBJECT
  5
66
102
{ACAD_REACTORS
330
47
102
}
330
47
100
AcDbProxyObject
 90
      499
 91
      503
 93
      225
310
90A3322203D2031272D302200000000000002100000000000000284000
  0
ACAD_PROXY_OBJECT
  5
67
102
{ACAD_REACTORS
330
47
102
}
330
47
100
AcDbProxyObject
 90
      499
 91
      503
 93
      225
310
90A3622203D2031272D302200000000000006100000000000000284000
  0
ACAD_PROXY_OBJECT
  5
68
102
{ACAD_REACTORS
330
47
102
}
330
47
100
AcDbProxyObject
 90
      499
 91
      503
 93
      249
310
90D31272D3022203D2031272D30220000000000000A100000000000000284000
  0
ACAD_PROXY_OBJECT
  5
2F
102
{ACAD_REACTORS
330
2A
102
}
330
2A
100
AcDbProxyObject
 90
      499
 91
      501
 93
      436
310
42CC9915DA5C99599C985B595049028333333333333E33F0000000000000F90107901411070040501600405405064090741402480A0340
1001
ACAD
1000
AcDbSavedByObjectVersion
1070
     0
  0
ACAD_PROXY_OBJECT
  5
32
102
{ACAD_REACTORS
330
2A
102
}
330
2A
100
AcDbProxyObject
 90
      499
 91
      501
 93
      388
310
4150985CDA58D07406404333333333333E33F0000000000000F90107A41107004050150841D405064090741402480A0350
1001
ACAD
1000
AcDbSavedByObjectVersion
1070
     0
  0
ACAD_PROXY_OBJECT
  5
36
102
{ACAD_REACTORS
330
2A
102
}
330
2A
100
AcDbProxyObject
 90
      499
 91
      501
 93
      428
310
42109C9A59DA1D195B90C409028333333333333E33F0000000000000F9010790141107004050150841D405064090741402480A029950
1001
ACAD
1000
AcDbSavedByObjectVersion
1070
     0
  0
ACAD_PROXY_OBJECT
  5
3A
102
{ACAD_REACTORS
330
2A
102
}
330
2A
100
AcDbProxyObject
 90
      499
 91
      501
 93
      452
310
42D0DBDB1BDC90DA185B99D95104090240C333333333333E33F0000000000000F90108901411070040501508421405064090741402480A0350
1001
ACAD
1000
AcDbSavedByObjectVersion
1070
     0
  0
ACAD_PROXY_OBJECT
  5
34
102
{ACAD_REACTORS
330
2A
102
}
330
2A
100
AcDbProxyObject
 90
      499
 91
      501
 93
      500
310
4290DBDB98D95C1D1D585B10940D028333333333333E33F0000000000000F90107902409070040501000000000018199010841D405064090740C02480A0340
1001
ACAD
1000
AcDbSavedByObjectVersion
1070
     0
  0
ACAD_PROXY_OBJECT
  5
35
102
{ACAD_REACTORS
330
2A
102
}
330
2A
100
AcDbProxyObject
 90
      499
 91
      501
 93
      412
310
40D11A5B50B409028333333333333E33F0000000000000F9010790141107004050150841D405064090741402480A02677FFFFFD0
1001
ACAD
1000
AcDbSavedByObjectVersion
1070
     0
  0
ACAD_PROXY_OBJECT
  5
3D
102
{ACAD_REACTORS
330
2A
102
}
330
2A
100
AcDbProxyObject
 90
      499
 91
      501
 93
      452
310
43115919D950DBDB1BDC93D999916409028333333333333E33F0000000000000F9010790141107004050150841D405064090741402480A0350
1001
ACAD
1000
AcDbSavedByObjectVersion
1070
     0
  0
ACAD_PROXY_OBJECT
  5
39
102
{ACAD_REACTORS
330
2A
102
}
330
2A
100
AcDbProxyObject
 90
      499
 91
      501
 93
      444
310
42D19858D95C185D1D195C9B90F409028333333333333E33F0000000000000F9010790141107004050150841D405064090741402480A0350
1001
ACAD
1000
AcDbSavedByObjectVersion
1070
     0
  0
ACAD_PROXY_OBJECT
  5
2B
102
{ACAD_REACTORS
330
2A
102
}
330
2A
100
AcDbProxyObject
 90
      499
 91
      501
 93
      380
310
41119B185D240901404333333333333E33F0000000000000F9010740A907004050150841D405064090741402480A1B50
1001
ACAD
1000
AcDbSavedByObjectVersion
1070
     0
  0
ACAD_PROXY_OBJECT
  5
2C
102
{ACAD_REACTORS
330
2A
102
}
330
2A
100
AcDbProxyObject
 90
      499
 91
      501
 93
      468
310
43519B185D15DA5D1A115919D95CD0140901404333333333333E33F0000000000000F90107409019070040501600405405064090741402480A1B50
1001
ACAD
1000
AcDbSavedByObjectVersion
1070
     0
  0
ACAD_PROXY_OBJECT
  5
2D
102
{ACAD_REACTORS
330
2A
102
}
330
2A
100
AcDbProxyObject
 90
      499
 91
      501
 93
      404
310
41D1DBDD5C985D5910240902404333333333333E33F0000000000000F9010740A9070040501641D405064090741402480A1B50
1001
ACAD
1000
AcDbSavedByObjectVersion
1070
     0
  0
ACAD_PROXY_OBJECT
  5
2E
102
{ACAD_REACTORS
330
2A
102
}
330
2A
100
AcDbProxyObject
 90
      499
 91
      501
 93
      492
310
4411DBDD5C985D5915DA5D1A115919D95CD0340902404333333333333E33F0000000000000F90107409019070040501600405405064090741402480A1B50
1001
ACAD
1000
AcDbSavedByObjectVersion
1070
     0
  0
ACAD_PROXY_OBJECT
  5
31
102
{ACAD_REACTORS
330
2A
102
}
330
2A
100
AcDbProxyObject
 90
      499
 91
      501
 93
      476
310
41921A5919195B90640502408333333333333E33F0000000000000F901079024090700405020000000000001110200405405064090740C02480A0340
1001
ACAD
1000
AcDbSavedByObjectVersion
1070
     0
  0
ACAD_PROXY_OBJECT
  5
3B
102
{ACAD_REACTORS
330
2A
102
}
330
2A
100
AcDbProxyObject
 90
      499
 91
      501
 93
      428
310
42529A5D1D195C93D999914409028333333333333E33F0000000000000F9010790141107004050150A41D405064090741402480A0350
1001
ACAD
1000
AcDbSavedByObjectVersion
1070
     0
  0
ACAD_PROXY_OBJECT
  5
38
102
{ACAD_REACTORS
330
2A
102
}
330
2A
100
AcDbProxyObject
 90
      499
 91
      501
 93
      444
310
42D31A5B995C185D1D195C9B90E409028333333333333E33F0000000000000F9010790141107004050750841D405064090741402483A0350
1001
ACAD
1000
AcDbSavedByObjectVersion
1070
     0
  0
ACAD_PROXY_OBJECT
  5
3C
102
{ACAD_REACTORS
330
2A
102
}
330
2A
100
AcDbProxyObject
 90
      499
 91
      501
 93
      444
310
42D3DD995C9A185B99D3D999915409028333333333333E33F0000000000000F9010790141107004050150941D405064090741402480A0350
1001
ACAD
1000
AcDbSavedByObjectVersion
1070
     0
  0
ACAD_PROXY_OBJECT
  5
33
102
{ACAD_REACTORS
330
2A
102
}
330
2A
100
AcDbProxyObject
 90
      499
 91
      501
 93
      428
310
425499585B1A5CDD1A58D08409038333333333333E33F0000000000000F9010740A907004050150800405405064090740C02480A1B40
1001
ACAD
1000
AcDbSavedByObjectVersion
1070
     0
  0
ACAD_PROXY_OBJECT
  5
42
102
{ACAD_REACTORS
330
2A
102
}
330
2A
100
AcDbProxyObject
 90
      499
 91
      501
 93
      420
310
4194DA1859195911B40902404333333333333E33F0000000000000F9010740A41107004050150800405405064090840C02480A0B40
1001
ACAD
1000
AcDbSavedByObjectVersion
1070
     0
  0
ACAD_PROXY_OBJECT
  5
41
102
{ACAD_REACTORS
330
2A
102
}
330
2A
100
AcDbProxyObject
 90
      499
 91
      501
 93
      516
310
4454DA18591959081DDA5D1A08195919D95CD1A40902404333333333333E33F0000000000000F901074090142907004050250800405405064090740C02480A0B40
1001
ACAD
1000
AcDbSavedByObjectVersion
1070
     0
  0
ACAD_PROXY_OBJECT
  5
3E
102
{ACAD_REACTORS
330
2A
102
}
330
2A
100
AcDbProxyObject
 90
      499
 91
      501
 93
      532
310
4394DA1859195CC81BD98811DC985E5174090240C333333333333E33F0000000000000F901079024090741D01000000000000111010841D405064090740C02480A0340
1001
ACAD
1000
AcDbSavedByObjectVersion
1070
     0
  0
ACAD_PROXY_OBJECT
  5
3F
102
{ACAD_REACTORS
330
2A
102
}
330
2A
100
AcDbProxyObject
 90
      499
 91
      501
 93
      476
310
41D4DAD95D18DA1E51840502408333333333333E33F0000000000000F901079024090741D01000000000000111010B41D405064090741802480A0340
1001
ACAD
1000
AcDbSavedByObjectVersion
1070
     0
  0
ACAD_PROXY_OBJECT
  5
37
102
{ACAD_REACTORS
330
2A
102
}
330
2A
100
AcDbProxyObject
 90
      499
 91
      501
 93
      412
310
41D51A1A58DAD95B90D409028333333333333E33F0000000000000F9010790141107004050150C41D405064090741402480A0350
1001
ACAD
1000
AcDbSavedByObjectVersion
1070
     0
  0
ACAD_PROXY_OBJECT
  5
30
102
{ACAD_REACTORS
330
2A
102
}
330
2A
100
AcDbProxyObject
 90
      499
 91
      501
 93
      420
310
4255DA5C99599C985B595059028333333333333E33F0000000000000F90107901411070040501600405405064090740C02480A0340
1001
ACAD
1000
AcDbSavedByObjectVersion
1070
     0
  0
ACAD_PROXY_OBJECT
  5
40
102
{ACAD_REACTORS
330
2A
102
}
330
2A
100
AcDbProxyObject
 90
      499
 91
      501
 93
      404
310
41560B54985E51940902404000000000000E03F0000000000000F9010740501907004050150841D405064090740C02480A1B40
1001
ACAD
1000
AcDbSavedByObjectVersion
1070
     0
  0
XRECORD
  5
386
102
{ACAD_REACTORS
330
37D
102
}
330
37D
100
AcDbXrecord
 90
        0
  0
XRECORD
  5
39C
102
{ACAD_REACTORS
330
37D
102
}
330
37D
100
AcDbXrecord
1000
DSTYLE
1002
{
1070
   340
340
11
1002
}
  0
XRECORD
  5
387
102
{ACAD_REACTORS
330
37D
102
}
330
37D
100
AcDbXrecord
  1
{8AABCBF0-681B-4716-BBE5-ED06C379F98E}
  0
XRECORD
  5
380
102
{ACAD_REACTORS
330
37D
102
}
330
37D
100
AcDbXrecord
  1

  0
XRECORD
  5
385
102
{ACAD_REACTORS
330
37D
102
}
330
37D
100
AcDbXrecord
 90
        1
  0
XRECORD
  5
382
102
{ACAD_REACTORS
330
37D
102
}
330
37D
100
AcDbXrecord
340
1A
  0
XRECORD
  5
384
102
{ACAD_REACTORS
330
37D
102
}
330
37D
100
AcDbXrecord
 90
    10781
  0
XRECORD
  5
383
102
{ACAD_REACTORS
330
37D
102
}
330
37D
100
AcDbXrecord
340
19
  0
XRECORD
  5
389
102
{ACAD_REACTORS
330
37D
102
}
330
37D
100
AcDbXrecord
 40
0.0
  0
XRECORD
  5
38C
102
{ACAD_REACTORS
330
37D
102
}
330
37D
100
AcDbXrecord
340
0
  0
XRECORD
  5
392
102
{ACAD_REACTORS
330
37D
102
}
330
37D
100
AcDbXrecord
 10
0.0
 20
0.0
 30
0.0
  0
XRECORD
  5
38E
102
{ACAD_REACTORS
330
37D
102
}
330
37D
100
AcDbXrecord
 10
0.0
 20
0.0
 30
0.0
  0
XRECORD
  5
391
102
{ACAD_REACTORS
330
37D
102
}
330
37D
100
AcDbXrecord
 10
0.0
 20
0.0
 30
0.0
  0
XRECORD
  5
38F
102
{ACAD_REACTORS
330
37D
102
}
330
37D
100
AcDbXrecord
 10
0.0
 20
0.0
 30
0.0
  0
XRECORD
  5
390
102
{ACAD_REACTORS
330
37D
102
}
330
37D
100
AcDbXrecord
 10
0.0
 20
0.0
 30
0.0
  0
XRECORD
  5
38D
102
{ACAD_REACTORS
330
37D
102
}
330
37D
100
AcDbXrecord
 10
0.0
 20
0.0
 30
0.0
  0
XRECORD
  5
38A
102
{ACAD_REACTORS
330
37D
102
}
330
37D
100
AcDbXrecord
340
0
  0
XRECORD
  5
38B
102
{ACAD_REACTORS
330
37D
102
}
330
37D
100
AcDbXrecord
 70
     0
  0
XRECORD
  5
381
102
{ACAD_REACTORS
330
37D
102
}
330
37D
100
AcDbXrecord
  1

  0
XRECORD
  5
37E
102
{ACAD_REACTORS
330
37D
102
}
330
37D
100
AcDbXrecord
 90
        1
  0
XRECORD
  5
37F
102
{ACAD_REACTORS
330
37D
102
}
330
37D
100
AcDbXrecord
 90
       70
  0
XRECORD
  5
395
102
{ACAD_REACTORS
330
37D
102
}
330
37D
100
AcDbXrecord
340
0
  0
XRECORD
  5
39B
102
{ACAD_REACTORS
330
37D
102
}
330
37D
100
AcDbXrecord
 10
0.0
 20
0.0
 30
0.0
  0
XRECORD
  5
397
102
{ACAD_REACTORS
330
37D
102
}
330
37D
100
AcDbXrecord
 10
0.0
 20
0.0
 30
0.0
  0
XRECORD
  5
39A
102
{ACAD_REACTORS
330
37D
102
}
330
37D
100
AcDbXrecord
 10
0.0
 20
0.0
 30
0.0
  0
XRECORD
  5
398
102
{ACAD_REACTORS
330
37D
102
}
330
37D
100
AcDbXrecord
 10
0.0
 20
0.0
 30
0.0
  0
XRECORD
  5
399
102
{ACAD_REACTORS
330
37D
102
}
330
37D
100
AcDbXrecord
 10
0.0
 20
0.0
 30
0.0
  0
XRECORD
  5
396
102
{ACAD_REACTORS
330
37D
102
}
330
37D
100
AcDbXrecord
 10
0.0
 20
0.0
 30
0.0
  0
XRECORD
  5
393
102
{ACAD_REACTORS
330
37D
102
}
330
37D
100
AcDbXrecord
340
0
  0
XRECORD
  5
394
102
{ACAD_REACTORS
330
37D
102
}
330
37D
100
AcDbXrecord
 70
     0
  0
XRECORD
  5
388
102
{ACAD_REACTORS
330
37D
102
}
330
37D
100
AcDbXrecord
  1
{FAEB1C32-E019-11D5-929B-00C0DF256EC4}
  0
DICTIONARYVAR
  5
3A6
102
{ACAD_REACTORS
330
39D
102
}
330
39D
100
DictionaryVariables
280
     0
  1
1:1
  0
DICTIONARYVAR
  5
3A2
102
{ACAD_REACTORS
330
39D
102
}
330
39D
100
DictionaryVariables
280
     0
  1
2
  0
DICTIONARYVAR
  5
3A3
102
{ACAD_REACTORS
330
39D
102
}
330
39D
100
DictionaryVariables
280
     0
  1
1
  0
DICTIONARYVAR
  5
3A7
102
{ACAD_REACTORS
330
39D
102
}
330
39D
100
DictionaryVariables
280
     0
  1
1
  0
DICTIONARY
  5
3AA
330
45
100
AcDbDictionary
280
     1
  3
ACAD_XREC_ROUNDTRIP
360
3AB
  0
DICTIONARY
  5
3A8
330
44
100
AcDbDictionary
280
     1
  3
ACAD_XREC_ROUNDTRIP
360
3A9
  0
DICTIONARY
  5
3AC
330
46
100
AcDbDictionary
280
     1
  3
ACAD_XREC_ROUNDTRIP
360
3AD
  0
XRECORD
  5
3AB
102
{ACAD_REACTORS
330
3AA
102
}
330
3AA
100
AcDbXrecord
102
MATERIAL
148
0.0
149
0.0
149
0.0
 93
        0
 94
      127
282
     0
 72
     1
 77
     1
171
     1
175
     1
179
     1
273
     0
  0
XRECORD
  5
3A9
102
{ACAD_REACTORS
330
3A8
102
}
330
3A8
100
AcDbXrecord
102
MATERIAL
148
0.0
149
0.0
149
0.0
 93
        0
 94
      127
282
     0
 72
     1
 77
     1
171
     1
175
     1
179
     1
273
     0
  0
XRECORD
  5
3AD
102
{ACAD_REACTORS
330
3AC
102
}
330
3AC
100
AcDbXrecord
102
MATERIAL
148
0.0
149
0.0
149
0.0
 93
        0
 94
      127
282
     0
 72
     1
 77
     1
171
     1
175
     1
179
     1
273
     0
  0
ENDSEC
  0
EOF
